{"glyphs":{"0":{"ha":997,"x_min":-43,"x_max":1000,"o":"m 1000 465 q 999 403 1000 444 q 996 319 999 361 q 985 256 993 276 q 938 142 971 197 q 903 95 922 117 q 865 51 883 74 q 822 1 843 25 q 775 -43 801 -24 q 727 -68 763 -56 q 646 -92 692 -81 q 553 -112 600 -104 q 472 -124 507 -121 q 424 -124 436 -126 q 354 -114 393 -121 q 283 -94 315 -107 q 226 -67 253 -83 q 171 -33 199 -51 q 130 -8 150 -21 q 92 18 110 4 q 11 113 42 60 q -10 158 -1 125 q -26 233 -19 190 q -36 318 -32 275 q -42 394 -40 361 q -43 439 -43 426 q -40 497 -43 454 q -29 590 -36 539 q -11 684 -22 642 q 15 742 0 726 q 53 792 32 769 q 100 835 75 815 q 140 863 119 850 q 178 889 160 875 q 213 918 196 903 q 249 947 231 933 q 290 972 268 961 q 333 992 311 982 q 403 1013 365 1004 q 471 1024 440 1021 q 525 1019 483 1028 q 623 994 567 1011 q 735 958 679 978 q 832 919 790 938 q 886 888 874 900 q 927 826 910 860 q 958 760 944 792 q 976 712 968 736 q 989 661 983 688 q 997 603 994 640 q 999 527 999 565 q 1000 465 1000 489 m 189 888 q 145 844 165 867 q 110 794 125 822 q 88 747 97 782 q 73 665 79 711 q 63 574 67 619 q 58 492 60 528 q 57 444 57 457 q 64 385 57 429 q 83 289 71 342 q 109 192 94 236 q 139 133 124 149 q 190 102 151 121 q 281 63 229 83 q 384 24 332 42 q 475 -3 436 7 q 526 -12 514 -14 q 589 -6 558 -10 q 650 6 619 -3 q 731 37 682 17 q 810 86 779 57 q 853 144 831 107 q 895 217 876 181 q 922 275 914 254 q 933 355 931 307 q 938 433 936 403 q 935 485 938 446 q 926 574 932 524 q 913 676 921 625 q 894 765 904 726 q 871 817 883 804 q 824 845 861 828 q 735 883 788 863 q 627 924 683 904 q 519 957 571 943 q 431 976 467 971 q 383 974 394 982 q 325 956 363 968 q 249 927 288 944 q 189 888 211 910 m 421 589 q 427 632 424 610 q 443 672 431 654 q 476 699 454 690 q 519 699 499 707 q 524 697 522 699 q 528 693 526 694 q 543 682 536 689 q 560 657 551 674 q 572 607 571 635 q 574 554 574 579 q 575 502 575 533 q 575 440 575 471 q 574 388 575 408 q 568 343 572 367 q 551 301 564 319 q 541 291 547 297 q 529 282 535 285 q 522 278 526 279 q 513 275 517 278 q 508 274 511 275 q 501 272 504 272 q 492 272 497 271 q 483 275 488 274 q 478 275 482 275 q 472 276 475 275 q 469 280 471 278 q 464 283 467 282 q 449 294 456 288 q 440 306 444 299 q 433 319 436 314 q 422 372 424 343 q 419 425 421 400 q 419 506 419 457 q 421 589 419 554 z "},"1":{"ha":774,"x_min":-56,"x_max":750,"o":"m 582 -94 q 505 -101 551 -101 q 426 -100 458 -100 q 379 -99 404 -100 q 333 -89 354 -99 q 319 -82 326 -86 q 308 -69 314 -79 q 288 -30 294 -53 q 276 15 282 -7 q 266 83 268 47 q 264 150 264 119 l 264 339 q 262 360 263 349 q 257 379 261 371 q 253 385 256 382 q 249 392 251 389 q 245 398 247 394 q 240 403 243 401 q 233 406 238 406 q 225 408 228 407 q 218 411 222 410 q 211 413 214 413 q 196 410 207 413 q 168 401 182 407 q 139 393 154 396 q 131 392 135 393 q 124 390 126 390 q 93 397 108 390 q 67 414 78 404 q 44 438 54 425 q 22 465 33 451 q -5 502 8 483 q -28 542 -18 521 q -38 574 -33 557 q -47 606 -43 590 q -53 647 -51 625 q -49 686 -56 668 q -26 721 -42 706 q 6 749 -10 736 q 63 794 33 772 q 121 838 92 815 q 167 875 144 857 q 214 911 190 893 q 230 922 222 917 q 247 931 238 926 q 252 934 249 932 q 257 936 256 936 q 268 933 263 936 q 277 933 271 933 q 285 929 283 932 q 284 922 286 928 q 281 915 282 917 q 279 908 279 913 q 276 901 279 904 q 273 898 275 900 q 269 893 271 896 q 258 882 264 888 q 247 872 253 876 q 181 819 217 846 q 113 765 144 792 q 82 742 97 754 q 54 715 67 731 q 48 709 51 713 q 42 701 44 706 l 38 690 q 34 681 36 686 q 32 671 32 675 q 34 649 31 661 q 42 628 38 638 q 67 586 53 606 q 97 547 82 567 q 138 507 114 524 q 144 503 140 506 q 150 499 147 500 q 217 504 182 485 q 274 547 251 524 q 301 602 296 571 q 308 664 307 633 q 309 722 310 685 q 309 797 308 760 q 311 856 310 835 q 316 886 313 871 q 328 915 319 901 q 331 922 329 918 q 335 928 333 926 q 356 939 343 933 q 363 943 360 943 q 368 939 364 943 q 379 935 372 938 q 388 928 386 932 q 390 922 390 926 q 392 914 390 917 q 394 894 394 904 q 394 874 394 885 q 395 808 396 843 q 393 740 394 772 q 392 692 393 731 q 392 598 392 653 q 391 482 392 543 q 390 366 390 421 q 390 273 390 311 q 389 224 389 235 q 387 154 388 193 q 388 83 386 115 q 388 63 388 74 q 392 43 389 51 l 400 31 q 404 24 403 28 q 408 18 406 21 q 413 15 410 17 q 418 13 417 14 q 426 8 422 11 q 436 4 431 6 q 451 2 443 3 q 465 0 460 1 q 533 -1 497 -1 q 599 1 568 0 q 628 4 614 1 q 656 14 643 7 q 663 18 658 17 q 668 21 667 19 q 688 50 682 32 q 694 85 693 68 q 697 140 697 113 q 696 196 696 168 l 696 844 q 697 867 696 856 q 701 889 697 878 q 702 896 701 892 q 704 901 703 900 q 717 899 711 901 q 723 899 719 899 q 728 897 726 899 q 731 894 731 896 q 732 890 731 893 q 738 881 735 886 q 742 871 740 876 q 746 848 744 861 q 747 824 747 835 q 749 776 750 800 q 749 724 749 751 l 749 68 q 748 27 749 49 q 738 -12 747 6 q 703 -47 726 -36 q 657 -68 681 -58 q 620 -83 639 -75 q 582 -94 601 -90 z "},"2":{"ha":978,"x_min":-49,"x_max":1022,"o":"m 1018 57 q 1016 30 1017 44 q 1008 4 1015 15 q 1003 -4 1007 0 q 996 -11 999 -8 q 989 -19 993 -18 q 960 -32 976 -29 q 931 -39 944 -35 q 920 -43 925 -40 q 910 -49 915 -46 q 881 -66 894 -54 q 853 -85 868 -78 q 825 -94 838 -92 q 792 -99 810 -99 q 758 -99 775 -99 l 199 -99 q 136 -100 168 -99 q 72 -96 104 -101 q 63 -94 68 -94 q 54 -92 58 -93 q 46 -87 50 -90 q 38 -83 42 -85 q 33 -80 36 -81 q 28 -78 31 -79 q 25 -72 26 -75 q 22 -67 24 -68 q 18 -60 21 -64 q 14 -53 15 -56 q 8 -22 8 -37 q 3 8 7 -6 q -15 49 -3 31 q -36 88 -28 67 q -48 147 -47 115 q -47 206 -49 178 q -42 250 -46 228 q -25 290 -37 272 q 3 322 -14 308 q 36 347 19 335 q 86 385 61 367 q 138 421 111 403 q 169 443 153 432 q 199 467 185 454 q 208 474 201 469 q 215 483 214 479 q 215 492 217 486 q 214 501 214 499 q 213 510 214 507 q 210 510 211 511 q 206 511 208 510 q 195 514 200 513 q 183 517 190 515 q 134 518 160 519 q 85 522 108 517 q 74 525 79 524 q 65 528 69 526 q 60 533 63 531 q 54 538 57 536 q 42 547 46 543 q 39 554 40 550 q 36 561 38 558 q 27 599 29 581 q 18 636 25 618 q -4 676 10 658 q -24 717 -18 694 q -21 763 -25 738 q -7 815 -17 789 q 17 864 3 840 q 62 897 29 876 q 136 942 94 918 q 219 988 178 965 q 294 1025 261 1010 q 339 1043 326 1040 q 392 1046 360 1046 q 455 1046 424 1046 q 507 1046 486 1046 q 560 1035 519 1047 q 656 1005 601 1024 q 766 965 711 986 q 862 925 821 944 q 915 893 903 906 q 940 847 931 871 q 960 799 950 822 q 979 746 971 772 q 992 692 988 719 q 993 615 999 661 q 972 536 988 568 q 933 472 957 506 q 883 407 910 438 q 873 397 879 401 q 864 385 867 392 q 861 377 863 382 q 858 369 860 372 q 855 364 857 368 q 854 358 853 360 q 856 356 854 357 q 860 354 858 356 q 873 347 867 350 q 886 342 879 343 q 927 336 906 340 q 964 317 949 332 q 983 290 975 306 q 996 258 990 274 q 1005 234 1000 246 q 1013 210 1010 222 q 1021 135 1022 179 q 1018 57 1019 92 m 208 0 l 815 0 q 844 1 831 0 q 871 7 857 3 q 878 9 874 8 q 885 11 883 10 q 890 15 888 13 q 894 19 893 18 q 910 32 903 25 q 912 38 911 35 q 914 44 913 42 q 922 78 921 63 q 922 203 926 140 q 917 229 921 217 q 907 251 914 242 q 900 264 904 260 q 893 269 897 267 q 886 272 889 271 q 860 282 874 279 q 833 286 847 285 l 715 286 q 686 286 701 286 q 657 292 671 286 q 650 294 656 292 q 643 297 644 296 q 644 304 642 299 q 646 311 646 310 q 646 317 646 314 q 647 322 646 321 q 653 328 650 325 q 658 332 657 331 q 694 360 676 347 q 747 415 715 381 q 811 485 779 450 q 863 540 843 519 q 897 647 889 589 q 894 736 903 690 q 869 811 889 776 q 821 845 857 824 q 738 891 785 867 q 642 938 690 915 q 558 974 594 960 q 510 990 522 989 q 470 990 490 990 q 431 988 450 990 q 376 969 415 983 q 292 937 338 956 q 208 898 247 918 q 154 863 169 878 q 128 830 140 847 q 106 793 117 813 q 83 743 93 771 q 75 688 74 715 q 78 664 75 676 q 88 642 81 651 q 97 635 92 638 q 103 630 100 633 q 111 625 107 626 q 135 618 122 619 q 158 617 147 617 q 218 615 189 615 q 278 615 247 615 q 328 617 301 615 q 376 631 354 619 q 417 663 400 642 q 456 693 433 683 q 465 698 460 696 q 472 700 469 700 q 484 700 478 701 q 496 697 490 699 l 503 697 q 510 691 506 696 q 515 683 514 686 q 520 680 518 682 q 524 675 522 678 l 524 667 q 526 655 525 661 q 525 643 526 649 q 518 620 524 632 q 506 597 513 608 q 465 549 489 571 q 418 507 442 526 q 372 469 403 492 q 306 422 342 446 q 240 374 271 397 q 193 336 208 351 q 160 313 176 325 q 128 289 144 300 q 101 266 114 278 q 76 239 88 254 q 50 161 54 208 q 51 82 46 114 q 61 44 54 64 q 85 14 68 25 q 105 6 93 8 q 126 1 117 3 q 166 0 146 0 q 208 0 186 0 z "},"3":{"ha":985,"x_min":-58,"x_max":1018,"o":"m 989 197 q 943 140 969 176 q 890 68 917 104 q 843 11 864 32 q 781 -24 814 -10 q 715 -50 747 -39 q 658 -69 700 -62 q 564 -79 615 -76 q 470 -81 513 -82 q 413 -74 428 -79 q 362 -64 392 -69 q 301 -50 332 -58 q 250 -31 271 -42 q 174 15 210 -12 q 138 47 156 31 q 103 76 121 63 q 66 106 85 92 q 29 133 47 119 q -14 180 7 154 q -46 235 -35 206 q -53 258 -51 246 q -57 281 -56 269 q -58 288 -57 283 q -57 296 -58 293 q -55 301 -57 299 q -51 306 -53 304 q -43 322 -49 317 q -32 331 -40 326 q -18 338 -24 336 q 21 344 0 344 q 60 344 42 344 l 189 344 q 212 344 200 344 q 235 344 224 343 q 242 344 238 344 q 250 346 247 344 q 260 353 256 349 q 268 358 263 354 q 274 364 274 361 q 273 369 275 365 q 271 375 271 374 q 269 383 269 378 q 265 393 268 389 q 260 398 264 396 q 253 401 256 400 q 212 433 233 418 q 179 474 190 447 q 172 519 171 494 q 172 565 172 543 q 174 592 174 578 q 167 619 174 607 q 163 626 165 622 q 157 631 160 629 q 145 646 151 639 q 132 660 139 653 q 108 684 119 671 q 83 707 97 697 q 44 731 65 721 q 10 760 24 742 q -6 797 -1 776 q -10 836 -10 817 q -12 873 -11 854 q -11 910 -12 892 q -10 938 -10 924 q -4 965 -10 953 q 13 990 1 979 q 17 993 14 992 q 22 996 21 994 q 31 1001 26 999 q 39 1004 35 1003 q 48 1007 43 1007 q 57 1008 53 1007 q 89 1011 72 1011 q 121 1011 106 1011 l 532 1011 q 595 1011 553 1011 q 681 1011 638 1011 q 744 1008 724 1011 q 800 1005 772 1007 q 854 1003 828 1003 q 885 1002 869 1003 q 917 996 901 1001 q 924 994 919 994 q 931 992 928 994 q 940 985 936 989 q 948 980 943 983 q 954 974 953 976 q 958 967 957 971 q 960 960 958 963 q 968 929 967 944 q 971 897 969 914 q 971 833 971 867 q 960 769 971 799 q 940 735 953 751 q 917 703 928 718 q 895 667 907 686 q 879 629 883 649 q 876 619 878 625 q 876 610 875 614 q 878 606 876 608 q 881 600 879 603 q 885 591 883 596 q 890 583 888 586 q 898 576 893 579 q 907 568 903 572 q 945 535 926 551 q 979 499 964 519 q 1004 441 994 483 q 1016 349 1014 399 q 1012 256 1018 299 q 989 197 1006 214 m 824 86 q 876 141 853 110 q 914 203 900 172 q 929 259 929 218 q 919 349 929 300 q 894 440 910 399 q 864 496 879 481 q 827 528 847 514 q 785 554 807 543 q 749 575 764 564 q 742 581 746 578 q 736 585 738 583 q 735 593 735 588 q 733 604 735 597 q 733 615 732 611 q 740 623 735 618 q 747 629 744 628 q 785 661 764 647 q 826 690 807 675 q 851 715 839 701 q 868 744 863 729 q 874 769 872 756 q 876 793 875 782 q 878 831 878 813 q 878 867 879 849 q 876 895 876 881 q 871 922 876 910 q 866 931 869 926 q 860 939 863 936 q 857 945 858 942 q 853 950 856 949 q 831 963 843 958 q 806 969 818 967 q 782 972 794 972 q 758 972 769 972 l 283 972 q 224 973 254 972 q 165 969 194 974 q 142 964 156 968 q 119 953 129 960 q 115 947 118 950 q 110 940 113 943 l 100 928 q 99 920 99 925 q 97 913 99 915 q 93 884 94 899 q 92 854 92 869 q 91 797 92 828 q 104 740 90 765 q 109 732 107 738 q 114 724 111 726 q 119 721 117 722 q 125 717 122 719 q 131 713 128 715 q 139 708 135 711 q 158 704 147 706 q 179 703 169 703 q 244 701 211 701 q 308 701 278 701 q 355 701 332 701 q 400 700 378 701 q 412 699 407 700 q 422 694 417 697 q 427 694 425 693 q 431 692 429 694 q 430 690 431 690 q 429 688 429 689 q 426 681 428 685 q 424 672 425 676 q 417 662 422 665 q 406 654 413 658 q 378 637 392 644 q 350 621 364 629 q 321 601 336 613 q 296 575 306 590 q 278 526 282 553 q 276 475 275 500 q 279 453 278 465 q 286 432 281 442 q 315 405 297 414 q 351 393 332 396 q 422 390 383 388 q 492 386 461 393 q 515 381 503 385 q 536 369 526 376 q 547 357 542 367 q 552 353 550 356 q 556 347 554 350 q 558 332 558 339 q 561 319 561 324 q 560 313 561 317 q 557 307 558 310 q 555 299 556 304 q 551 292 554 294 l 540 282 q 469 261 511 258 q 422 270 444 261 q 375 289 399 279 q 317 303 354 300 q 243 306 281 307 q 185 306 206 306 q 146 306 165 306 q 107 303 126 306 q 98 303 103 303 q 89 300 93 303 q 75 295 83 299 q 63 288 67 292 q 58 281 60 286 q 53 272 56 276 q 46 264 47 267 q 45 256 44 261 q 46 249 46 251 q 51 204 43 225 q 69 170 58 186 q 90 139 79 154 q 144 95 111 118 q 209 53 176 72 q 263 21 242 33 q 320 4 283 11 q 394 -7 357 -3 q 451 -12 431 -11 q 501 -8 464 -14 q 588 7 539 -3 q 685 31 636 17 q 772 58 735 44 q 824 86 810 72 z "},"4":{"ha":1021,"x_min":-71,"x_max":1096,"o":"m 1094 264 q 1094 228 1094 246 q 1090 193 1093 211 q 1089 185 1089 189 q 1086 178 1089 181 q 1083 170 1085 174 q 1078 164 1081 167 q 1069 149 1075 154 q 1063 145 1068 147 q 1056 140 1058 143 q 1049 136 1053 139 q 1042 132 1046 133 q 1033 130 1039 131 q 1024 129 1028 129 q 997 125 1010 126 q 971 118 983 124 q 964 116 968 117 q 957 113 960 115 q 953 107 954 111 q 949 100 951 103 q 944 94 947 97 q 940 88 942 90 q 934 58 935 74 q 929 28 933 42 q 914 -1 924 11 l 900 -11 q 888 -19 894 -17 q 858 -27 874 -25 q 826 -29 842 -29 q 774 -29 806 -29 q 709 -29 742 -29 q 656 -28 676 -29 q 640 -26 650 -26 q 624 -22 631 -25 q 619 -19 622 -21 q 615 -15 617 -17 l 607 -8 q 612 -6 607 -7 q 618 -4 617 -6 q 651 0 635 0 q 696 0 674 0 q 740 1 718 0 q 764 6 751 3 q 785 15 776 8 q 794 22 789 18 q 803 29 800 25 q 810 42 806 33 q 815 56 814 50 q 821 85 821 69 q 826 113 821 100 q 832 120 829 117 q 836 126 835 124 q 843 138 839 133 q 850 142 846 140 q 856 144 854 143 q 899 156 876 154 q 942 168 922 158 q 949 172 944 171 q 954 175 953 174 q 970 196 965 183 q 978 219 975 208 q 981 245 981 232 q 982 271 982 258 l 982 342 q 981 358 982 349 q 978 374 981 368 q 974 381 976 376 q 968 386 971 385 q 965 393 967 389 q 960 399 963 397 q 955 399 958 400 q 949 399 951 399 q 939 399 944 399 q 929 399 933 400 q 926 395 928 397 q 921 392 924 393 q 884 360 901 378 q 850 326 867 343 l 613 88 q 590 64 601 76 q 565 40 578 51 q 557 33 561 38 q 547 26 553 29 l 536 26 q 527 24 533 25 q 518 24 521 22 q 513 31 515 25 q 507 39 510 36 q 499 47 501 42 q 498 55 497 50 q 499 63 499 60 q 498 70 499 65 q 499 78 497 75 l 504 92 q 519 115 511 104 q 536 136 526 126 l 711 313 q 738 340 725 326 q 765 368 751 354 q 783 385 774 376 q 797 403 792 393 q 822 478 821 435 q 822 551 822 521 l 822 843 q 822 878 822 861 q 818 913 822 896 l 814 931 l 806 943 q 802 949 804 946 q 797 954 800 953 q 784 963 792 958 q 769 968 776 967 q 760 969 765 969 q 751 971 756 969 q 716 973 733 974 q 681 972 699 972 l 556 972 q 515 971 536 972 q 475 963 493 969 q 443 941 457 954 q 418 913 429 928 q 383 868 400 890 q 347 822 365 846 q 309 776 335 810 q 251 698 283 742 q 187 610 219 654 q 128 533 154 567 q 90 486 103 499 q 58 436 72 461 q 39 379 43 411 q 35 318 35 349 q 36 257 36 288 q 36 238 36 247 q 35 217 36 228 q 35 210 35 214 q 33 203 35 206 q 29 193 32 197 q 24 185 26 189 q 18 178 21 179 q 11 176 17 176 q 3 176 6 176 q -5 176 0 176 q -12 176 -10 175 q -20 178 -17 176 q -26 182 -24 181 q -46 193 -36 186 q -61 210 -56 200 q -63 218 -62 213 q -65 228 -64 224 q -70 266 -71 246 q -69 306 -69 286 q -69 376 -69 338 q -54 446 -68 415 q -32 483 -46 465 q -6 518 -18 501 q 64 608 32 564 q 104 658 79 624 q 157 731 129 692 q 210 803 185 769 q 250 853 235 838 l 306 925 q 329 953 317 939 q 356 975 342 967 q 391 991 372 986 q 428 1001 410 996 q 463 1016 446 1008 q 499 1028 481 1024 q 524 1031 511 1031 q 550 1033 538 1032 l 721 1033 q 758 1031 739 1033 q 794 1022 776 1029 q 820 1007 808 1017 q 844 989 832 997 q 883 965 863 976 q 918 935 904 954 q 922 928 921 932 q 924 921 922 924 q 935 869 935 896 q 935 814 935 842 l 935 629 q 935 576 935 604 q 944 524 935 547 q 967 485 951 504 q 1000 454 983 467 q 1041 433 1019 442 q 1076 404 1063 424 q 1087 383 1083 394 q 1092 360 1090 371 q 1095 313 1096 338 q 1094 264 1094 289 m 478 439 q 464 431 471 435 q 449 426 457 428 q 438 424 443 425 q 426 424 432 424 l 408 429 q 399 432 401 429 q 395 441 396 435 q 393 450 394 447 q 390 456 392 453 q 389 461 389 460 q 393 471 390 465 q 397 479 396 476 q 415 509 404 494 q 436 538 426 524 l 453 554 q 458 558 456 556 q 461 563 460 561 q 472 563 465 564 q 481 561 478 561 q 485 562 483 561 q 489 560 488 563 q 490 553 490 558 q 494 544 493 549 q 497 536 496 540 q 499 525 499 531 q 499 514 499 519 q 494 476 499 494 q 478 439 490 458 m 358 106 q 349 113 354 108 q 338 118 343 117 q 306 126 324 125 q 272 126 288 126 q 224 127 249 126 q 175 131 199 128 q 159 135 167 133 q 143 139 151 136 q 132 142 135 139 q 128 147 131 142 q 125 153 125 153 q 129 153 125 153 q 144 154 135 154 q 172 156 158 156 q 200 156 186 156 l 369 156 q 401 156 385 156 q 432 151 418 156 q 442 150 436 150 q 450 147 447 150 q 460 141 456 146 q 467 133 464 136 q 472 128 472 131 q 474 121 474 126 q 475 110 474 115 q 476 99 476 104 l 471 89 q 464 71 469 81 q 451 61 460 67 q 447 56 450 60 q 440 51 443 53 q 430 51 436 50 q 419 50 424 51 q 416 49 418 50 q 411 50 414 49 q 406 55 410 51 q 400 60 403 58 q 381 82 389 69 q 358 106 372 94 z "},"5":{"ha":958,"x_min":-29,"x_max":1021,"o":"m 976 489 q 1002 440 992 474 q 1017 369 1013 407 q 1018 299 1021 332 q 1007 250 1015 265 q 991 207 1001 228 q 967 163 981 186 q 928 116 949 138 q 889 72 908 94 q 858 38 874 56 q 825 4 843 19 q 776 -33 803 -17 q 722 -64 750 -50 q 670 -87 707 -78 q 590 -102 633 -97 q 509 -108 546 -107 q 457 -108 472 -110 q 403 -104 436 -107 q 338 -96 371 -101 q 283 -82 304 -90 q 231 -60 257 -72 q 178 -36 204 -49 q 120 15 157 -17 q 47 80 83 47 q -6 133 11 113 q -19 173 -14 153 q -28 213 -25 193 q -29 238 -29 225 q -25 263 -29 251 q -22 275 -24 268 q -17 286 -21 282 q -9 291 -14 289 q 0 294 -4 293 q 5 299 1 296 q 10 300 8 301 q 14 297 11 300 q 18 293 17 294 q 26 287 21 290 q 33 281 32 283 q 37 267 36 275 q 39 254 38 260 q 49 217 43 236 q 64 182 54 197 q 69 174 67 179 q 74 167 71 169 q 81 163 76 164 q 88 158 85 161 q 94 154 90 157 q 100 151 97 151 q 115 153 106 150 q 123 153 118 153 q 131 154 128 153 q 150 162 140 157 q 168 172 160 167 q 234 210 200 192 q 299 249 268 229 q 322 263 310 256 q 342 282 335 271 q 348 289 344 285 q 351 294 351 293 q 347 301 351 297 q 340 307 342 306 q 335 313 339 310 q 329 318 332 317 q 322 319 328 319 q 314 319 317 319 q 272 324 293 324 q 222 324 251 325 q 161 323 192 322 q 110 326 131 324 q 72 335 92 329 q 40 357 53 342 q 33 369 36 361 q 21 427 19 396 q 25 486 22 458 q 31 531 28 499 q 38 603 35 563 q 45 685 42 644 q 53 758 49 726 q 60 803 57 790 q 65 849 63 826 q 74 894 68 872 q 89 925 79 911 l 94 933 q 103 938 99 936 q 113 942 108 940 q 117 944 115 943 q 119 946 118 946 q 124 943 122 943 q 132 937 126 940 q 139 931 138 933 q 140 919 140 926 q 139 908 139 913 q 135 869 138 889 q 129 831 132 850 q 121 776 125 815 q 113 692 117 738 q 106 607 110 646 q 97 553 101 568 q 94 513 96 533 q 90 474 92 493 q 94 443 90 458 q 97 431 94 436 q 102 425 99 428 q 107 419 106 422 q 112 413 110 417 q 117 407 114 410 q 124 404 119 406 q 131 401 128 403 q 169 393 150 394 q 208 392 189 392 q 261 392 229 392 q 325 392 293 392 q 378 397 357 393 q 424 408 401 400 q 468 417 446 415 q 513 406 492 417 q 544 375 535 396 q 551 353 550 365 q 551 329 553 340 q 551 321 550 325 q 549 314 551 317 q 545 306 547 310 q 540 300 543 303 q 537 292 539 296 q 532 285 535 288 q 526 281 531 283 q 518 276 521 279 q 512 272 515 275 q 506 268 508 269 q 497 266 501 267 q 489 265 493 265 q 436 267 463 261 q 385 265 410 272 q 348 247 365 260 q 315 222 331 233 q 261 183 289 203 q 207 140 233 163 q 193 128 199 135 q 181 114 188 121 q 177 110 179 113 q 174 106 175 108 q 173 96 172 101 q 174 86 174 90 q 173 81 174 85 q 174 75 172 78 q 181 67 174 71 q 192 51 185 58 q 200 47 196 49 q 208 42 204 44 q 273 14 238 24 q 339 -3 308 4 q 381 -9 360 -7 q 425 -14 403 -11 q 479 -8 438 -17 q 576 15 521 0 q 685 49 631 31 q 782 86 740 68 q 836 117 824 104 q 863 150 851 132 q 885 186 875 168 q 914 269 906 222 q 915 379 924 322 q 882 420 908 392 q 819 483 856 449 q 747 552 783 518 q 680 610 710 586 q 638 642 650 635 q 511 643 576 651 l 469 635 q 460 633 465 635 q 450 632 456 632 l 432 638 q 428 639 431 639 q 425 640 426 639 q 424 644 424 642 q 422 647 424 646 q 420 656 422 650 q 418 665 418 663 q 422 671 419 668 q 426 675 425 674 q 431 682 429 678 q 436 688 433 686 q 444 691 439 690 q 451 693 449 692 q 507 702 478 703 q 563 701 536 701 q 620 701 583 701 q 694 701 657 701 q 751 703 731 701 q 799 710 775 703 q 836 739 824 718 q 842 754 839 743 q 851 797 850 775 q 851 842 851 819 q 851 879 851 860 q 846 915 851 899 q 840 928 844 921 q 833 940 836 936 q 829 945 832 943 q 824 949 826 947 q 817 955 821 951 q 811 960 814 958 l 797 964 q 768 969 783 968 q 738 972 753 971 q 680 972 722 972 q 588 972 638 972 q 497 972 539 972 q 439 972 454 972 l 335 972 q 322 972 329 972 q 310 972 315 971 q 303 975 301 972 q 310 976 303 976 q 324 978 317 978 q 336 979 331 979 l 783 979 q 832 979 807 979 q 879 975 857 979 q 921 960 904 972 q 941 933 935 950 q 949 899 947 915 q 951 855 951 876 q 950 810 951 833 q 946 771 949 790 q 932 733 943 751 q 909 704 922 718 q 885 675 896 690 q 881 669 883 674 q 878 663 879 665 q 875 647 875 654 q 872 635 872 639 q 874 628 872 632 q 876 621 875 624 q 892 592 882 604 q 913 568 901 579 q 947 531 931 550 q 976 489 964 511 z "},"6":{"ha":961,"x_min":-6,"x_max":1025,"o":"m 969 154 q 943 120 957 136 q 913 89 929 104 q 866 61 900 76 q 788 31 832 46 q 698 2 743 15 q 619 -19 653 -11 q 572 -26 585 -26 q 523 -24 547 -26 q 474 -21 499 -22 l 446 -17 q 438 -15 440 -17 q 443 -12 436 -11 q 451 -12 450 -12 l 494 -12 q 606 0 551 -12 q 660 32 621 8 q 744 85 699 56 q 828 141 789 114 q 882 183 867 168 q 908 237 897 210 q 924 293 918 264 q 928 356 931 314 q 917 441 926 399 q 888 504 907 483 q 839 565 868 536 q 778 617 810 594 q 727 647 754 633 q 672 669 700 660 q 653 676 664 674 q 636 685 643 679 q 625 697 631 688 q 615 706 618 701 q 615 712 614 708 q 615 718 615 715 q 613 733 613 726 q 615 740 614 736 q 618 744 617 743 q 623 755 621 750 q 628 764 625 760 q 669 821 647 793 q 711 876 692 849 q 721 892 715 883 q 728 910 726 901 l 728 925 q 728 932 728 928 q 728 938 729 936 q 723 944 726 940 q 717 950 719 949 q 714 956 715 953 q 710 960 713 958 q 705 963 708 963 q 699 964 701 963 q 681 968 689 967 q 663 971 672 969 q 610 973 636 974 q 560 972 585 972 q 488 972 529 972 q 415 957 447 972 q 385 934 399 947 q 361 906 372 921 q 329 866 344 886 q 299 825 314 846 q 245 756 272 794 q 190 686 218 718 q 147 628 169 665 q 105 554 125 592 q 68 496 85 517 q 41 419 51 465 q 31 342 31 374 q 31 319 31 331 q 33 294 32 307 l 33 283 q 33 279 33 279 l 22 283 q 18 294 18 288 q 13 308 15 301 q 8 319 11 314 q -3 393 -1 351 q 1 465 -6 435 q 24 518 8 481 q 61 599 40 556 q 103 679 82 642 q 139 732 124 717 q 192 802 165 764 q 244 871 218 840 q 280 918 263 894 q 315 964 297 942 q 343 995 329 979 q 375 1021 357 1011 q 408 1038 390 1032 q 444 1046 426 1043 q 510 1055 476 1053 q 574 1057 543 1057 l 692 1057 q 743 1049 718 1057 q 750 1047 746 1047 q 757 1043 754 1046 q 764 1035 761 1042 q 771 1028 767 1032 q 776 1021 775 1024 q 783 1006 781 1014 q 789 992 785 999 q 799 974 793 982 q 811 957 806 965 q 817 949 814 953 q 822 940 821 944 q 818 882 832 913 q 791 842 808 860 q 764 801 774 824 q 760 791 763 796 q 757 781 757 786 q 758 774 756 779 q 760 762 760 768 q 763 751 761 756 q 767 746 764 749 q 772 740 771 743 q 789 727 781 733 q 806 714 797 721 q 848 684 826 700 q 886 649 869 668 q 928 594 910 622 q 963 533 946 565 q 994 471 979 503 q 1018 407 1010 439 q 1025 357 1025 392 q 1018 282 1025 322 q 999 206 1011 242 q 969 154 986 171 m 543 378 q 553 371 547 375 q 563 364 560 367 q 565 349 565 356 q 568 333 568 340 q 567 326 568 331 q 564 319 565 322 q 553 299 560 310 q 538 282 547 289 q 496 265 521 268 q 450 268 471 263 q 415 293 431 275 q 396 333 399 311 q 407 391 390 363 q 454 428 424 419 q 465 428 460 429 q 476 428 471 428 q 481 428 479 428 q 483 429 482 429 q 492 424 488 428 q 500 418 497 421 q 510 411 504 414 q 514 401 513 407 q 517 392 515 396 q 519 383 517 385 q 526 382 521 382 q 543 378 533 382 z "},"7":{"ha":868,"x_min":3,"x_max":874,"o":"m 874 804 q 870 760 872 782 q 861 717 868 738 q 843 666 854 690 q 821 618 832 642 q 789 549 806 588 q 757 479 772 511 q 728 432 744 467 q 694 352 713 397 q 658 261 676 307 q 623 181 639 215 q 594 133 607 146 q 565 73 581 103 q 532 11 549 43 q 513 -27 522 -7 q 490 -64 504 -47 q 469 -85 481 -75 q 443 -99 457 -94 q 403 -106 425 -106 q 363 -107 382 -107 l 244 -107 q 193 -103 218 -107 q 178 -100 182 -103 q 172 -96 175 -99 q 165 -92 168 -93 q 158 -87 163 -89 q 151 -83 154 -86 q 147 -76 149 -81 q 143 -69 146 -72 q 133 -5 125 -39 q 146 60 142 29 q 150 106 149 83 q 157 151 151 129 q 176 205 164 179 q 201 256 189 231 q 235 331 218 288 q 271 406 253 375 q 294 456 282 431 q 315 507 307 481 q 319 524 318 517 q 319 540 319 531 q 320 547 319 543 q 319 551 321 550 q 315 556 318 554 q 311 560 313 558 q 306 567 308 563 q 300 572 303 571 q 285 575 292 575 q 267 578 276 578 q 249 581 258 579 q 192 581 221 582 q 135 581 163 581 q 99 583 118 582 q 65 590 81 585 q 31 637 44 604 q 10 704 17 669 q 3 760 3 739 l 3 804 q 11 878 4 836 q 24 951 18 921 q 29 988 26 971 q 42 1024 32 1006 q 49 1036 44 1032 q 55 1042 51 1039 q 61 1046 58 1044 q 67 1051 64 1049 q 72 1054 69 1053 q 106 1064 88 1063 q 142 1065 125 1065 l 638 1065 q 685 1066 661 1065 q 733 1064 710 1067 q 758 1060 744 1063 q 781 1053 771 1058 q 801 1038 792 1047 q 821 1017 811 1028 q 849 978 836 999 q 868 933 863 957 q 872 910 871 922 q 874 886 872 897 l 874 804 m 726 972 q 674 972 714 972 q 579 972 633 972 q 471 972 525 972 q 376 972 417 972 q 324 972 336 972 l 192 972 q 150 972 171 972 q 110 969 129 972 q 96 966 104 968 q 82 961 88 964 q 45 908 51 943 q 39 840 39 872 l 39 807 q 41 766 39 786 q 53 728 43 746 q 60 715 56 719 q 97 694 75 699 q 138 689 118 690 q 173 688 156 688 q 208 688 190 688 l 326 688 q 358 688 342 688 q 389 685 375 688 l 407 681 q 412 676 410 679 q 415 671 414 674 q 428 660 425 665 l 428 649 q 427 633 428 640 q 424 619 426 626 q 406 574 415 596 q 385 529 396 551 q 356 481 372 517 q 321 398 339 444 q 284 305 303 351 q 249 222 265 258 q 219 174 232 186 l 190 110 q 182 90 186 100 q 175 69 178 81 q 174 55 174 64 q 175 40 174 46 q 180 32 176 36 q 185 25 183 28 q 188 20 186 24 q 190 15 189 17 l 201 11 q 210 8 206 10 q 219 4 214 6 q 258 -1 238 -1 q 297 0 279 0 q 353 0 325 0 q 407 1 381 0 q 447 5 426 1 q 483 18 467 8 q 513 47 501 29 q 533 82 524 64 q 565 145 550 114 q 593 207 579 176 q 620 251 606 219 q 651 325 635 283 q 684 408 668 367 q 715 482 700 450 q 742 526 729 514 l 788 625 q 804 661 796 643 q 818 699 813 679 q 830 754 828 726 q 832 810 832 782 q 833 847 832 829 q 831 883 833 865 q 830 910 831 896 q 822 935 829 925 q 817 942 821 939 q 810 949 813 946 q 803 957 807 956 q 796 960 800 960 q 789 963 792 961 q 760 969 775 968 q 726 972 746 971 z "},"8":{"ha":989,"x_min":-10,"x_max":1007,"o":"m 978 358 q 1001 294 994 338 q 1004 208 1007 251 q 988 140 1001 164 q 969 100 979 119 q 943 64 958 81 q 892 29 928 49 q 813 -10 856 10 q 735 -44 771 -29 q 683 -65 699 -58 q 639 -74 671 -71 q 567 -80 607 -78 q 485 -81 526 -82 q 413 -78 444 -81 q 368 -69 381 -75 q 312 -54 347 -64 q 240 -30 276 -44 q 183 6 204 -15 q 131 56 154 28 q 86 114 108 85 q 54 156 71 135 q 25 199 38 176 q 2 255 11 219 q -8 325 -7 290 q -4 381 -10 360 q 32 468 7 428 q 56 499 43 485 q 74 532 68 514 q 76 540 75 536 q 78 547 78 543 q 76 571 81 558 q 65 593 71 583 q 49 626 57 610 q 35 661 40 643 q 26 724 25 682 q 38 808 28 767 q 68 871 49 850 q 116 901 81 883 q 198 940 151 919 q 290 977 244 960 q 372 1006 336 994 q 419 1017 407 1017 q 462 1017 440 1018 q 504 1014 483 1017 q 569 1006 536 1011 q 633 989 603 1000 q 648 984 640 988 q 663 978 656 981 q 667 975 663 976 q 672 972 672 974 l 661 971 q 647 970 654 969 q 632 972 640 971 q 563 982 601 979 q 492 985 524 985 q 445 977 479 985 q 367 956 411 969 q 278 928 322 943 q 199 897 233 913 q 153 869 165 882 q 123 819 138 854 q 100 741 108 783 q 91 663 92 699 q 103 613 90 628 q 140 545 117 582 q 172 476 163 508 q 180 434 178 456 q 185 392 182 413 l 199 256 q 205 200 201 228 q 211 144 208 172 q 216 105 214 126 q 228 65 218 83 q 271 24 243 40 q 306 10 286 15 q 343 1 325 4 q 424 -10 375 -7 q 504 -12 474 -12 q 537 -12 521 -12 q 568 -10 553 -11 q 615 8 581 -7 q 692 46 649 24 q 779 92 736 68 q 856 136 822 115 q 903 169 890 157 q 915 197 910 182 q 925 225 921 211 q 936 303 936 265 q 906 419 933 367 q 872 470 892 444 q 851 526 851 496 q 853 533 851 529 q 854 542 854 538 q 867 578 858 561 q 881 613 875 594 q 893 692 893 650 q 872 804 896 751 q 864 822 868 814 q 857 840 860 831 q 855 846 857 842 q 853 850 853 850 q 856 851 854 853 q 860 850 858 850 q 871 844 865 850 q 893 823 882 835 q 913 799 904 811 q 941 749 929 775 q 958 693 953 722 q 963 651 963 672 q 963 610 964 631 q 935 522 958 564 q 925 506 931 514 q 917 489 919 497 q 915 480 915 485 q 914 471 914 475 q 911 460 911 463 q 914 454 913 457 q 917 449 915 451 q 939 415 924 432 q 978 358 964 388 m 750 935 q 748 935 750 935 q 747 936 746 936 q 757 932 749 936 q 750 935 756 932 m 424 638 q 419 644 422 640 q 415 650 417 647 q 413 658 414 653 q 413 665 413 663 q 410 681 410 674 q 411 688 410 683 q 414 694 413 692 q 419 710 417 706 q 431 722 422 714 q 436 728 433 725 q 442 733 439 732 q 449 737 444 736 q 456 739 453 738 q 529 742 492 754 q 556 726 546 736 q 562 720 558 725 q 567 713 565 715 q 570 708 568 711 q 574 703 572 706 q 575 688 575 699 q 577 678 576 683 q 576 665 578 672 q 572 653 575 660 q 567 640 569 646 q 563 637 565 639 q 558 632 561 635 q 552 625 556 629 q 544 618 549 621 q 515 607 531 610 q 444 618 478 599 q 438 622 442 621 q 432 625 435 624 q 428 632 431 628 q 424 638 426 636 m 157 307 q 158 355 157 331 q 157 403 158 379 q 158 418 157 410 q 156 433 158 426 q 149 446 154 438 q 146 453 147 449 q 143 460 144 458 q 135 460 142 461 q 126 458 129 458 q 122 458 125 458 q 115 457 118 458 q 109 451 113 456 q 103 443 106 446 q 85 419 92 433 q 71 392 78 406 q 55 331 58 371 q 57 251 51 292 q 76 190 63 211 q 85 173 81 182 q 94 156 89 164 q 99 150 97 154 q 103 143 101 146 q 113 136 107 139 q 124 131 118 133 q 131 126 128 126 q 135 129 132 126 q 139 133 138 132 q 146 139 142 136 q 151 144 150 142 q 154 156 154 147 q 154 171 154 164 q 156 240 156 203 q 157 307 156 276 m 449 239 q 426 258 438 246 q 413 283 415 269 q 417 328 407 306 q 444 363 426 350 q 504 374 469 379 q 534 366 518 372 q 560 349 550 360 q 568 337 563 344 q 575 324 574 329 q 576 315 576 319 q 576 306 576 310 q 578 294 579 297 q 576 285 578 290 q 572 276 574 281 l 568 265 q 563 260 567 263 q 557 254 560 257 l 547 243 q 512 231 532 233 q 472 231 492 228 q 460 235 467 233 q 449 239 454 236 z "},"9":{"ha":949,"x_min":-71,"x_max":981,"o":"m 964 697 q 977 633 974 676 q 976 547 981 590 q 958 481 972 503 q 922 419 943 460 q 878 337 901 378 q 835 275 856 296 q 794 224 815 254 q 753 163 774 193 q 713 111 733 132 q 644 22 678 64 q 618 -6 632 8 q 586 -31 604 -21 q 547 -43 568 -40 q 506 -49 525 -46 q 436 -53 475 -51 q 365 -56 397 -56 l 300 -56 q 249 -54 279 -56 q 189 -45 219 -53 q 138 -17 158 -37 q 130 -10 133 -14 q 124 -4 126 -7 q 119 4 121 0 q 115 13 118 8 q 110 24 110 18 q 111 35 108 28 q 111 45 111 40 q 113 56 111 50 q 124 78 115 67 q 138 99 132 89 q 166 138 151 118 q 194 175 181 157 q 217 219 211 199 q 218 226 217 222 q 219 232 219 231 q 217 241 219 236 q 213 250 214 246 q 211 256 211 253 q 208 260 211 258 q 203 265 207 263 q 196 269 199 268 q 175 285 186 278 q 153 299 164 292 q 101 333 126 315 q 51 369 75 350 q 6 414 28 390 q -32 464 -17 438 q -56 518 -47 479 q -68 603 -65 557 q -65 688 -71 649 q -46 742 -60 726 q 1 797 -31 763 q 65 865 32 831 q 118 918 97 899 q 191 948 150 936 q 263 972 232 960 q 321 992 292 982 q 381 1007 350 1001 q 436 1016 408 1014 q 492 1019 464 1018 q 543 1010 504 1021 q 634 983 582 1000 q 738 948 686 967 q 828 911 789 929 q 879 881 867 893 q 916 824 900 860 q 944 753 932 789 q 964 697 956 718 m 917 626 q 915 676 918 650 q 906 725 913 701 q 892 766 900 746 q 874 804 885 786 q 818 839 861 817 q 718 887 775 861 q 603 935 661 913 q 503 972 546 958 q 447 985 460 986 q 376 978 417 983 q 300 963 335 974 q 240 926 279 950 q 160 875 200 901 q 100 828 121 849 q 81 775 88 815 q 72 681 74 735 q 73 573 69 626 q 84 479 76 519 q 104 426 92 439 q 181 369 136 396 q 256 322 225 342 q 290 312 272 317 q 324 299 308 307 q 334 294 326 297 q 343 288 342 290 q 344 281 344 286 q 344 272 343 275 l 346 257 q 338 244 344 251 q 329 231 333 238 q 319 217 325 224 q 283 167 301 192 q 246 117 265 142 q 231 96 238 107 q 218 74 224 85 q 211 60 214 67 q 210 50 210 56 q 211 39 211 44 q 210 35 211 38 q 211 31 210 33 q 214 27 211 29 q 218 24 217 25 q 224 17 221 21 q 231 10 228 13 q 247 5 238 7 q 261 1 256 3 q 281 0 271 0 q 301 0 292 0 l 371 0 q 435 -1 403 0 q 499 6 468 -1 q 555 38 531 14 q 599 89 579 63 q 658 168 629 121 q 717 246 688 215 l 800 361 q 835 413 815 376 q 872 494 854 450 q 903 574 890 538 q 917 626 915 611 m 526 689 q 550 651 543 675 q 554 607 557 628 q 550 598 553 603 q 544 586 547 593 q 538 574 542 581 q 529 564 533 568 q 475 542 507 542 q 433 552 453 540 q 401 582 413 564 q 391 624 392 600 q 400 667 390 649 q 435 698 413 688 q 483 707 458 708 q 526 689 508 706 z "},"A":{"ha":1049,"x_min":-43,"x_max":1110,"o":"m 988 -58 q 917 -59 957 -58 q 844 -56 876 -60 q 812 -49 828 -53 q 781 -43 796 -46 q 738 -36 760 -40 q 696 -22 715 -32 q 663 8 675 -11 q 632 40 650 26 q 594 61 615 56 q 549 68 572 67 q 504 65 528 68 q 463 49 481 61 q 423 2 436 31 q 382 -43 410 -26 q 332 -57 360 -56 q 279 -58 304 -58 q 214 -59 249 -58 q 147 -57 179 -60 q 106 -51 126 -54 q 65 -42 85 -47 q 38 -37 51 -39 q 13 -32 25 -35 l -3 -28 q -15 -17 -7 -25 q -22 -12 -18 -14 q -28 -7 -25 -10 q -31 1 -29 -4 q -33 8 -32 6 q -40 37 -39 22 q -42 65 -40 51 q -42 106 -43 86 q -37 146 -42 126 q -22 205 -32 176 q -1 261 -11 233 q 26 317 10 272 q 63 428 43 363 q 105 565 83 493 q 147 703 126 638 q 184 814 167 768 q 211 869 201 860 q 231 926 221 897 q 251 982 240 956 q 269 1017 258 1000 q 294 1046 279 1035 q 337 1063 314 1060 q 382 1068 360 1067 q 462 1069 414 1069 q 540 1068 510 1068 q 594 1067 567 1068 q 646 1056 622 1067 q 676 1037 663 1049 q 704 1014 690 1025 q 735 990 719 1003 q 761 961 750 976 q 780 933 772 949 q 794 901 788 917 q 815 856 806 879 q 833 808 824 832 q 861 753 846 796 q 892 651 876 710 q 924 535 908 593 q 956 433 940 476 q 983 378 971 390 q 1009 321 996 363 q 1035 229 1022 279 q 1062 138 1049 179 q 1088 81 1075 96 q 1099 47 1093 64 q 1106 14 1104 31 q 1108 3 1107 8 q 1108 -6 1110 -1 q 1106 -12 1108 -8 q 1103 -21 1104 -17 q 1101 -28 1101 -24 q 1097 -35 1100 -32 q 1092 -38 1096 -36 q 1085 -43 1088 -40 q 1078 -47 1082 -44 q 1072 -51 1075 -50 q 1064 -53 1069 -53 q 1054 -56 1058 -54 q 1024 -58 1040 -57 q 988 -58 1007 -58 m 1015 131 q 989 185 1006 142 q 953 290 972 228 q 914 420 935 351 q 874 551 893 489 q 840 656 856 613 q 813 710 824 700 q 787 787 800 742 q 760 863 774 832 q 743 909 753 885 q 715 949 733 933 q 683 965 701 960 q 646 971 664 969 q 590 973 618 974 q 535 972 563 972 q 476 973 506 972 q 417 972 446 974 q 375 968 396 971 q 338 951 354 965 q 315 922 324 940 q 299 888 306 904 q 278 829 288 858 q 257 771 268 800 q 229 714 244 758 q 197 610 214 669 q 163 490 181 550 q 131 386 146 431 q 103 329 115 342 q 80 269 92 308 q 57 192 68 231 q 33 132 46 153 q 22 97 28 114 q 13 63 15 81 q 11 53 13 58 q 11 43 10 47 q 14 36 11 40 q 18 29 17 32 q 21 24 19 28 q 25 17 22 19 q 33 13 28 14 q 42 8 38 11 q 88 -1 63 -1 q 136 0 114 0 l 247 0 q 283 4 264 1 q 315 17 301 7 q 349 58 339 32 q 378 103 360 85 q 383 108 381 106 q 388 113 386 111 q 394 116 390 115 q 401 118 399 117 q 438 126 419 125 q 475 126 457 126 l 585 126 q 611 126 599 126 q 636 122 624 125 q 644 121 640 121 q 651 118 649 121 q 683 88 674 108 q 706 49 693 67 q 750 10 724 22 q 792 1 769 1 q 835 0 814 0 q 902 0 867 0 q 968 1 938 0 q 986 3 978 1 q 1004 8 994 6 q 1014 11 1008 8 q 1021 18 1018 14 q 1026 25 1024 22 q 1030 30 1028 28 q 1033 33 1032 32 q 1035 42 1036 36 q 1035 51 1035 49 q 1029 90 1036 71 q 1015 131 1022 110 m 468 435 q 467 449 468 442 q 467 463 467 456 q 472 485 468 474 q 479 507 476 497 q 487 534 483 521 q 496 560 490 547 q 501 571 499 564 q 506 581 503 578 q 512 585 508 583 q 518 588 515 586 q 523 590 519 588 q 528 592 526 592 q 531 590 531 592 q 533 586 532 588 q 551 560 546 574 q 563 528 558 544 q 574 493 568 511 q 579 473 576 483 q 582 451 582 463 q 580 440 582 446 q 576 429 578 435 q 575 422 576 424 q 569 417 574 419 q 563 411 565 414 q 559 408 561 410 q 554 404 557 406 q 547 403 551 403 q 539 401 542 403 q 517 400 529 400 q 496 404 506 400 q 483 413 490 407 q 478 417 482 415 q 472 421 475 419 q 468 435 471 422 z "},"Á":{"ha":1049,"x_min":-43,"x_max":1110,"o":"m 988 -58 q 917 -59 957 -58 q 844 -56 876 -60 q 812 -49 828 -53 q 781 -43 796 -46 q 738 -36 760 -40 q 696 -22 715 -32 q 663 8 675 -11 q 632 40 650 26 q 594 61 615 56 q 549 68 572 67 q 504 65 528 68 q 463 49 481 61 q 423 2 436 31 q 382 -43 410 -26 q 332 -57 360 -56 q 279 -58 304 -58 q 214 -59 249 -58 q 147 -57 179 -60 q 106 -51 126 -54 q 65 -42 85 -47 q 38 -37 51 -39 q 13 -32 25 -35 l -3 -28 q -15 -17 -7 -25 q -22 -12 -18 -14 q -28 -7 -25 -10 q -31 1 -29 -4 q -33 8 -32 6 q -40 37 -39 22 q -42 65 -40 51 q -42 106 -43 86 q -37 146 -42 126 q -22 205 -32 176 q -1 261 -11 233 q 26 317 10 272 q 63 428 43 363 q 105 565 83 493 q 147 703 126 638 q 184 814 167 768 q 211 869 201 860 q 231 926 221 897 q 251 982 240 956 q 269 1017 258 1000 q 294 1046 279 1035 q 337 1063 314 1060 q 382 1068 360 1067 q 462 1069 414 1069 q 540 1068 510 1068 q 594 1067 567 1068 q 646 1056 622 1067 q 676 1037 663 1049 q 704 1014 690 1025 q 735 990 719 1003 q 761 961 750 976 q 780 933 772 949 q 794 901 788 917 q 815 856 806 879 q 833 808 824 832 q 861 753 846 796 q 892 651 876 710 q 924 535 908 593 q 956 433 940 476 q 983 378 971 390 q 1009 321 996 363 q 1035 229 1022 279 q 1062 138 1049 179 q 1088 81 1075 96 q 1099 47 1093 64 q 1106 14 1104 31 q 1108 3 1107 8 q 1108 -6 1110 -1 q 1106 -12 1108 -8 q 1103 -21 1104 -17 q 1101 -28 1101 -24 q 1097 -35 1100 -32 q 1092 -38 1096 -36 q 1085 -43 1088 -40 q 1078 -47 1082 -44 q 1072 -51 1075 -50 q 1064 -53 1069 -53 q 1054 -56 1058 -54 q 1024 -58 1040 -57 q 988 -58 1007 -58 m 1015 131 q 989 185 1006 142 q 953 290 972 228 q 914 420 935 351 q 874 551 893 489 q 840 656 856 613 q 813 710 824 700 q 787 787 800 742 q 760 863 774 832 q 743 909 753 885 q 715 949 733 933 q 683 965 701 960 q 646 971 664 969 q 590 973 618 974 q 535 972 563 972 q 476 973 506 972 q 417 972 446 974 q 375 968 396 971 q 338 951 354 965 q 315 922 324 940 q 299 888 306 904 q 278 829 288 858 q 257 771 268 800 q 229 714 244 758 q 197 610 214 669 q 163 490 181 550 q 131 386 146 431 q 103 329 115 342 q 80 269 92 308 q 57 192 68 231 q 33 132 46 153 q 22 97 28 114 q 13 63 15 81 q 11 53 13 58 q 11 43 10 47 q 14 36 11 40 q 18 29 17 32 q 21 24 19 28 q 25 17 22 19 q 33 13 28 14 q 42 8 38 11 q 88 -1 63 -1 q 136 0 114 0 l 247 0 q 283 4 264 1 q 315 17 301 7 q 349 58 339 32 q 378 103 360 85 q 383 108 381 106 q 388 113 386 111 q 394 116 390 115 q 401 118 399 117 q 438 126 419 125 q 475 126 457 126 l 585 126 q 611 126 599 126 q 636 122 624 125 q 644 121 640 121 q 651 118 649 121 q 683 88 674 108 q 706 49 693 67 q 750 10 724 22 q 792 1 769 1 q 835 0 814 0 q 902 0 867 0 q 968 1 938 0 q 986 3 978 1 q 1004 8 994 6 q 1014 11 1008 8 q 1021 18 1018 14 q 1026 25 1024 22 q 1030 30 1028 28 q 1033 33 1032 32 q 1035 42 1036 36 q 1035 51 1035 49 q 1029 90 1036 71 q 1015 131 1022 110 m 468 435 q 467 449 468 442 q 467 463 467 456 q 472 485 468 474 q 479 507 476 497 q 487 534 483 521 q 496 560 490 547 q 501 571 499 564 q 506 581 503 578 q 512 585 508 583 q 518 588 515 586 q 523 590 519 588 q 528 592 526 592 q 531 590 531 592 q 533 586 532 588 q 551 560 546 574 q 563 528 558 544 q 574 493 568 511 q 579 473 576 483 q 582 451 582 463 q 580 440 582 446 q 576 429 578 435 q 575 422 576 424 q 569 417 574 419 q 563 411 565 414 q 559 408 561 410 q 554 404 557 406 q 547 403 551 403 q 539 401 542 403 q 517 400 529 400 q 496 404 506 400 q 483 413 490 407 q 478 417 482 415 q 472 421 475 419 q 468 435 471 422 m 797 1115 q 761 1084 779 1100 q 724 1053 743 1068 q 691 1026 708 1039 q 654 1004 674 1014 q 626 995 640 999 q 596 989 611 992 q 562 987 579 988 q 526 986 544 986 q 476 987 506 986 q 418 994 447 988 q 368 1021 389 1001 q 354 1039 360 1029 q 344 1058 349 1049 q 339 1132 331 1096 q 349 1155 342 1143 q 363 1176 356 1167 q 388 1210 374 1194 q 415 1243 401 1226 q 438 1273 426 1258 q 464 1299 450 1288 q 525 1327 492 1322 q 589 1333 558 1332 l 689 1333 q 736 1333 713 1333 q 782 1328 760 1333 q 803 1319 793 1325 q 822 1308 813 1314 l 869 1283 q 879 1278 874 1281 q 889 1271 885 1275 l 894 1261 q 900 1254 897 1258 q 903 1247 903 1250 q 903 1242 904 1246 q 901 1236 901 1239 q 901 1228 901 1232 q 899 1219 901 1224 q 894 1211 897 1215 q 889 1204 892 1207 q 848 1157 872 1178 q 797 1115 824 1136 m 463 1182 q 442 1157 453 1169 q 421 1131 432 1144 q 412 1119 417 1125 q 404 1106 407 1113 q 399 1095 403 1101 q 396 1085 396 1089 q 398 1080 396 1083 q 401 1075 400 1076 q 408 1057 404 1063 q 413 1056 411 1056 q 415 1054 414 1056 q 426 1050 421 1053 q 438 1044 432 1047 q 465 1042 450 1042 q 493 1042 479 1042 q 539 1042 515 1042 q 585 1044 563 1042 q 642 1068 606 1049 q 714 1113 678 1088 q 771 1158 750 1138 q 797 1180 783 1169 q 821 1203 810 1190 q 828 1210 824 1206 q 833 1217 832 1214 q 838 1228 836 1222 q 840 1240 839 1235 q 842 1245 840 1243 q 842 1249 843 1247 q 840 1252 842 1251 q 836 1254 838 1253 q 829 1263 833 1257 q 821 1271 825 1268 q 811 1274 817 1274 q 801 1274 806 1274 q 763 1278 783 1278 q 724 1278 743 1278 l 628 1278 q 590 1276 610 1278 q 553 1267 571 1274 q 504 1231 525 1256 q 463 1182 483 1207 z "},"Ă":{"ha":1049,"x_min":-43,"x_max":1110,"o":"m 988 -58 q 917 -59 957 -58 q 844 -56 876 -60 q 812 -49 828 -53 q 781 -43 796 -46 q 738 -36 760 -40 q 696 -22 715 -32 q 663 8 675 -11 q 632 40 650 26 q 594 61 615 56 q 549 68 572 67 q 504 65 528 68 q 463 49 481 61 q 423 2 436 31 q 382 -43 410 -26 q 332 -57 360 -56 q 279 -58 304 -58 q 214 -59 249 -58 q 147 -57 179 -60 q 106 -51 126 -54 q 65 -42 85 -47 q 38 -37 51 -39 q 13 -32 25 -35 l -3 -28 q -15 -17 -7 -25 q -22 -12 -18 -14 q -28 -7 -25 -10 q -31 1 -29 -4 q -33 8 -32 6 q -40 37 -39 22 q -42 65 -40 51 q -42 106 -43 86 q -37 146 -42 126 q -22 205 -32 176 q -1 261 -11 233 q 26 317 10 272 q 63 428 43 363 q 105 565 83 493 q 147 703 126 638 q 184 814 167 768 q 211 869 201 860 q 231 926 221 897 q 251 982 240 956 q 269 1017 258 1000 q 294 1046 279 1035 q 337 1063 314 1060 q 382 1068 360 1067 q 462 1069 414 1069 q 540 1068 510 1068 q 594 1067 567 1068 q 646 1056 622 1067 q 676 1037 663 1049 q 704 1014 690 1025 q 735 990 719 1003 q 761 961 750 976 q 780 933 772 949 q 794 901 788 917 q 815 856 806 879 q 833 808 824 832 q 861 753 846 796 q 892 651 876 710 q 924 535 908 593 q 956 433 940 476 q 983 378 971 390 q 1009 321 996 363 q 1035 229 1022 279 q 1062 138 1049 179 q 1088 81 1075 96 q 1099 47 1093 64 q 1106 14 1104 31 q 1108 3 1107 8 q 1108 -6 1110 -1 q 1106 -12 1108 -8 q 1103 -21 1104 -17 q 1101 -28 1101 -24 q 1097 -35 1100 -32 q 1092 -38 1096 -36 q 1085 -43 1088 -40 q 1078 -47 1082 -44 q 1072 -51 1075 -50 q 1064 -53 1069 -53 q 1054 -56 1058 -54 q 1024 -58 1040 -57 q 988 -58 1007 -58 m 1015 131 q 989 185 1006 142 q 953 290 972 228 q 914 420 935 351 q 874 551 893 489 q 840 656 856 613 q 813 710 824 700 q 787 787 800 742 q 760 863 774 832 q 743 909 753 885 q 715 949 733 933 q 683 965 701 960 q 646 971 664 969 q 590 973 618 974 q 535 972 563 972 q 476 973 506 972 q 417 972 446 974 q 375 968 396 971 q 338 951 354 965 q 315 922 324 940 q 299 888 306 904 q 278 829 288 858 q 257 771 268 800 q 229 714 244 758 q 197 610 214 669 q 163 490 181 550 q 131 386 146 431 q 103 329 115 342 q 80 269 92 308 q 57 192 68 231 q 33 132 46 153 q 22 97 28 114 q 13 63 15 81 q 11 53 13 58 q 11 43 10 47 q 14 36 11 40 q 18 29 17 32 q 21 24 19 28 q 25 17 22 19 q 33 13 28 14 q 42 8 38 11 q 88 -1 63 -1 q 136 0 114 0 l 247 0 q 283 4 264 1 q 315 17 301 7 q 349 58 339 32 q 378 103 360 85 q 383 108 381 106 q 388 113 386 111 q 394 116 390 115 q 401 118 399 117 q 438 126 419 125 q 475 126 457 126 l 585 126 q 611 126 599 126 q 636 122 624 125 q 644 121 640 121 q 651 118 649 121 q 683 88 674 108 q 706 49 693 67 q 750 10 724 22 q 792 1 769 1 q 835 0 814 0 q 902 0 867 0 q 968 1 938 0 q 986 3 978 1 q 1004 8 994 6 q 1014 11 1008 8 q 1021 18 1018 14 q 1026 25 1024 22 q 1030 30 1028 28 q 1033 33 1032 32 q 1035 42 1036 36 q 1035 51 1035 49 q 1029 90 1036 71 q 1015 131 1022 110 m 468 435 q 467 449 468 442 q 467 463 467 456 q 472 485 468 474 q 479 507 476 497 q 487 534 483 521 q 496 560 490 547 q 501 571 499 564 q 506 581 503 578 q 512 585 508 583 q 518 588 515 586 q 523 590 519 588 q 528 592 526 592 q 531 590 531 592 q 533 586 532 588 q 551 560 546 574 q 563 528 558 544 q 574 493 568 511 q 579 473 576 483 q 582 451 582 463 q 580 440 582 446 q 576 429 578 435 q 575 422 576 424 q 569 417 574 419 q 563 411 565 414 q 559 408 561 410 q 554 404 557 406 q 547 403 551 403 q 539 401 542 403 q 517 400 529 400 q 496 404 506 400 q 483 413 490 407 q 478 417 482 415 q 472 421 475 419 q 468 435 471 422 m 801 1181 q 768 1135 788 1156 q 747 1115 758 1125 q 724 1094 735 1106 q 691 1061 707 1078 q 656 1031 675 1044 q 592 999 635 1010 q 508 987 550 989 q 444 989 465 985 q 393 1006 424 993 q 333 1038 363 1019 q 286 1078 304 1057 q 267 1114 275 1094 q 254 1153 260 1133 q 246 1196 249 1174 q 249 1240 243 1218 q 251 1247 250 1243 q 253 1254 251 1251 q 277 1284 261 1272 q 311 1303 293 1296 q 426 1322 367 1325 q 451 1322 438 1322 q 474 1318 464 1321 q 488 1313 481 1317 q 501 1306 496 1308 q 517 1292 510 1300 q 535 1281 525 1285 q 543 1276 538 1279 q 551 1274 549 1274 q 562 1277 556 1274 q 572 1282 568 1281 q 602 1297 588 1289 q 633 1310 617 1304 q 699 1324 664 1321 q 764 1319 733 1326 q 773 1318 768 1318 q 782 1315 778 1318 q 789 1311 785 1314 q 797 1306 793 1308 q 802 1303 800 1304 q 806 1300 804 1303 q 811 1292 808 1297 q 815 1283 814 1288 q 818 1279 817 1282 q 821 1274 819 1276 q 822 1249 824 1263 q 818 1225 821 1236 q 801 1181 814 1203 m 757 1231 q 753 1242 756 1236 q 746 1254 750 1249 l 738 1260 q 723 1269 729 1265 q 707 1274 717 1272 q 656 1276 685 1278 q 607 1260 628 1275 q 582 1234 593 1250 q 557 1206 571 1218 q 551 1201 554 1204 q 544 1196 547 1197 q 537 1194 542 1194 q 529 1194 532 1194 q 521 1193 526 1194 q 513 1193 515 1192 q 506 1197 510 1194 q 500 1201 503 1200 q 493 1207 497 1204 q 486 1211 489 1210 q 468 1235 476 1222 q 447 1257 460 1247 q 400 1276 428 1274 q 347 1274 372 1278 q 331 1269 338 1272 q 317 1263 325 1267 q 313 1260 315 1261 q 307 1257 310 1260 q 304 1253 306 1256 q 301 1247 303 1250 q 297 1238 300 1243 q 292 1229 293 1233 q 290 1215 290 1224 q 290 1199 290 1206 q 296 1176 292 1188 q 304 1156 300 1165 q 393 1067 332 1097 q 449 1046 414 1053 q 519 1038 485 1039 q 575 1042 554 1038 q 650 1063 615 1046 q 708 1102 682 1078 q 747 1157 733 1126 q 755 1179 751 1168 q 760 1200 758 1190 q 757 1231 761 1210 z "},"Â":{"ha":1049,"x_min":-43,"x_max":1110,"o":"m 988 -58 q 917 -59 957 -58 q 844 -56 876 -60 q 812 -49 828 -53 q 781 -43 796 -46 q 738 -36 760 -40 q 696 -22 715 -32 q 663 8 675 -11 q 632 40 650 26 q 594 61 615 56 q 549 68 572 67 q 504 65 528 68 q 463 49 481 61 q 423 2 436 31 q 382 -43 410 -26 q 332 -57 360 -56 q 279 -58 304 -58 q 214 -59 249 -58 q 147 -57 179 -60 q 106 -51 126 -54 q 65 -42 85 -47 q 38 -37 51 -39 q 13 -32 25 -35 l -3 -28 q -15 -17 -7 -25 q -22 -12 -18 -14 q -28 -7 -25 -10 q -31 1 -29 -4 q -33 8 -32 6 q -40 37 -39 22 q -42 65 -40 51 q -42 106 -43 86 q -37 146 -42 126 q -22 205 -32 176 q -1 261 -11 233 q 26 317 10 272 q 63 428 43 363 q 105 565 83 493 q 147 703 126 638 q 184 814 167 768 q 211 869 201 860 q 231 926 221 897 q 251 982 240 956 q 269 1017 258 1000 q 294 1046 279 1035 q 337 1063 314 1060 q 382 1068 360 1067 q 462 1069 414 1069 q 540 1068 510 1068 q 594 1067 567 1068 q 646 1056 622 1067 q 676 1037 663 1049 q 704 1014 690 1025 q 735 990 719 1003 q 761 961 750 976 q 780 933 772 949 q 794 901 788 917 q 815 856 806 879 q 833 808 824 832 q 861 753 846 796 q 892 651 876 710 q 924 535 908 593 q 956 433 940 476 q 983 378 971 390 q 1009 321 996 363 q 1035 229 1022 279 q 1062 138 1049 179 q 1088 81 1075 96 q 1099 47 1093 64 q 1106 14 1104 31 q 1108 3 1107 8 q 1108 -6 1110 -1 q 1106 -12 1108 -8 q 1103 -21 1104 -17 q 1101 -28 1101 -24 q 1097 -35 1100 -32 q 1092 -38 1096 -36 q 1085 -43 1088 -40 q 1078 -47 1082 -44 q 1072 -51 1075 -50 q 1064 -53 1069 -53 q 1054 -56 1058 -54 q 1024 -58 1040 -57 q 988 -58 1007 -58 m 1015 131 q 989 185 1006 142 q 953 290 972 228 q 914 420 935 351 q 874 551 893 489 q 840 656 856 613 q 813 710 824 700 q 787 787 800 742 q 760 863 774 832 q 743 909 753 885 q 715 949 733 933 q 683 965 701 960 q 646 971 664 969 q 590 973 618 974 q 535 972 563 972 q 476 973 506 972 q 417 972 446 974 q 375 968 396 971 q 338 951 354 965 q 315 922 324 940 q 299 888 306 904 q 278 829 288 858 q 257 771 268 800 q 229 714 244 758 q 197 610 214 669 q 163 490 181 550 q 131 386 146 431 q 103 329 115 342 q 80 269 92 308 q 57 192 68 231 q 33 132 46 153 q 22 97 28 114 q 13 63 15 81 q 11 53 13 58 q 11 43 10 47 q 14 36 11 40 q 18 29 17 32 q 21 24 19 28 q 25 17 22 19 q 33 13 28 14 q 42 8 38 11 q 88 -1 63 -1 q 136 0 114 0 l 247 0 q 283 4 264 1 q 315 17 301 7 q 349 58 339 32 q 378 103 360 85 q 383 108 381 106 q 388 113 386 111 q 394 116 390 115 q 401 118 399 117 q 438 126 419 125 q 475 126 457 126 l 585 126 q 611 126 599 126 q 636 122 624 125 q 644 121 640 121 q 651 118 649 121 q 683 88 674 108 q 706 49 693 67 q 750 10 724 22 q 792 1 769 1 q 835 0 814 0 q 902 0 867 0 q 968 1 938 0 q 986 3 978 1 q 1004 8 994 6 q 1014 11 1008 8 q 1021 18 1018 14 q 1026 25 1024 22 q 1030 30 1028 28 q 1033 33 1032 32 q 1035 42 1036 36 q 1035 51 1035 49 q 1029 90 1036 71 q 1015 131 1022 110 m 468 435 q 467 449 468 442 q 467 463 467 456 q 472 485 468 474 q 479 507 476 497 q 487 534 483 521 q 496 560 490 547 q 501 571 499 564 q 506 581 503 578 q 512 585 508 583 q 518 588 515 586 q 523 590 519 588 q 528 592 526 592 q 531 590 531 592 q 533 586 532 588 q 551 560 546 574 q 563 528 558 544 q 574 493 568 511 q 579 473 576 483 q 582 451 582 463 q 580 440 582 446 q 576 429 578 435 q 575 422 576 424 q 569 417 574 419 q 563 411 565 414 q 559 408 561 410 q 554 404 557 406 q 547 403 551 403 q 539 401 542 403 q 517 400 529 400 q 496 404 506 400 q 483 413 490 407 q 478 417 482 415 q 472 421 475 419 q 468 435 471 422 m 786 969 q 727 973 756 969 q 671 986 699 976 q 636 1001 653 993 q 603 1015 619 1008 q 579 1024 592 1019 q 554 1028 567 1028 q 533 1023 544 1026 q 510 1015 521 1019 q 474 999 492 1008 q 439 983 457 990 q 389 972 414 974 q 338 969 364 969 q 314 970 326 969 q 290 975 301 971 q 269 986 279 979 q 249 999 260 993 q 221 1013 235 1004 q 214 1015 218 1014 q 207 1019 210 1017 q 203 1026 206 1022 q 199 1032 201 1029 q 194 1038 197 1035 q 190 1044 192 1042 q 190 1054 189 1049 q 192 1064 192 1060 q 208 1109 194 1088 q 233 1149 221 1131 q 269 1193 249 1172 q 308 1235 289 1214 q 372 1297 336 1267 q 439 1342 408 1328 q 469 1347 454 1346 q 497 1350 483 1349 q 539 1351 518 1351 q 579 1350 560 1350 q 614 1349 596 1350 q 647 1344 632 1349 q 709 1303 679 1335 q 764 1244 739 1272 q 796 1211 779 1228 q 826 1175 813 1194 q 834 1162 829 1169 q 840 1147 839 1154 q 842 1140 842 1144 q 842 1132 842 1135 q 841 1093 843 1113 q 840 1054 839 1074 q 844 1032 842 1043 q 844 1010 846 1021 q 845 1003 844 1007 q 844 996 846 999 q 836 988 842 990 q 824 975 831 981 q 819 974 822 974 q 813 974 815 974 l 786 969 m 775 1132 l 704 1211 q 676 1240 690 1226 q 643 1264 661 1254 q 606 1274 625 1272 q 567 1278 586 1276 l 481 1278 q 443 1274 463 1276 q 407 1264 424 1272 q 374 1241 389 1256 q 346 1211 360 1226 q 305 1167 325 1189 q 265 1121 285 1144 q 259 1114 263 1118 q 253 1106 256 1110 q 249 1098 250 1103 q 246 1089 247 1093 q 243 1084 244 1088 q 242 1078 242 1081 q 245 1070 242 1075 q 250 1063 249 1065 q 254 1058 253 1061 q 257 1053 256 1054 q 264 1050 260 1051 q 271 1047 268 1049 q 298 1042 285 1043 q 325 1043 311 1042 q 381 1051 354 1044 q 433 1068 407 1057 q 475 1086 453 1076 q 519 1097 497 1096 q 581 1085 551 1100 q 639 1060 610 1071 q 739 1043 688 1042 q 776 1047 758 1043 q 783 1047 779 1047 q 788 1049 786 1047 q 793 1055 790 1051 q 797 1061 796 1058 q 802 1067 799 1064 q 807 1072 806 1071 q 806 1080 807 1075 q 803 1088 804 1085 q 801 1094 801 1090 q 799 1101 801 1099 q 789 1117 796 1108 q 775 1132 782 1125 z "},"Ä":{"ha":1049,"x_min":-43,"x_max":1110,"o":"m 988 -58 q 917 -59 957 -58 q 844 -56 876 -60 q 812 -49 828 -53 q 781 -43 796 -46 q 738 -36 760 -40 q 696 -22 715 -32 q 663 8 675 -11 q 632 40 650 26 q 594 61 615 56 q 549 68 572 67 q 504 65 528 68 q 463 49 481 61 q 423 2 436 31 q 382 -43 410 -26 q 332 -57 360 -56 q 279 -58 304 -58 q 214 -59 249 -58 q 147 -57 179 -60 q 106 -51 126 -54 q 65 -42 85 -47 q 38 -37 51 -39 q 13 -32 25 -35 l -3 -28 q -15 -17 -7 -25 q -22 -12 -18 -14 q -28 -7 -25 -10 q -31 1 -29 -4 q -33 8 -32 6 q -40 37 -39 22 q -42 65 -40 51 q -42 106 -43 86 q -37 146 -42 126 q -22 205 -32 176 q -1 261 -11 233 q 26 317 10 272 q 63 428 43 363 q 105 565 83 493 q 147 703 126 638 q 184 814 167 768 q 211 869 201 860 q 231 926 221 897 q 251 982 240 956 q 269 1017 258 1000 q 294 1046 279 1035 q 337 1063 314 1060 q 382 1068 360 1067 q 462 1069 414 1069 q 540 1068 510 1068 q 594 1067 567 1068 q 646 1056 622 1067 q 676 1037 663 1049 q 704 1014 690 1025 q 735 990 719 1003 q 761 961 750 976 q 780 933 772 949 q 794 901 788 917 q 815 856 806 879 q 833 808 824 832 q 861 753 846 796 q 892 651 876 710 q 924 535 908 593 q 956 433 940 476 q 983 378 971 390 q 1009 321 996 363 q 1035 229 1022 279 q 1062 138 1049 179 q 1088 81 1075 96 q 1099 47 1093 64 q 1106 14 1104 31 q 1108 3 1107 8 q 1108 -6 1110 -1 q 1106 -12 1108 -8 q 1103 -21 1104 -17 q 1101 -28 1101 -24 q 1097 -35 1100 -32 q 1092 -38 1096 -36 q 1085 -43 1088 -40 q 1078 -47 1082 -44 q 1072 -51 1075 -50 q 1064 -53 1069 -53 q 1054 -56 1058 -54 q 1024 -58 1040 -57 q 988 -58 1007 -58 m 1015 131 q 989 185 1006 142 q 953 290 972 228 q 914 420 935 351 q 874 551 893 489 q 840 656 856 613 q 813 710 824 700 q 787 787 800 742 q 760 863 774 832 q 743 909 753 885 q 715 949 733 933 q 683 965 701 960 q 646 971 664 969 q 590 973 618 974 q 535 972 563 972 q 476 973 506 972 q 417 972 446 974 q 375 968 396 971 q 338 951 354 965 q 315 922 324 940 q 299 888 306 904 q 278 829 288 858 q 257 771 268 800 q 229 714 244 758 q 197 610 214 669 q 163 490 181 550 q 131 386 146 431 q 103 329 115 342 q 80 269 92 308 q 57 192 68 231 q 33 132 46 153 q 22 97 28 114 q 13 63 15 81 q 11 53 13 58 q 11 43 10 47 q 14 36 11 40 q 18 29 17 32 q 21 24 19 28 q 25 17 22 19 q 33 13 28 14 q 42 8 38 11 q 88 -1 63 -1 q 136 0 114 0 l 247 0 q 283 4 264 1 q 315 17 301 7 q 349 58 339 32 q 378 103 360 85 q 383 108 381 106 q 388 113 386 111 q 394 116 390 115 q 401 118 399 117 q 438 126 419 125 q 475 126 457 126 l 585 126 q 611 126 599 126 q 636 122 624 125 q 644 121 640 121 q 651 118 649 121 q 683 88 674 108 q 706 49 693 67 q 750 10 724 22 q 792 1 769 1 q 835 0 814 0 q 902 0 867 0 q 968 1 938 0 q 986 3 978 1 q 1004 8 994 6 q 1014 11 1008 8 q 1021 18 1018 14 q 1026 25 1024 22 q 1030 30 1028 28 q 1033 33 1032 32 q 1035 42 1036 36 q 1035 51 1035 49 q 1029 90 1036 71 q 1015 131 1022 110 m 468 435 q 467 449 468 442 q 467 463 467 456 q 472 485 468 474 q 479 507 476 497 q 487 534 483 521 q 496 560 490 547 q 501 571 499 564 q 506 581 503 578 q 512 585 508 583 q 518 588 515 586 q 523 590 519 588 q 528 592 526 592 q 531 590 531 592 q 533 586 532 588 q 551 560 546 574 q 563 528 558 544 q 574 493 568 511 q 579 473 576 483 q 582 451 582 463 q 580 440 582 446 q 576 429 578 435 q 575 422 576 424 q 569 417 574 419 q 563 411 565 414 q 559 408 561 410 q 554 404 557 406 q 547 403 551 403 q 539 401 542 403 q 517 400 529 400 q 496 404 506 400 q 483 413 490 407 q 478 417 482 415 q 472 421 475 419 q 468 435 471 422 m 878 1124 q 865 1063 875 1093 q 832 1008 856 1033 q 814 992 824 1000 q 793 979 804 983 q 753 972 775 972 q 711 972 731 972 q 660 978 683 972 q 653 979 657 979 q 646 981 649 979 q 612 1010 624 992 q 585 1047 600 1029 q 563 1068 575 1058 q 543 1090 550 1078 q 535 1113 538 1101 q 532 1136 533 1125 q 531 1172 531 1154 q 532 1207 531 1190 q 537 1237 533 1222 q 549 1264 540 1251 q 563 1282 554 1274 q 581 1296 572 1290 q 613 1317 596 1307 q 647 1333 629 1328 q 688 1341 667 1340 q 731 1342 710 1342 q 778 1340 753 1342 q 824 1325 804 1339 q 847 1299 838 1315 q 863 1267 857 1282 q 878 1197 875 1236 q 878 1124 881 1157 m 499 1081 q 474 1028 489 1054 q 433 986 458 1001 q 383 974 411 975 q 332 972 356 972 q 293 976 314 974 q 257 992 272 979 q 238 1014 244 1000 q 221 1039 231 1028 q 205 1055 214 1047 q 186 1071 196 1063 q 181 1076 185 1074 q 175 1081 178 1078 q 172 1088 174 1083 q 169 1094 171 1092 q 158 1138 160 1115 q 157 1183 157 1161 q 158 1206 157 1194 q 160 1228 158 1217 q 164 1242 161 1235 q 168 1256 167 1250 q 193 1285 178 1272 q 224 1307 208 1297 q 256 1326 239 1318 q 292 1338 274 1333 q 330 1341 311 1340 q 367 1342 349 1342 q 418 1338 392 1342 q 463 1315 444 1335 q 477 1295 471 1307 q 488 1272 483 1283 q 503 1215 500 1251 q 506 1141 507 1178 q 499 1081 504 1104 m 317 1232 l 321 1249 q 322 1253 321 1251 q 322 1257 324 1256 q 315 1261 321 1258 q 308 1268 313 1264 q 300 1274 303 1272 q 294 1274 299 1275 q 288 1272 290 1272 q 278 1271 283 1271 q 268 1269 272 1271 q 226 1226 239 1258 q 222 1182 219 1206 q 222 1174 222 1179 q 222 1167 221 1169 q 226 1163 224 1165 q 231 1158 229 1160 q 235 1152 232 1157 q 240 1146 239 1147 q 245 1147 243 1146 q 249 1150 247 1149 q 255 1155 251 1153 q 263 1158 258 1157 q 272 1167 268 1161 q 279 1178 275 1172 q 298 1203 289 1190 q 317 1232 307 1217 m 690 1232 l 694 1249 q 696 1253 694 1251 q 696 1257 697 1256 q 689 1261 694 1258 q 681 1268 686 1264 q 674 1274 676 1272 q 668 1274 672 1275 q 661 1272 664 1272 q 651 1271 657 1271 q 642 1269 646 1271 q 600 1226 613 1258 q 596 1182 593 1206 q 595 1174 596 1179 q 596 1167 594 1169 q 600 1163 597 1165 q 604 1158 603 1160 q 609 1152 606 1157 q 614 1146 613 1147 q 619 1147 617 1146 q 622 1150 621 1149 q 628 1155 625 1153 q 636 1158 632 1157 q 645 1167 642 1161 q 653 1178 649 1172 q 672 1203 663 1190 q 690 1232 681 1217 m 331 1151 q 311 1124 321 1138 q 294 1094 301 1110 q 291 1087 293 1092 q 289 1079 289 1082 q 291 1074 289 1076 q 294 1068 293 1071 q 299 1060 297 1065 q 301 1053 300 1056 q 313 1050 307 1050 q 338 1043 326 1043 q 371 1043 354 1042 q 404 1050 388 1044 l 418 1054 q 426 1061 422 1057 q 432 1069 429 1065 q 438 1074 435 1071 q 442 1078 440 1076 q 446 1088 444 1082 q 449 1099 447 1093 q 454 1126 454 1111 q 456 1154 454 1140 q 455 1178 456 1165 q 451 1203 454 1192 q 449 1214 450 1207 q 444 1225 447 1221 q 439 1230 443 1228 q 432 1233 435 1232 q 422 1240 425 1240 q 417 1240 421 1242 q 410 1238 413 1238 q 398 1233 403 1235 q 388 1224 393 1231 q 359 1189 372 1207 q 331 1151 346 1171 m 704 1151 q 685 1124 694 1138 q 668 1094 675 1110 q 665 1087 667 1092 q 663 1079 663 1082 q 665 1074 663 1076 q 668 1068 667 1071 q 672 1060 671 1065 q 675 1053 674 1056 q 686 1050 681 1050 q 711 1043 700 1043 q 744 1043 728 1042 q 778 1050 761 1044 l 792 1054 q 799 1061 796 1057 q 806 1069 803 1065 q 811 1074 808 1071 q 815 1078 814 1076 q 819 1088 818 1082 q 822 1099 821 1093 q 828 1126 828 1111 q 829 1154 828 1140 q 828 1178 829 1165 q 825 1203 828 1192 q 822 1214 824 1207 q 818 1225 821 1221 q 813 1230 817 1228 q 806 1233 808 1232 q 796 1240 799 1240 q 790 1240 794 1242 q 783 1238 786 1238 q 772 1233 776 1235 q 761 1224 767 1231 q 733 1189 746 1207 q 704 1151 719 1171 z "},"À":{"ha":1049,"x_min":-43,"x_max":1110,"o":"m 988 -58 q 917 -59 957 -58 q 844 -56 876 -60 q 812 -49 828 -53 q 781 -43 796 -46 q 738 -36 760 -40 q 696 -22 715 -32 q 663 8 675 -11 q 632 40 650 26 q 594 61 615 56 q 549 68 572 67 q 504 65 528 68 q 463 49 481 61 q 423 2 436 31 q 382 -43 410 -26 q 332 -57 360 -56 q 279 -58 304 -58 q 214 -59 249 -58 q 147 -57 179 -60 q 106 -51 126 -54 q 65 -42 85 -47 q 38 -37 51 -39 q 13 -32 25 -35 l -3 -28 q -15 -17 -7 -25 q -22 -12 -18 -14 q -28 -7 -25 -10 q -31 1 -29 -4 q -33 8 -32 6 q -40 37 -39 22 q -42 65 -40 51 q -42 106 -43 86 q -37 146 -42 126 q -22 205 -32 176 q -1 261 -11 233 q 26 317 10 272 q 63 428 43 363 q 105 565 83 493 q 147 703 126 638 q 184 814 167 768 q 211 869 201 860 q 231 926 221 897 q 251 982 240 956 q 269 1017 258 1000 q 294 1046 279 1035 q 337 1063 314 1060 q 382 1068 360 1067 q 462 1069 414 1069 q 540 1068 510 1068 q 594 1067 567 1068 q 646 1056 622 1067 q 676 1037 663 1049 q 704 1014 690 1025 q 735 990 719 1003 q 761 961 750 976 q 780 933 772 949 q 794 901 788 917 q 815 856 806 879 q 833 808 824 832 q 861 753 846 796 q 892 651 876 710 q 924 535 908 593 q 956 433 940 476 q 983 378 971 390 q 1009 321 996 363 q 1035 229 1022 279 q 1062 138 1049 179 q 1088 81 1075 96 q 1099 47 1093 64 q 1106 14 1104 31 q 1108 3 1107 8 q 1108 -6 1110 -1 q 1106 -12 1108 -8 q 1103 -21 1104 -17 q 1101 -28 1101 -24 q 1097 -35 1100 -32 q 1092 -38 1096 -36 q 1085 -43 1088 -40 q 1078 -47 1082 -44 q 1072 -51 1075 -50 q 1064 -53 1069 -53 q 1054 -56 1058 -54 q 1024 -58 1040 -57 q 988 -58 1007 -58 m 1015 131 q 989 185 1006 142 q 953 290 972 228 q 914 420 935 351 q 874 551 893 489 q 840 656 856 613 q 813 710 824 700 q 787 787 800 742 q 760 863 774 832 q 743 909 753 885 q 715 949 733 933 q 683 965 701 960 q 646 971 664 969 q 590 973 618 974 q 535 972 563 972 q 476 973 506 972 q 417 972 446 974 q 375 968 396 971 q 338 951 354 965 q 315 922 324 940 q 299 888 306 904 q 278 829 288 858 q 257 771 268 800 q 229 714 244 758 q 197 610 214 669 q 163 490 181 550 q 131 386 146 431 q 103 329 115 342 q 80 269 92 308 q 57 192 68 231 q 33 132 46 153 q 22 97 28 114 q 13 63 15 81 q 11 53 13 58 q 11 43 10 47 q 14 36 11 40 q 18 29 17 32 q 21 24 19 28 q 25 17 22 19 q 33 13 28 14 q 42 8 38 11 q 88 -1 63 -1 q 136 0 114 0 l 247 0 q 283 4 264 1 q 315 17 301 7 q 349 58 339 32 q 378 103 360 85 q 383 108 381 106 q 388 113 386 111 q 394 116 390 115 q 401 118 399 117 q 438 126 419 125 q 475 126 457 126 l 585 126 q 611 126 599 126 q 636 122 624 125 q 644 121 640 121 q 651 118 649 121 q 683 88 674 108 q 706 49 693 67 q 750 10 724 22 q 792 1 769 1 q 835 0 814 0 q 902 0 867 0 q 968 1 938 0 q 986 3 978 1 q 1004 8 994 6 q 1014 11 1008 8 q 1021 18 1018 14 q 1026 25 1024 22 q 1030 30 1028 28 q 1033 33 1032 32 q 1035 42 1036 36 q 1035 51 1035 49 q 1029 90 1036 71 q 1015 131 1022 110 m 468 435 q 467 449 468 442 q 467 463 467 456 q 472 485 468 474 q 479 507 476 497 q 487 534 483 521 q 496 560 490 547 q 501 571 499 564 q 506 581 503 578 q 512 585 508 583 q 518 588 515 586 q 523 590 519 588 q 528 592 526 592 q 531 590 531 592 q 533 586 532 588 q 551 560 546 574 q 563 528 558 544 q 574 493 568 511 q 579 473 576 483 q 582 451 582 463 q 580 440 582 446 q 576 429 578 435 q 575 422 576 424 q 569 417 574 419 q 563 411 565 414 q 559 408 561 410 q 554 404 557 406 q 547 403 551 403 q 539 401 542 403 q 517 400 529 400 q 496 404 506 400 q 483 413 490 407 q 478 417 482 415 q 472 421 475 419 q 468 435 471 422 m 576 988 q 515 986 546 986 q 453 986 485 986 q 399 989 426 986 q 346 1004 371 992 q 315 1022 329 1011 q 286 1044 300 1033 l 218 1100 q 180 1131 200 1115 q 149 1168 160 1147 q 143 1176 147 1171 q 139 1185 139 1181 q 138 1191 138 1188 q 139 1196 139 1194 q 139 1206 139 1200 q 140 1215 139 1211 q 143 1221 142 1218 q 146 1225 144 1224 q 154 1238 150 1232 q 164 1250 158 1244 q 191 1278 176 1264 q 222 1301 206 1293 q 251 1311 236 1308 q 282 1315 267 1314 q 353 1317 314 1318 q 422 1317 392 1317 q 488 1314 454 1317 q 547 1292 521 1311 q 580 1261 565 1279 q 608 1226 594 1243 q 632 1199 619 1213 q 656 1169 644 1185 q 670 1149 663 1160 q 683 1125 678 1138 q 690 1108 688 1118 q 694 1090 693 1099 q 700 1072 697 1081 q 704 1054 703 1064 q 706 1047 704 1051 q 707 1039 707 1043 q 706 1032 707 1036 q 703 1025 704 1028 q 701 1017 701 1022 q 699 1010 701 1013 q 694 1007 697 1008 q 689 1004 692 1006 q 677 997 683 1000 q 663 993 671 994 q 621 990 642 990 q 576 988 600 989 m 294 1144 q 352 1097 322 1122 q 413 1057 382 1072 q 481 1042 444 1043 q 549 1042 518 1042 q 574 1042 561 1042 q 600 1043 588 1042 q 610 1044 604 1044 q 618 1046 615 1044 q 626 1051 622 1047 q 632 1056 629 1054 q 644 1064 640 1060 q 646 1070 646 1067 q 646 1075 646 1074 q 647 1084 646 1079 q 647 1093 649 1089 q 642 1106 646 1100 q 636 1117 639 1111 q 620 1141 631 1129 q 601 1164 610 1153 q 570 1203 586 1183 q 535 1239 554 1222 q 511 1256 524 1249 q 483 1268 499 1264 q 435 1277 461 1276 q 385 1278 408 1278 l 292 1278 q 264 1276 278 1278 q 236 1269 250 1275 q 228 1267 233 1268 q 221 1264 224 1267 q 217 1258 219 1263 q 214 1250 215 1253 q 211 1245 213 1249 q 210 1239 210 1242 q 210 1235 208 1238 q 213 1229 213 1232 q 228 1203 218 1214 q 260 1174 243 1188 q 294 1144 276 1160 z "},"Ā":{"ha":1049,"x_min":-43,"x_max":1110,"o":"m 988 -58 q 917 -59 957 -58 q 844 -56 876 -60 q 812 -49 828 -53 q 781 -43 796 -46 q 738 -36 760 -40 q 696 -22 715 -32 q 663 8 675 -11 q 632 40 650 26 q 594 61 615 56 q 549 68 572 67 q 504 65 528 68 q 463 49 481 61 q 423 2 436 31 q 382 -43 410 -26 q 332 -57 360 -56 q 279 -58 304 -58 q 214 -59 249 -58 q 147 -57 179 -60 q 106 -51 126 -54 q 65 -42 85 -47 q 38 -37 51 -39 q 13 -32 25 -35 l -3 -28 q -15 -17 -7 -25 q -22 -12 -18 -14 q -28 -7 -25 -10 q -31 1 -29 -4 q -33 8 -32 6 q -40 37 -39 22 q -42 65 -40 51 q -42 106 -43 86 q -37 146 -42 126 q -22 205 -32 176 q -1 261 -11 233 q 26 317 10 272 q 63 428 43 363 q 105 565 83 493 q 147 703 126 638 q 184 814 167 768 q 211 869 201 860 q 231 926 221 897 q 251 982 240 956 q 269 1017 258 1000 q 294 1046 279 1035 q 337 1063 314 1060 q 382 1068 360 1067 q 462 1069 414 1069 q 540 1068 510 1068 q 594 1067 567 1068 q 646 1056 622 1067 q 676 1037 663 1049 q 704 1014 690 1025 q 735 990 719 1003 q 761 961 750 976 q 780 933 772 949 q 794 901 788 917 q 815 856 806 879 q 833 808 824 832 q 861 753 846 796 q 892 651 876 710 q 924 535 908 593 q 956 433 940 476 q 983 378 971 390 q 1009 321 996 363 q 1035 229 1022 279 q 1062 138 1049 179 q 1088 81 1075 96 q 1099 47 1093 64 q 1106 14 1104 31 q 1108 3 1107 8 q 1108 -6 1110 -1 q 1106 -12 1108 -8 q 1103 -21 1104 -17 q 1101 -28 1101 -24 q 1097 -35 1100 -32 q 1092 -38 1096 -36 q 1085 -43 1088 -40 q 1078 -47 1082 -44 q 1072 -51 1075 -50 q 1064 -53 1069 -53 q 1054 -56 1058 -54 q 1024 -58 1040 -57 q 988 -58 1007 -58 m 1015 131 q 989 185 1006 142 q 953 290 972 228 q 914 420 935 351 q 874 551 893 489 q 840 656 856 613 q 813 710 824 700 q 787 787 800 742 q 760 863 774 832 q 743 909 753 885 q 715 949 733 933 q 683 965 701 960 q 646 971 664 969 q 590 973 618 974 q 535 972 563 972 q 476 973 506 972 q 417 972 446 974 q 375 968 396 971 q 338 951 354 965 q 315 922 324 940 q 299 888 306 904 q 278 829 288 858 q 257 771 268 800 q 229 714 244 758 q 197 610 214 669 q 163 490 181 550 q 131 386 146 431 q 103 329 115 342 q 80 269 92 308 q 57 192 68 231 q 33 132 46 153 q 22 97 28 114 q 13 63 15 81 q 11 53 13 58 q 11 43 10 47 q 14 36 11 40 q 18 29 17 32 q 21 24 19 28 q 25 17 22 19 q 33 13 28 14 q 42 8 38 11 q 88 -1 63 -1 q 136 0 114 0 l 247 0 q 283 4 264 1 q 315 17 301 7 q 349 58 339 32 q 378 103 360 85 q 383 108 381 106 q 388 113 386 111 q 394 116 390 115 q 401 118 399 117 q 438 126 419 125 q 475 126 457 126 l 585 126 q 611 126 599 126 q 636 122 624 125 q 644 121 640 121 q 651 118 649 121 q 683 88 674 108 q 706 49 693 67 q 750 10 724 22 q 792 1 769 1 q 835 0 814 0 q 902 0 867 0 q 968 1 938 0 q 986 3 978 1 q 1004 8 994 6 q 1014 11 1008 8 q 1021 18 1018 14 q 1026 25 1024 22 q 1030 30 1028 28 q 1033 33 1032 32 q 1035 42 1036 36 q 1035 51 1035 49 q 1029 90 1036 71 q 1015 131 1022 110 m 468 435 q 467 449 468 442 q 467 463 467 456 q 472 485 468 474 q 479 507 476 497 q 487 534 483 521 q 496 560 490 547 q 501 571 499 564 q 506 581 503 578 q 512 585 508 583 q 518 588 515 586 q 523 590 519 588 q 528 592 526 592 q 531 590 531 592 q 533 586 532 588 q 551 560 546 574 q 563 528 558 544 q 574 493 568 511 q 579 473 576 483 q 582 451 582 463 q 580 440 582 446 q 576 429 578 435 q 575 422 576 424 q 569 417 574 419 q 563 411 565 414 q 559 408 561 410 q 554 404 557 406 q 547 403 551 403 q 539 401 542 403 q 517 400 529 400 q 496 404 506 400 q 483 413 490 407 q 478 417 482 415 q 472 421 475 419 q 468 435 471 422 m 860 1094 q 852 1069 857 1082 q 836 1046 847 1056 q 814 1034 826 1038 q 789 1029 801 1031 q 732 1025 761 1024 q 675 1026 703 1026 l 471 1026 q 393 1026 440 1026 q 314 1031 346 1026 l 236 1039 q 210 1042 224 1042 q 185 1049 196 1043 q 149 1090 157 1063 q 142 1143 142 1117 q 142 1163 142 1153 q 144 1183 143 1174 q 154 1211 147 1197 q 172 1235 161 1225 q 198 1249 183 1243 q 225 1261 213 1254 q 261 1288 244 1272 q 297 1313 278 1303 q 333 1321 314 1319 q 371 1324 353 1322 l 710 1324 q 763 1324 736 1324 q 814 1313 790 1324 q 821 1310 817 1311 q 828 1306 825 1308 q 851 1277 843 1294 q 860 1242 858 1260 q 863 1204 863 1224 q 863 1165 863 1185 q 863 1131 863 1149 q 860 1094 863 1114 m 817 1090 q 819 1141 818 1115 q 817 1192 819 1167 q 807 1224 815 1208 l 803 1235 q 797 1238 801 1238 q 789 1240 792 1239 q 776 1247 781 1246 q 767 1249 772 1249 q 757 1249 763 1249 q 732 1250 744 1250 q 706 1250 719 1250 l 307 1250 q 261 1240 281 1250 q 254 1238 258 1239 q 247 1235 250 1238 q 244 1230 246 1233 q 242 1224 243 1226 q 238 1216 240 1221 q 233 1207 235 1211 q 231 1193 232 1201 q 231 1178 231 1185 q 230 1139 229 1158 q 232 1100 231 1119 q 240 1071 233 1086 q 242 1066 242 1069 q 244 1061 243 1063 q 257 1053 249 1056 q 263 1049 260 1051 q 269 1044 267 1046 q 278 1043 274 1043 q 288 1043 283 1043 q 319 1042 303 1042 q 351 1042 336 1042 l 732 1042 q 754 1042 742 1042 q 776 1046 767 1042 q 790 1051 782 1049 q 803 1057 797 1053 q 804 1060 804 1058 q 806 1063 804 1061 q 813 1074 808 1068 q 817 1090 817 1081 z "},"Ą":{"ha":1049,"x_min":-53,"x_max":1096,"o":"m 1082 -219 q 1088 -268 1086 -243 q 1088 -318 1090 -293 q 1083 -340 1086 -328 q 1072 -361 1079 -353 q 1068 -364 1071 -362 q 1063 -368 1065 -365 q 1056 -373 1060 -369 q 1050 -378 1053 -376 q 1042 -380 1047 -379 q 1035 -382 1038 -381 q 1003 -384 1019 -385 q 972 -381 988 -383 q 906 -353 942 -374 q 839 -314 871 -333 q 792 -287 817 -300 q 749 -257 768 -275 q 703 -193 719 -231 q 679 -125 686 -156 q 674 -78 675 -104 q 667 -26 674 -51 q 640 17 661 0 q 630 24 636 21 q 619 31 624 28 q 586 39 606 36 q 563 42 575 42 q 539 42 550 42 q 488 40 515 42 q 442 24 461 39 q 406 -24 418 6 q 365 -69 393 -54 q 326 -81 347 -79 q 285 -85 304 -83 q 232 -85 258 -86 q 178 -85 206 -85 q 140 -84 160 -85 q 100 -78 119 -83 q 61 -56 78 -71 q 25 -29 44 -42 q 6 -18 15 -22 q -11 -8 -3 -14 q -20 -3 -15 -6 q -28 1 -25 -1 q -37 13 -32 4 q -42 19 -39 15 q -47 25 -46 22 q -49 33 -49 28 q -50 43 -49 39 q -44 90 -53 67 q -29 135 -36 114 q -7 185 -18 150 q 16 263 4 221 q 39 341 28 306 q 61 392 50 376 q 88 446 74 404 q 119 544 103 488 q 150 656 135 600 q 180 754 165 713 q 207 808 194 796 q 236 886 221 840 q 281 963 251 932 q 298 980 289 971 q 317 994 307 989 q 365 1011 339 1008 q 414 1015 390 1014 l 536 1015 q 587 1015 557 1015 q 647 1010 617 1015 q 697 993 676 1006 q 736 970 717 983 q 769 940 756 957 q 797 891 788 918 q 815 839 806 864 q 835 785 825 818 q 855 720 844 753 q 875 667 865 688 q 901 615 888 654 q 930 522 915 575 q 958 417 944 469 q 986 324 972 364 q 1013 272 1000 285 q 1035 211 1024 242 q 1056 149 1046 181 q 1072 100 1064 125 q 1086 49 1081 75 q 1093 13 1090 32 q 1093 -24 1096 -6 q 1093 -33 1093 -28 q 1092 -42 1093 -37 q 1085 -55 1090 -47 q 1076 -67 1081 -62 q 1065 -76 1071 -72 q 1053 -85 1058 -79 q 1043 -99 1047 -90 q 1035 -108 1035 -103 q 1037 -115 1035 -110 q 1040 -122 1039 -119 q 1042 -131 1042 -126 q 1044 -137 1043 -135 q 1053 -149 1047 -143 q 1063 -162 1060 -156 q 1075 -188 1071 -175 q 1082 -219 1079 -201 m 165 0 q 214 0 189 0 q 261 3 239 0 q 285 8 272 6 q 307 17 297 11 q 348 61 335 33 q 386 107 361 89 q 422 122 401 118 q 461 126 443 125 q 518 127 489 128 q 576 126 547 126 q 613 125 593 126 q 649 117 632 124 q 692 74 676 103 q 721 22 707 46 q 736 -4 728 8 q 751 -31 744 -17 q 775 -77 764 -53 q 796 -125 786 -101 q 822 -185 810 -154 q 853 -244 835 -217 q 903 -287 872 -272 q 965 -299 935 -303 q 987 -294 976 -297 q 1006 -283 997 -290 q 1019 -266 1014 -276 q 1028 -246 1025 -256 q 1028 -194 1035 -219 q 1000 -150 1021 -168 q 975 -132 989 -139 q 950 -115 961 -125 q 945 -109 947 -112 q 940 -103 943 -106 q 935 -97 939 -100 q 931 -90 932 -93 q 929 -83 929 -87 q 928 -75 929 -78 q 925 -60 925 -67 q 932 -44 926 -51 q 935 -37 933 -42 q 938 -31 936 -32 q 944 -25 940 -28 q 950 -21 949 -22 q 975 -6 963 -11 q 1000 6 988 -1 q 1009 10 1004 8 q 1017 15 1014 13 q 1020 21 1019 18 q 1022 25 1021 24 q 1028 33 1025 29 q 1032 43 1031 38 q 1032 72 1035 57 q 1022 117 1031 94 q 1006 160 1013 139 q 980 234 993 192 q 954 307 967 276 q 925 367 942 319 q 890 478 908 414 q 854 605 872 542 q 819 715 836 668 q 790 775 803 763 q 770 839 781 807 q 744 900 760 871 q 724 934 736 918 q 693 958 713 950 q 665 967 681 965 q 635 971 650 969 q 596 973 615 974 q 557 972 576 972 l 443 972 q 390 969 418 972 q 340 951 363 967 q 315 922 325 940 q 297 886 304 904 q 274 822 285 856 q 251 756 263 788 q 227 708 242 746 q 197 617 213 671 q 165 506 181 564 q 133 395 149 449 q 103 305 117 342 q 78 257 89 268 q 52 186 65 226 q 28 114 39 146 q 17 57 17 83 l 17 43 q 24 30 19 38 q 32 18 29 22 q 42 13 36 15 q 53 8 49 11 q 67 5 60 6 q 81 3 74 4 q 122 0 100 0 q 165 0 143 0 m 485 525 q 497 565 489 547 q 500 573 499 568 q 503 581 501 578 q 508 583 504 582 q 513 586 511 585 l 525 594 q 526 596 525 594 q 528 596 526 597 q 532 592 529 596 q 536 588 535 589 q 553 560 547 575 q 567 515 560 538 q 581 469 575 493 q 585 436 585 453 q 585 431 585 435 q 585 425 586 428 q 578 415 583 421 q 571 407 574 410 q 569 403 569 406 q 567 400 569 401 q 558 399 564 399 q 547 399 551 399 q 492 403 519 394 q 485 406 489 404 q 478 408 481 407 q 474 415 476 411 q 471 421 472 419 q 467 428 469 424 q 464 435 465 432 q 464 444 463 439 q 465 453 465 449 q 474 488 468 471 q 485 525 479 506 m 751 -136 q 752 -138 751 -137 q 753 -139 753 -139 q 754 -143 754 -140 q 756 -145 756 -143 q 757 -146 756 -147 q 756 -144 757 -144 q 756 -142 756 -143 q 750 -126 753 -137 q 749 -124 747 -124 q 749 -126 749 -124 l 751 -136 z "},"Å":{"ha":1049,"x_min":-43,"x_max":1110,"o":"m 988 -58 q 917 -59 957 -58 q 844 -56 876 -60 q 812 -49 828 -53 q 781 -43 796 -46 q 738 -36 760 -40 q 696 -22 715 -32 q 663 8 675 -11 q 632 40 650 26 q 594 61 615 56 q 549 68 572 67 q 504 65 528 68 q 463 49 481 61 q 423 2 436 31 q 382 -43 410 -26 q 332 -57 360 -56 q 279 -58 304 -58 q 214 -59 249 -58 q 147 -57 179 -60 q 106 -51 126 -54 q 65 -42 85 -47 q 38 -37 51 -39 q 13 -32 25 -35 l -3 -28 q -15 -17 -7 -25 q -22 -12 -18 -14 q -28 -7 -25 -10 q -31 1 -29 -4 q -33 8 -32 6 q -40 37 -39 22 q -42 65 -40 51 q -42 106 -43 86 q -37 146 -42 126 q -22 205 -32 176 q -1 261 -11 233 q 26 317 10 272 q 63 428 43 363 q 105 565 83 493 q 147 703 126 638 q 184 814 167 768 q 211 869 201 860 q 231 926 221 897 q 251 982 240 956 q 269 1017 258 1000 q 294 1046 279 1035 q 337 1063 314 1060 q 382 1068 360 1067 q 462 1069 414 1069 q 540 1068 510 1068 q 594 1067 567 1068 q 646 1056 622 1067 q 676 1037 663 1049 q 704 1014 690 1025 q 735 990 719 1003 q 761 961 750 976 q 780 933 772 949 q 794 901 788 917 q 815 856 806 879 q 833 808 824 832 q 861 753 846 796 q 892 651 876 710 q 924 535 908 593 q 956 433 940 476 q 983 378 971 390 q 1009 321 996 363 q 1035 229 1022 279 q 1062 138 1049 179 q 1088 81 1075 96 q 1099 47 1093 64 q 1106 14 1104 31 q 1108 3 1107 8 q 1108 -6 1110 -1 q 1106 -12 1108 -8 q 1103 -21 1104 -17 q 1101 -28 1101 -24 q 1097 -35 1100 -32 q 1092 -38 1096 -36 q 1085 -43 1088 -40 q 1078 -47 1082 -44 q 1072 -51 1075 -50 q 1064 -53 1069 -53 q 1054 -56 1058 -54 q 1024 -58 1040 -57 q 988 -58 1007 -58 m 1015 131 q 989 185 1006 142 q 953 290 972 228 q 914 420 935 351 q 874 551 893 489 q 840 656 856 613 q 813 710 824 700 q 787 787 800 742 q 760 863 774 832 q 743 909 753 885 q 715 949 733 933 q 683 965 701 960 q 646 971 664 969 q 590 973 618 974 q 535 972 563 972 q 476 973 506 972 q 417 972 446 974 q 375 968 396 971 q 338 951 354 965 q 315 922 324 940 q 299 888 306 904 q 278 829 288 858 q 257 771 268 800 q 229 714 244 758 q 197 610 214 669 q 163 490 181 550 q 131 386 146 431 q 103 329 115 342 q 80 269 92 308 q 57 192 68 231 q 33 132 46 153 q 22 97 28 114 q 13 63 15 81 q 11 53 13 58 q 11 43 10 47 q 14 36 11 40 q 18 29 17 32 q 21 24 19 28 q 25 17 22 19 q 33 13 28 14 q 42 8 38 11 q 88 -1 63 -1 q 136 0 114 0 l 247 0 q 283 4 264 1 q 315 17 301 7 q 349 58 339 32 q 378 103 360 85 q 383 108 381 106 q 388 113 386 111 q 394 116 390 115 q 401 118 399 117 q 438 126 419 125 q 475 126 457 126 l 585 126 q 611 126 599 126 q 636 122 624 125 q 644 121 640 121 q 651 118 649 121 q 683 88 674 108 q 706 49 693 67 q 750 10 724 22 q 792 1 769 1 q 835 0 814 0 q 902 0 867 0 q 968 1 938 0 q 986 3 978 1 q 1004 8 994 6 q 1014 11 1008 8 q 1021 18 1018 14 q 1026 25 1024 22 q 1030 30 1028 28 q 1033 33 1032 32 q 1035 42 1036 36 q 1035 51 1035 49 q 1029 90 1036 71 q 1015 131 1022 110 m 468 435 q 467 449 468 442 q 467 463 467 456 q 472 485 468 474 q 479 507 476 497 q 487 534 483 521 q 496 560 490 547 q 501 571 499 564 q 506 581 503 578 q 512 585 508 583 q 518 588 515 586 q 523 590 519 588 q 528 592 526 592 q 531 590 531 592 q 533 586 532 588 q 551 560 546 574 q 563 528 558 544 q 574 493 568 511 q 579 473 576 483 q 582 451 582 463 q 580 440 582 446 q 576 429 578 435 q 575 422 576 424 q 569 417 574 419 q 563 411 565 414 q 559 408 561 410 q 554 404 557 406 q 547 403 551 403 q 539 401 542 403 q 517 400 529 400 q 496 404 506 400 q 483 413 490 407 q 478 417 482 415 q 472 421 475 419 q 468 435 471 422 m 583 972 q 556 963 569 967 q 528 957 543 958 q 455 973 497 956 q 392 1021 413 990 q 372 1066 378 1042 q 358 1113 365 1090 q 346 1157 351 1135 q 342 1201 340 1179 q 362 1259 344 1232 q 406 1301 379 1286 q 442 1316 422 1311 q 482 1322 463 1321 q 526 1323 504 1325 q 571 1318 549 1321 q 610 1312 590 1315 q 647 1301 629 1308 q 706 1257 679 1289 q 738 1193 733 1225 q 714 1108 742 1147 q 693 1084 704 1094 q 671 1063 682 1074 q 642 1026 656 1046 q 611 992 629 1007 q 599 983 606 988 q 583 972 592 979 m 506 1283 q 465 1271 485 1279 q 429 1247 444 1263 q 415 1230 421 1239 q 404 1210 410 1221 q 393 1168 396 1189 q 406 1109 392 1138 q 442 1063 419 1081 q 497 1038 465 1044 q 556 1038 528 1032 q 632 1085 603 1049 q 656 1156 656 1115 q 638 1226 657 1196 q 593 1267 621 1251 q 536 1285 565 1283 q 523 1285 531 1286 q 506 1283 515 1285 m 533 1164 q 531 1149 531 1153 q 530 1146 529 1147 q 529 1144 531 1144 q 526 1144 528 1143 q 522 1147 525 1146 q 516 1152 519 1150 q 508 1156 513 1154 q 507 1156 508 1156 q 506 1157 506 1156 q 511 1163 506 1160 l 521 1175 q 524 1178 524 1178 q 529 1173 525 1178 q 533 1164 533 1168 z "},"Ã":{"ha":1049,"x_min":-43,"x_max":1110,"o":"m 988 -58 q 917 -59 957 -58 q 844 -56 876 -60 q 812 -49 828 -53 q 781 -43 796 -46 q 738 -36 760 -40 q 696 -22 715 -32 q 663 8 675 -11 q 632 40 650 26 q 594 61 615 56 q 549 68 572 67 q 504 65 528 68 q 463 49 481 61 q 423 2 436 31 q 382 -43 410 -26 q 332 -57 360 -56 q 279 -58 304 -58 q 214 -59 249 -58 q 147 -57 179 -60 q 106 -51 126 -54 q 65 -42 85 -47 q 38 -37 51 -39 q 13 -32 25 -35 l -3 -28 q -15 -17 -7 -25 q -22 -12 -18 -14 q -28 -7 -25 -10 q -31 1 -29 -4 q -33 8 -32 6 q -40 37 -39 22 q -42 65 -40 51 q -42 106 -43 86 q -37 146 -42 126 q -22 205 -32 176 q -1 261 -11 233 q 26 317 10 272 q 63 428 43 363 q 105 565 83 493 q 147 703 126 638 q 184 814 167 768 q 211 869 201 860 q 231 926 221 897 q 251 982 240 956 q 269 1017 258 1000 q 294 1046 279 1035 q 337 1063 314 1060 q 382 1068 360 1067 q 462 1069 414 1069 q 540 1068 510 1068 q 594 1067 567 1068 q 646 1056 622 1067 q 676 1037 663 1049 q 704 1014 690 1025 q 735 990 719 1003 q 761 961 750 976 q 780 933 772 949 q 794 901 788 917 q 815 856 806 879 q 833 808 824 832 q 861 753 846 796 q 892 651 876 710 q 924 535 908 593 q 956 433 940 476 q 983 378 971 390 q 1009 321 996 363 q 1035 229 1022 279 q 1062 138 1049 179 q 1088 81 1075 96 q 1099 47 1093 64 q 1106 14 1104 31 q 1108 3 1107 8 q 1108 -6 1110 -1 q 1106 -12 1108 -8 q 1103 -21 1104 -17 q 1101 -28 1101 -24 q 1097 -35 1100 -32 q 1092 -38 1096 -36 q 1085 -43 1088 -40 q 1078 -47 1082 -44 q 1072 -51 1075 -50 q 1064 -53 1069 -53 q 1054 -56 1058 -54 q 1024 -58 1040 -57 q 988 -58 1007 -58 m 1015 131 q 989 185 1006 142 q 953 290 972 228 q 914 420 935 351 q 874 551 893 489 q 840 656 856 613 q 813 710 824 700 q 787 787 800 742 q 760 863 774 832 q 743 909 753 885 q 715 949 733 933 q 683 965 701 960 q 646 971 664 969 q 590 973 618 974 q 535 972 563 972 q 476 973 506 972 q 417 972 446 974 q 375 968 396 971 q 338 951 354 965 q 315 922 324 940 q 299 888 306 904 q 278 829 288 858 q 257 771 268 800 q 229 714 244 758 q 197 610 214 669 q 163 490 181 550 q 131 386 146 431 q 103 329 115 342 q 80 269 92 308 q 57 192 68 231 q 33 132 46 153 q 22 97 28 114 q 13 63 15 81 q 11 53 13 58 q 11 43 10 47 q 14 36 11 40 q 18 29 17 32 q 21 24 19 28 q 25 17 22 19 q 33 13 28 14 q 42 8 38 11 q 88 -1 63 -1 q 136 0 114 0 l 247 0 q 283 4 264 1 q 315 17 301 7 q 349 58 339 32 q 378 103 360 85 q 383 108 381 106 q 388 113 386 111 q 394 116 390 115 q 401 118 399 117 q 438 126 419 125 q 475 126 457 126 l 585 126 q 611 126 599 126 q 636 122 624 125 q 644 121 640 121 q 651 118 649 121 q 683 88 674 108 q 706 49 693 67 q 750 10 724 22 q 792 1 769 1 q 835 0 814 0 q 902 0 867 0 q 968 1 938 0 q 986 3 978 1 q 1004 8 994 6 q 1014 11 1008 8 q 1021 18 1018 14 q 1026 25 1024 22 q 1030 30 1028 28 q 1033 33 1032 32 q 1035 42 1036 36 q 1035 51 1035 49 q 1029 90 1036 71 q 1015 131 1022 110 m 468 435 q 467 449 468 442 q 467 463 467 456 q 472 485 468 474 q 479 507 476 497 q 487 534 483 521 q 496 560 490 547 q 501 571 499 564 q 506 581 503 578 q 512 585 508 583 q 518 588 515 586 q 523 590 519 588 q 528 592 526 592 q 531 590 531 592 q 533 586 532 588 q 551 560 546 574 q 563 528 558 544 q 574 493 568 511 q 579 473 576 483 q 582 451 582 463 q 580 440 582 446 q 576 429 578 435 q 575 422 576 424 q 569 417 574 419 q 563 411 565 414 q 559 408 561 410 q 554 404 557 406 q 547 403 551 403 q 539 401 542 403 q 517 400 529 400 q 496 404 506 400 q 483 413 490 407 q 478 417 482 415 q 472 421 475 419 q 468 435 471 422 m 861 1242 q 864 1213 863 1228 q 863 1182 865 1199 q 839 1107 856 1142 q 825 1081 833 1093 q 807 1058 817 1069 q 790 1042 799 1050 q 769 1026 781 1033 q 731 1010 751 1017 q 689 1001 711 1003 q 644 1006 667 1000 q 597 1015 621 1011 q 572 1020 585 1018 q 546 1024 558 1022 q 527 1026 536 1025 q 508 1028 518 1028 q 479 1023 493 1028 q 450 1014 465 1018 q 408 1008 429 1008 q 364 1007 386 1007 q 319 1014 342 1008 q 272 1024 296 1019 q 234 1029 254 1028 q 194 1039 214 1031 q 186 1043 192 1042 q 178 1047 181 1044 q 173 1056 175 1050 q 168 1064 171 1061 l 163 1074 q 162 1090 161 1081 q 164 1104 163 1099 q 183 1155 168 1125 q 217 1213 197 1185 q 258 1254 238 1240 q 308 1273 282 1268 q 358 1288 335 1278 q 395 1303 378 1294 q 431 1318 413 1313 q 492 1325 463 1328 q 535 1317 514 1324 q 575 1303 556 1311 q 599 1293 588 1297 q 625 1286 611 1289 q 633 1285 629 1286 q 640 1285 638 1283 q 669 1294 656 1286 q 697 1308 683 1303 q 748 1321 721 1319 q 801 1319 775 1322 q 809 1320 804 1319 q 817 1319 814 1321 q 825 1316 821 1318 q 833 1311 829 1314 q 840 1309 836 1310 q 844 1306 843 1308 q 848 1300 847 1304 q 850 1293 849 1296 q 858 1268 856 1281 q 861 1242 860 1256 m 553 1104 q 564 1153 560 1128 q 561 1204 568 1179 q 558 1218 561 1210 q 555 1225 557 1222 q 550 1231 553 1228 q 517 1258 536 1249 q 476 1274 497 1268 q 397 1278 438 1285 q 351 1254 376 1272 q 302 1213 325 1236 q 267 1168 279 1189 q 254 1125 258 1147 q 253 1094 251 1111 q 254 1087 254 1092 q 256 1079 254 1082 q 260 1073 257 1076 q 265 1067 264 1069 q 271 1062 268 1065 q 276 1056 274 1058 q 285 1053 279 1054 q 293 1050 290 1051 q 339 1044 315 1042 q 385 1051 363 1046 q 398 1056 392 1054 q 410 1061 404 1058 q 429 1067 419 1064 q 449 1072 439 1071 q 471 1074 460 1075 q 492 1072 482 1074 q 501 1072 496 1072 q 510 1071 506 1071 q 517 1074 514 1072 q 524 1076 521 1075 q 531 1079 526 1078 q 538 1082 536 1081 q 545 1092 542 1085 q 553 1104 549 1099 m 796 1201 q 797 1216 796 1208 q 796 1229 799 1224 q 792 1238 794 1233 q 786 1247 789 1243 l 782 1258 q 775 1263 779 1261 q 768 1265 771 1264 q 762 1269 765 1267 q 756 1272 758 1271 q 699 1269 726 1282 q 692 1266 696 1268 q 686 1261 689 1264 q 681 1258 685 1260 q 675 1253 678 1256 q 668 1239 671 1246 q 654 1197 658 1222 q 650 1170 651 1183 q 646 1143 649 1157 q 643 1123 644 1133 q 643 1103 642 1113 q 644 1090 644 1097 q 646 1079 644 1083 q 650 1076 647 1078 q 654 1071 653 1074 q 661 1065 657 1069 q 668 1057 665 1060 l 679 1058 q 688 1058 683 1058 q 697 1060 693 1058 q 708 1065 703 1061 q 717 1071 713 1068 q 738 1088 728 1078 q 756 1107 747 1097 q 796 1201 786 1147 z "},"Æ":{"ha":1396,"x_min":-83,"x_max":1394,"o":"m 1392 53 q 1389 26 1390 40 q 1381 -1 1388 11 q 1333 -33 1364 -29 q 1274 -40 1303 -37 q 1236 -43 1256 -42 q 1197 -46 1217 -44 q 1122 -49 1167 -49 q 1044 -49 1076 -49 l 656 -49 q 608 -49 633 -49 q 560 -47 583 -50 q 532 -40 546 -44 q 524 -35 528 -37 q 515 -29 519 -32 q 511 -26 514 -28 q 506 -24 508 -25 q 497 -11 501 -19 q 489 3 492 -3 q 485 18 488 10 q 481 32 483 26 q 475 40 479 36 q 468 47 471 43 q 465 51 467 49 q 460 56 463 54 q 454 56 458 57 q 447 54 450 54 q 440 54 444 54 q 432 53 435 54 q 424 47 428 51 q 418 39 421 42 q 406 23 411 32 q 393 7 400 14 q 372 -14 383 -4 q 346 -29 360 -24 q 324 -35 336 -33 q 301 -37 313 -36 l 231 -42 q 178 -45 210 -43 q 115 -48 147 -47 q 63 -49 83 -49 q 26 -49 44 -49 q -11 -47 7 -49 q -56 -35 -35 -46 q -60 -32 -57 -33 q -65 -29 -64 -31 q -69 -23 -67 -26 q -72 -18 -71 -19 q -76 -11 -74 -15 q -81 -3 -79 -7 q -81 26 -83 13 q -76 48 -79 38 q -69 68 -72 58 q -58 101 -64 85 q -47 135 -53 118 q -24 194 -35 156 q -1 270 -12 232 q 22 329 11 308 q 48 380 35 342 q 75 469 61 418 q 102 569 89 519 q 128 658 115 619 q 154 708 142 696 q 175 767 165 738 q 196 826 185 797 q 210 866 203 846 q 231 903 218 886 q 274 942 249 926 q 319 979 299 957 q 347 1013 335 994 q 376 1044 358 1032 q 413 1059 393 1056 q 451 1064 433 1063 q 494 1065 472 1065 q 536 1065 515 1065 l 1214 1065 q 1259 1065 1236 1065 q 1301 1058 1282 1065 q 1310 1056 1306 1057 q 1319 1053 1315 1056 q 1325 1049 1322 1051 q 1331 1043 1328 1046 l 1342 1033 q 1346 1026 1344 1031 q 1349 1019 1347 1022 q 1359 983 1356 1001 q 1365 946 1363 965 q 1372 917 1368 932 q 1376 888 1375 903 q 1381 838 1381 863 q 1382 788 1382 813 q 1381 749 1382 769 q 1375 711 1381 729 q 1363 684 1369 697 q 1349 657 1356 671 q 1336 597 1335 628 q 1342 552 1336 575 q 1349 506 1347 529 q 1351 446 1351 475 q 1356 386 1351 417 q 1361 356 1358 371 q 1365 326 1364 342 q 1371 282 1368 304 q 1378 236 1374 260 q 1384 208 1381 222 q 1389 178 1388 193 q 1394 116 1393 147 q 1392 53 1394 85 m 1344 167 q 1343 196 1343 181 q 1338 224 1343 211 q 1334 231 1336 226 q 1329 238 1332 235 q 1325 244 1328 240 q 1319 251 1322 249 q 1314 256 1318 254 q 1307 258 1310 257 q 1274 268 1290 267 q 1239 271 1257 269 q 1181 272 1218 272 q 1105 271 1143 271 q 1046 271 1067 271 q 1001 272 1025 271 q 958 282 978 272 q 949 287 954 285 q 940 292 943 289 q 936 302 938 296 q 933 314 935 308 q 931 321 931 317 q 935 326 931 322 q 940 338 938 331 q 946 346 943 344 q 953 349 949 349 q 960 351 957 350 q 982 356 971 356 q 1004 358 993 357 q 1081 359 1036 360 q 1156 358 1125 358 q 1185 358 1171 358 q 1214 358 1200 357 q 1235 361 1225 360 q 1256 365 1246 363 q 1263 369 1258 368 q 1271 371 1268 369 q 1276 375 1274 372 q 1279 379 1278 378 q 1287 387 1282 383 q 1293 394 1292 390 q 1298 409 1296 400 q 1301 424 1300 418 q 1303 451 1304 438 q 1303 479 1303 465 q 1303 517 1303 499 q 1300 553 1303 535 q 1299 563 1299 558 q 1296 572 1299 568 q 1285 588 1292 581 q 1283 593 1283 590 q 1279 597 1282 596 q 1273 601 1278 600 q 1265 604 1268 603 q 1211 614 1242 614 l 1071 614 q 1021 613 1046 614 q 971 617 996 613 q 963 618 968 618 q 956 619 958 618 q 949 626 953 622 q 942 632 944 629 q 938 635 940 633 q 933 639 935 638 q 932 647 932 642 q 932 656 932 653 q 931 663 932 658 q 932 671 931 668 q 938 677 933 674 q 943 682 942 681 q 949 688 946 685 q 954 693 951 692 q 968 696 963 696 q 998 701 983 700 q 1028 701 1013 701 l 1217 701 q 1256 703 1236 701 q 1293 714 1275 706 q 1300 718 1296 717 q 1306 721 1304 719 q 1321 740 1315 728 q 1328 763 1326 751 q 1334 806 1335 783 q 1333 850 1333 828 q 1332 892 1333 871 q 1319 933 1331 914 q 1313 946 1317 942 q 1300 954 1308 951 q 1295 960 1299 957 q 1289 964 1292 963 l 1271 968 q 1233 972 1253 972 q 1193 972 1213 972 l 442 972 q 406 972 424 972 q 371 964 388 971 q 328 931 343 954 q 301 881 313 908 q 283 831 292 856 q 265 779 275 806 q 240 730 256 769 q 208 634 225 690 q 173 516 190 578 q 138 398 156 454 q 106 303 121 342 q 81 253 92 264 q 56 181 68 222 q 31 107 43 139 q 24 81 26 93 q 22 54 21 68 q 22 47 22 51 q 24 39 22 42 q 28 33 25 36 q 33 26 32 29 q 38 21 36 25 q 43 14 40 17 l 53 10 q 85 1 71 3 q 124 0 104 0 q 163 0 143 0 q 210 0 186 0 q 258 1 235 0 q 282 5 269 3 q 306 11 294 7 q 350 53 332 25 q 366 78 358 64 q 385 101 374 92 q 431 123 404 119 q 482 126 457 126 q 505 126 493 126 q 528 124 517 126 q 555 115 542 122 q 576 96 568 107 q 588 67 585 83 q 599 39 592 51 q 646 4 618 11 q 678 0 661 0 q 710 0 694 0 l 1222 0 q 1249 1 1236 0 q 1275 3 1263 1 q 1299 10 1286 6 q 1321 24 1313 14 q 1335 44 1331 32 q 1342 67 1340 56 q 1345 115 1346 90 q 1344 167 1344 140 m 588 506 q 588 477 588 492 q 583 450 588 463 q 576 436 582 444 q 569 422 574 429 q 551 410 563 414 q 529 404 540 407 q 523 403 526 404 q 517 403 519 403 q 501 410 507 406 l 490 414 q 485 421 488 417 q 482 428 483 425 q 475 439 478 433 q 474 446 474 442 q 475 453 475 450 q 478 478 475 467 q 483 503 481 490 q 502 568 493 535 q 522 632 511 601 q 529 647 525 640 q 539 661 533 654 q 546 671 542 667 l 558 671 q 565 672 561 671 q 571 671 569 672 q 574 666 572 669 q 576 660 575 663 q 581 651 579 656 q 585 643 583 647 q 586 635 586 640 q 586 628 586 631 q 588 568 589 599 q 588 506 588 538 z "},"Ǽ":{"ha":1396,"x_min":-83,"x_max":1394,"o":"m 1392 53 q 1389 26 1390 40 q 1381 -1 1388 11 q 1333 -33 1364 -29 q 1274 -40 1303 -37 q 1236 -43 1256 -42 q 1197 -46 1217 -44 q 1122 -49 1167 -49 q 1044 -49 1076 -49 l 656 -49 q 608 -49 633 -49 q 560 -47 583 -50 q 532 -40 546 -44 q 524 -35 528 -37 q 515 -29 519 -32 q 511 -26 514 -28 q 506 -24 508 -25 q 497 -11 501 -19 q 489 3 492 -3 q 485 18 488 10 q 481 32 483 26 q 475 40 479 36 q 468 47 471 43 q 465 51 467 49 q 460 56 463 54 q 454 56 458 57 q 447 54 450 54 q 440 54 444 54 q 432 53 435 54 q 424 47 428 51 q 418 39 421 42 q 406 23 411 32 q 393 7 400 14 q 372 -14 383 -4 q 346 -29 360 -24 q 324 -35 336 -33 q 301 -37 313 -36 l 231 -42 q 178 -45 210 -43 q 115 -48 147 -47 q 63 -49 83 -49 q 26 -49 44 -49 q -11 -47 7 -49 q -56 -35 -35 -46 q -60 -32 -57 -33 q -65 -29 -64 -31 q -69 -23 -67 -26 q -72 -18 -71 -19 q -76 -11 -74 -15 q -81 -3 -79 -7 q -81 26 -83 13 q -76 48 -79 38 q -69 68 -72 58 q -58 101 -64 85 q -47 135 -53 118 q -24 194 -35 156 q -1 270 -12 232 q 22 329 11 308 q 48 380 35 342 q 75 469 61 418 q 102 569 89 519 q 128 658 115 619 q 154 708 142 696 q 175 767 165 738 q 196 826 185 797 q 210 866 203 846 q 231 903 218 886 q 274 942 249 926 q 319 979 299 957 q 347 1013 335 994 q 376 1044 358 1032 q 413 1059 393 1056 q 451 1064 433 1063 q 494 1065 472 1065 q 536 1065 515 1065 l 1214 1065 q 1259 1065 1236 1065 q 1301 1058 1282 1065 q 1310 1056 1306 1057 q 1319 1053 1315 1056 q 1325 1049 1322 1051 q 1331 1043 1328 1046 l 1342 1033 q 1346 1026 1344 1031 q 1349 1019 1347 1022 q 1359 983 1356 1001 q 1365 946 1363 965 q 1372 917 1368 932 q 1376 888 1375 903 q 1381 838 1381 863 q 1382 788 1382 813 q 1381 749 1382 769 q 1375 711 1381 729 q 1363 684 1369 697 q 1349 657 1356 671 q 1336 597 1335 628 q 1342 552 1336 575 q 1349 506 1347 529 q 1351 446 1351 475 q 1356 386 1351 417 q 1361 356 1358 371 q 1365 326 1364 342 q 1371 282 1368 304 q 1378 236 1374 260 q 1384 208 1381 222 q 1389 178 1388 193 q 1394 116 1393 147 q 1392 53 1394 85 m 1344 167 q 1343 196 1343 181 q 1338 224 1343 211 q 1334 231 1336 226 q 1329 238 1332 235 q 1325 244 1328 240 q 1319 251 1322 249 q 1314 256 1318 254 q 1307 258 1310 257 q 1274 268 1290 267 q 1239 271 1257 269 q 1181 272 1218 272 q 1105 271 1143 271 q 1046 271 1067 271 q 1001 272 1025 271 q 958 282 978 272 q 949 287 954 285 q 940 292 943 289 q 936 302 938 296 q 933 314 935 308 q 931 321 931 317 q 935 326 931 322 q 940 338 938 331 q 946 346 943 344 q 953 349 949 349 q 960 351 957 350 q 982 356 971 356 q 1004 358 993 357 q 1081 359 1036 360 q 1156 358 1125 358 q 1185 358 1171 358 q 1214 358 1200 357 q 1235 361 1225 360 q 1256 365 1246 363 q 1263 369 1258 368 q 1271 371 1268 369 q 1276 375 1274 372 q 1279 379 1278 378 q 1287 387 1282 383 q 1293 394 1292 390 q 1298 409 1296 400 q 1301 424 1300 418 q 1303 451 1304 438 q 1303 479 1303 465 q 1303 517 1303 499 q 1300 553 1303 535 q 1299 563 1299 558 q 1296 572 1299 568 q 1285 588 1292 581 q 1283 593 1283 590 q 1279 597 1282 596 q 1273 601 1278 600 q 1265 604 1268 603 q 1211 614 1242 614 l 1071 614 q 1021 613 1046 614 q 971 617 996 613 q 963 618 968 618 q 956 619 958 618 q 949 626 953 622 q 942 632 944 629 q 938 635 940 633 q 933 639 935 638 q 932 647 932 642 q 932 656 932 653 q 931 663 932 658 q 932 671 931 668 q 938 677 933 674 q 943 682 942 681 q 949 688 946 685 q 954 693 951 692 q 968 696 963 696 q 998 701 983 700 q 1028 701 1013 701 l 1217 701 q 1256 703 1236 701 q 1293 714 1275 706 q 1300 718 1296 717 q 1306 721 1304 719 q 1321 740 1315 728 q 1328 763 1326 751 q 1334 806 1335 783 q 1333 850 1333 828 q 1332 892 1333 871 q 1319 933 1331 914 q 1313 946 1317 942 q 1300 954 1308 951 q 1295 960 1299 957 q 1289 964 1292 963 l 1271 968 q 1233 972 1253 972 q 1193 972 1213 972 l 442 972 q 406 972 424 972 q 371 964 388 971 q 328 931 343 954 q 301 881 313 908 q 283 831 292 856 q 265 779 275 806 q 240 730 256 769 q 208 634 225 690 q 173 516 190 578 q 138 398 156 454 q 106 303 121 342 q 81 253 92 264 q 56 181 68 222 q 31 107 43 139 q 24 81 26 93 q 22 54 21 68 q 22 47 22 51 q 24 39 22 42 q 28 33 25 36 q 33 26 32 29 q 38 21 36 25 q 43 14 40 17 l 53 10 q 85 1 71 3 q 124 0 104 0 q 163 0 143 0 q 210 0 186 0 q 258 1 235 0 q 282 5 269 3 q 306 11 294 7 q 350 53 332 25 q 366 78 358 64 q 385 101 374 92 q 431 123 404 119 q 482 126 457 126 q 505 126 493 126 q 528 124 517 126 q 555 115 542 122 q 576 96 568 107 q 588 67 585 83 q 599 39 592 51 q 646 4 618 11 q 678 0 661 0 q 710 0 694 0 l 1222 0 q 1249 1 1236 0 q 1275 3 1263 1 q 1299 10 1286 6 q 1321 24 1313 14 q 1335 44 1331 32 q 1342 67 1340 56 q 1345 115 1346 90 q 1344 167 1344 140 m 588 506 q 588 477 588 492 q 583 450 588 463 q 576 436 582 444 q 569 422 574 429 q 551 410 563 414 q 529 404 540 407 q 523 403 526 404 q 517 403 519 403 q 501 410 507 406 l 490 414 q 485 421 488 417 q 482 428 483 425 q 475 439 478 433 q 474 446 474 442 q 475 453 475 450 q 478 478 475 467 q 483 503 481 490 q 502 568 493 535 q 522 632 511 601 q 529 647 525 640 q 539 661 533 654 q 546 671 542 667 l 558 671 q 565 672 561 671 q 571 671 569 672 q 574 666 572 669 q 576 660 575 663 q 581 651 579 656 q 585 643 583 647 q 586 635 586 640 q 586 628 586 631 q 588 568 589 599 q 588 506 588 538 m 971 1115 q 935 1084 953 1100 q 897 1053 917 1068 q 865 1026 882 1039 q 828 1004 847 1014 q 799 995 814 999 q 769 989 785 992 q 735 987 753 988 q 700 986 718 986 q 650 987 679 986 q 592 994 621 988 q 542 1021 563 1001 q 528 1039 533 1029 q 518 1058 522 1049 q 513 1132 504 1096 q 522 1155 515 1143 q 536 1176 529 1167 q 561 1210 547 1194 q 589 1243 575 1226 q 612 1273 600 1258 q 638 1299 624 1288 q 699 1327 665 1322 q 763 1333 732 1332 l 863 1333 q 910 1333 886 1333 q 956 1328 933 1333 q 976 1319 967 1325 q 996 1308 986 1314 l 1043 1283 q 1053 1278 1047 1281 q 1063 1271 1058 1275 l 1068 1261 q 1074 1254 1071 1258 q 1076 1247 1076 1250 q 1076 1242 1078 1246 q 1075 1236 1075 1239 q 1075 1228 1075 1232 q 1072 1219 1075 1224 q 1068 1211 1071 1215 q 1063 1204 1065 1207 q 1022 1157 1046 1178 q 971 1115 997 1136 m 636 1182 q 616 1157 626 1169 q 594 1131 606 1144 q 585 1119 590 1125 q 578 1106 581 1113 q 573 1095 576 1101 q 569 1085 569 1089 q 572 1080 569 1083 q 575 1075 574 1076 q 582 1057 578 1063 q 586 1056 585 1056 q 589 1054 588 1056 q 600 1050 594 1053 q 611 1044 606 1047 q 638 1042 624 1042 q 667 1042 653 1042 q 713 1042 689 1042 q 758 1044 736 1042 q 815 1068 779 1049 q 888 1113 851 1088 q 944 1158 924 1138 q 970 1180 957 1169 q 994 1203 983 1190 q 1001 1210 997 1206 q 1007 1217 1006 1214 q 1011 1228 1010 1222 q 1014 1240 1013 1235 q 1015 1245 1014 1243 q 1015 1249 1017 1247 q 1013 1252 1015 1251 q 1010 1254 1011 1253 q 1003 1263 1007 1257 q 994 1271 999 1268 q 985 1274 990 1274 q 975 1274 979 1274 q 937 1278 957 1278 q 897 1278 917 1278 l 801 1278 q 764 1276 783 1278 q 726 1267 744 1274 q 678 1231 699 1256 q 636 1182 657 1207 z "},"B":{"ha":1019,"x_min":7,"x_max":1024,"o":"m 992 453 q 1013 408 1006 438 q 1022 343 1021 378 q 1019 278 1024 308 q 1006 231 1015 247 q 981 178 994 201 q 963 153 972 165 q 944 129 954 142 q 899 67 922 99 q 844 14 876 36 q 800 -9 832 1 q 726 -28 768 -19 q 642 -42 685 -36 q 568 -51 600 -49 q 524 -54 536 -54 l 172 -54 q 131 -54 153 -54 q 90 -46 110 -54 q 64 -31 78 -42 q 33 3 47 -17 q 11 44 18 22 q 8 69 8 56 q 7 96 7 83 l 7 860 q 8 890 7 875 q 10 918 8 904 q 12 926 11 921 q 14 932 13 931 q 33 956 21 947 q 57 975 46 965 q 80 993 68 983 q 106 1008 92 1003 q 131 1015 117 1014 q 157 1018 144 1017 q 200 1019 179 1019 q 243 1018 221 1018 l 490 1018 q 535 1018 506 1018 q 599 1017 565 1018 q 663 1014 633 1017 q 708 1007 693 1011 q 767 995 729 1003 q 843 976 806 988 q 901 943 881 964 q 943 890 922 922 q 979 824 964 857 q 999 769 994 790 q 1002 717 1003 744 q 993 667 1001 690 q 978 633 988 649 q 958 601 969 617 q 948 588 953 594 q 939 574 943 581 q 935 567 938 571 q 932 560 932 563 q 932 552 931 557 q 933 544 933 547 q 935 535 935 540 q 936 528 935 531 q 943 517 939 522 q 950 508 947 513 q 972 481 961 494 q 992 453 983 468 m 924 124 q 951 172 939 139 q 971 242 964 204 q 978 313 978 281 q 969 361 978 346 q 944 416 961 390 q 906 467 928 442 q 898 477 903 472 q 890 488 893 482 q 888 497 889 492 q 888 507 888 503 q 886 519 885 515 q 888 526 886 522 q 892 532 890 529 q 902 548 897 540 q 913 563 907 556 q 932 593 924 578 q 946 624 940 608 q 956 675 954 649 q 954 728 957 701 q 929 785 950 749 q 883 860 908 822 q 836 917 857 897 q 780 943 821 932 q 691 960 739 954 q 602 969 643 967 q 546 972 561 972 l 283 972 q 224 973 253 972 q 164 971 194 974 q 142 969 154 971 q 119 964 129 968 l 104 953 q 96 946 97 950 q 89 933 92 942 q 80 906 82 919 q 78 876 78 892 q 76 806 76 846 q 76 735 76 767 l 76 106 q 79 76 78 90 q 86 47 81 61 q 92 32 89 36 l 103 22 q 108 18 106 21 q 114 13 111 15 q 144 3 128 6 q 175 0 161 1 l 564 0 q 613 1 579 0 q 683 7 646 3 q 754 18 721 11 q 803 36 788 25 q 868 72 835 50 q 924 124 901 93 m 446 624 q 442 631 443 626 q 438 636 440 635 q 428 657 432 646 q 426 679 425 668 q 429 686 428 682 q 432 694 431 690 q 435 702 433 697 q 438 710 436 707 q 444 714 439 711 q 453 722 449 717 q 464 728 458 726 q 474 729 468 729 q 483 731 479 729 q 513 731 499 733 q 540 725 526 729 q 549 723 544 724 q 556 719 553 722 q 563 713 560 718 q 572 701 567 708 q 578 690 575 696 q 583 676 582 683 q 582 669 583 671 q 582 658 582 664 q 579 647 582 651 q 574 641 578 644 q 568 635 571 638 q 561 625 565 629 q 553 621 558 622 q 543 617 547 619 q 503 608 525 610 q 464 615 481 607 q 454 620 460 618 q 446 624 449 622 m 590 346 q 595 339 593 343 q 599 331 597 335 l 604 321 l 604 308 q 603 299 603 304 q 603 290 604 294 q 597 276 601 285 q 588 264 592 268 q 575 257 583 260 q 544 244 561 247 q 508 240 528 242 q 497 240 503 240 q 483 242 490 240 q 474 244 478 243 q 465 247 469 246 l 454 251 q 451 256 453 253 q 446 260 449 258 q 440 266 444 263 q 435 274 436 269 q 433 280 433 276 q 432 285 432 283 q 428 294 431 289 q 426 304 426 299 q 429 319 426 311 q 430 328 429 324 q 432 336 431 333 q 442 349 433 340 q 447 355 444 351 q 450 360 449 358 q 458 364 453 363 q 464 367 463 365 q 486 372 475 371 q 508 374 497 374 q 538 372 522 374 q 567 363 554 369 q 579 356 572 361 q 590 346 586 350 z "},"C":{"ha":1018,"x_min":-64,"x_max":1063,"o":"m 878 510 l 713 510 q 651 515 682 510 q 596 543 619 521 q 580 559 588 550 q 564 575 572 568 q 553 586 560 582 l 539 590 q 531 592 536 590 q 524 593 526 594 q 520 590 522 593 q 517 585 518 586 q 511 580 515 583 q 506 574 507 576 q 506 563 504 569 q 507 551 507 556 q 510 540 507 546 q 514 526 513 533 q 528 497 521 511 q 544 467 536 482 q 551 458 547 461 q 557 449 554 454 q 561 444 560 447 q 564 440 563 442 q 571 439 567 439 q 576 439 575 439 q 584 436 579 438 q 592 436 589 435 q 600 438 596 436 q 607 442 604 440 q 628 451 618 446 q 650 458 639 456 q 679 465 664 464 q 708 467 694 465 q 772 467 740 468 q 835 467 804 467 q 876 466 854 467 q 917 458 899 465 q 953 433 940 450 q 979 397 965 415 q 1005 373 990 383 q 1033 350 1019 363 l 1047 338 q 1060 303 1058 322 q 1058 267 1061 285 q 1046 214 1056 240 q 1022 164 1036 188 q 993 122 1010 142 q 960 82 976 101 q 913 31 938 56 q 860 -14 889 6 q 808 -40 847 -26 q 716 -65 768 -53 q 612 -85 664 -76 q 520 -99 560 -94 q 468 -103 481 -104 q 413 -97 453 -101 q 324 -82 372 -92 q 235 -60 275 -72 q 179 -32 194 -47 q 143 -6 161 -19 q 110 25 125 8 q 75 69 92 46 q 42 114 58 92 q -3 175 17 144 q -49 289 -36 226 q -59 350 -56 310 q -63 431 -62 390 q -64 492 -64 471 q -61 551 -64 507 q -53 647 -58 594 q -37 744 -47 700 q -11 803 -26 788 q 37 865 8 835 q 96 922 65 896 q 165 979 128 951 q 233 1026 203 1007 q 304 1053 265 1042 q 374 1069 343 1064 q 435 1077 404 1075 q 496 1079 465 1079 q 542 1074 508 1079 q 620 1058 576 1068 q 707 1036 664 1049 q 784 1010 750 1024 q 831 985 818 997 q 876 944 856 967 q 919 899 897 921 q 954 865 936 881 q 988 831 972 849 q 1023 779 1007 807 q 1049 721 1039 751 q 1059 684 1056 703 q 1060 646 1063 665 q 1059 639 1058 643 q 1058 632 1060 635 q 1038 599 1053 614 q 1011 568 1024 583 q 988 540 1000 554 q 958 519 976 526 q 921 511 942 513 q 878 510 900 510 m 779 372 q 708 371 749 372 q 638 346 668 369 q 617 324 626 336 q 597 301 608 313 q 562 275 582 286 q 519 264 542 264 q 462 281 489 263 q 424 329 435 299 q 416 365 418 346 q 413 401 414 383 q 411 450 411 425 q 411 499 411 475 q 411 529 411 514 q 413 558 411 544 q 415 610 413 583 q 431 658 418 636 q 460 692 442 679 q 474 700 467 697 q 490 706 481 703 q 583 685 542 719 q 604 663 594 675 q 624 640 614 651 q 671 607 644 617 q 706 601 688 601 q 742 600 724 600 l 831 600 q 873 599 851 600 q 915 603 894 599 q 926 605 921 604 q 938 607 932 606 q 975 653 968 621 q 976 662 976 657 q 976 672 976 667 q 972 715 978 693 q 957 756 965 736 q 919 796 943 771 q 867 847 894 821 q 813 897 839 874 q 772 935 788 921 q 699 961 742 951 q 624 976 656 971 q 543 985 583 983 q 487 972 531 986 q 384 935 443 958 q 266 885 325 911 q 163 835 207 858 q 107 800 119 813 q 81 745 92 785 q 63 658 69 706 q 53 572 56 611 q 50 517 50 532 q 51 470 50 504 q 56 392 53 436 q 66 302 60 347 q 81 223 72 257 q 103 176 90 189 q 159 140 115 164 q 262 90 203 117 q 380 39 321 63 q 483 1 439 15 q 539 -12 526 -14 q 578 -10 558 -11 q 617 -6 599 -8 q 683 6 649 -1 q 749 26 718 14 q 802 60 769 39 q 867 105 835 81 q 921 150 900 129 q 943 187 933 168 q 961 225 953 206 q 976 279 971 249 q 969 333 982 310 q 966 341 968 336 q 961 347 964 346 q 940 362 953 357 q 915 368 928 367 q 891 372 904 371 q 864 372 878 372 l 779 372 m 499 414 l 507 397 q 509 394 508 396 q 511 390 510 392 q 517 390 513 389 q 522 392 521 392 q 529 392 525 392 q 535 393 533 392 q 537 397 538 394 q 538 400 536 399 q 540 410 539 404 q 542 419 542 415 q 540 425 542 422 q 539 429 539 428 q 536 439 538 433 q 532 447 535 444 q 526 453 531 450 q 519 458 522 456 q 515 462 518 458 q 511 465 513 465 q 508 461 510 465 q 506 457 506 457 q 501 450 504 454 q 499 443 499 446 q 497 431 497 438 q 499 414 497 424 z "},"Ć":{"ha":1018,"x_min":-64,"x_max":1063,"o":"m 878 510 l 713 510 q 651 515 682 510 q 596 543 619 521 q 580 559 588 550 q 564 575 572 568 q 553 586 560 582 l 539 590 q 531 592 536 590 q 524 593 526 594 q 520 590 522 593 q 517 585 518 586 q 511 580 515 583 q 506 574 507 576 q 506 563 504 569 q 507 551 507 556 q 510 540 507 546 q 514 526 513 533 q 528 497 521 511 q 544 467 536 482 q 551 458 547 461 q 557 449 554 454 q 561 444 560 447 q 564 440 563 442 q 571 439 567 439 q 576 439 575 439 q 584 436 579 438 q 592 436 589 435 q 600 438 596 436 q 607 442 604 440 q 628 451 618 446 q 650 458 639 456 q 679 465 664 464 q 708 467 694 465 q 772 467 740 468 q 835 467 804 467 q 876 466 854 467 q 917 458 899 465 q 953 433 940 450 q 979 397 965 415 q 1005 373 990 383 q 1033 350 1019 363 l 1047 338 q 1060 303 1058 322 q 1058 267 1061 285 q 1046 214 1056 240 q 1022 164 1036 188 q 993 122 1010 142 q 960 82 976 101 q 913 31 938 56 q 860 -14 889 6 q 808 -40 847 -26 q 716 -65 768 -53 q 612 -85 664 -76 q 520 -99 560 -94 q 468 -103 481 -104 q 413 -97 453 -101 q 324 -82 372 -92 q 235 -60 275 -72 q 179 -32 194 -47 q 143 -6 161 -19 q 110 25 125 8 q 75 69 92 46 q 42 114 58 92 q -3 175 17 144 q -49 289 -36 226 q -59 350 -56 310 q -63 431 -62 390 q -64 492 -64 471 q -61 551 -64 507 q -53 647 -58 594 q -37 744 -47 700 q -11 803 -26 788 q 37 865 8 835 q 96 922 65 896 q 165 979 128 951 q 233 1026 203 1007 q 304 1053 265 1042 q 374 1069 343 1064 q 435 1077 404 1075 q 496 1079 465 1079 q 542 1074 508 1079 q 620 1058 576 1068 q 707 1036 664 1049 q 784 1010 750 1024 q 831 985 818 997 q 876 944 856 967 q 919 899 897 921 q 954 865 936 881 q 988 831 972 849 q 1023 779 1007 807 q 1049 721 1039 751 q 1059 684 1056 703 q 1060 646 1063 665 q 1059 639 1058 643 q 1058 632 1060 635 q 1038 599 1053 614 q 1011 568 1024 583 q 988 540 1000 554 q 958 519 976 526 q 921 511 942 513 q 878 510 900 510 m 779 372 q 708 371 749 372 q 638 346 668 369 q 617 324 626 336 q 597 301 608 313 q 562 275 582 286 q 519 264 542 264 q 462 281 489 263 q 424 329 435 299 q 416 365 418 346 q 413 401 414 383 q 411 450 411 425 q 411 499 411 475 q 411 529 411 514 q 413 558 411 544 q 415 610 413 583 q 431 658 418 636 q 460 692 442 679 q 474 700 467 697 q 490 706 481 703 q 583 685 542 719 q 604 663 594 675 q 624 640 614 651 q 671 607 644 617 q 706 601 688 601 q 742 600 724 600 l 831 600 q 873 599 851 600 q 915 603 894 599 q 926 605 921 604 q 938 607 932 606 q 975 653 968 621 q 976 662 976 657 q 976 672 976 667 q 972 715 978 693 q 957 756 965 736 q 919 796 943 771 q 867 847 894 821 q 813 897 839 874 q 772 935 788 921 q 699 961 742 951 q 624 976 656 971 q 543 985 583 983 q 487 972 531 986 q 384 935 443 958 q 266 885 325 911 q 163 835 207 858 q 107 800 119 813 q 81 745 92 785 q 63 658 69 706 q 53 572 56 611 q 50 517 50 532 q 51 470 50 504 q 56 392 53 436 q 66 302 60 347 q 81 223 72 257 q 103 176 90 189 q 159 140 115 164 q 262 90 203 117 q 380 39 321 63 q 483 1 439 15 q 539 -12 526 -14 q 578 -10 558 -11 q 617 -6 599 -8 q 683 6 649 -1 q 749 26 718 14 q 802 60 769 39 q 867 105 835 81 q 921 150 900 129 q 943 187 933 168 q 961 225 953 206 q 976 279 971 249 q 969 333 982 310 q 966 341 968 336 q 961 347 964 346 q 940 362 953 357 q 915 368 928 367 q 891 372 904 371 q 864 372 878 372 l 779 372 m 499 414 l 507 397 q 509 394 508 396 q 511 390 510 392 q 517 390 513 389 q 522 392 521 392 q 529 392 525 392 q 535 393 533 392 q 537 397 538 394 q 538 400 536 399 q 540 410 539 404 q 542 419 542 415 q 540 425 542 422 q 539 429 539 428 q 536 439 538 433 q 532 447 535 444 q 526 453 531 450 q 519 458 522 456 q 515 462 518 458 q 511 465 513 465 q 508 461 510 465 q 506 457 506 457 q 501 450 504 454 q 499 443 499 446 q 497 431 497 438 q 499 414 497 424 m 782 1115 q 746 1084 764 1100 q 708 1053 728 1068 q 676 1026 693 1039 q 639 1004 658 1014 q 610 995 625 999 q 581 989 596 992 q 547 987 564 988 q 511 986 529 986 q 461 987 490 986 q 403 994 432 988 q 353 1021 374 1001 q 339 1039 344 1029 q 329 1058 333 1049 q 324 1132 315 1096 q 333 1155 326 1143 q 347 1176 340 1167 q 372 1210 358 1194 q 400 1243 386 1226 q 423 1273 411 1258 q 449 1299 435 1288 q 510 1327 476 1322 q 574 1333 543 1332 l 674 1333 q 721 1333 697 1333 q 767 1328 744 1333 q 788 1319 778 1325 q 807 1308 797 1314 l 854 1283 q 864 1278 858 1281 q 874 1271 869 1275 l 879 1261 q 885 1254 882 1258 q 888 1247 888 1250 q 888 1242 889 1246 q 886 1236 886 1239 q 886 1228 886 1232 q 883 1219 886 1224 q 879 1211 882 1215 q 874 1204 876 1207 q 833 1157 857 1178 q 782 1115 808 1136 m 447 1182 q 427 1157 438 1169 q 406 1131 417 1144 q 397 1119 401 1125 q 389 1106 392 1113 q 384 1095 388 1101 q 381 1085 381 1089 q 383 1080 381 1083 q 386 1075 385 1076 q 393 1057 389 1063 q 397 1056 396 1056 q 400 1054 399 1056 q 411 1050 406 1053 q 422 1044 417 1047 q 449 1042 435 1042 q 478 1042 464 1042 q 524 1042 500 1042 q 569 1044 547 1042 q 626 1068 590 1049 q 699 1113 663 1088 q 756 1158 735 1138 q 781 1180 768 1169 q 806 1203 794 1190 q 813 1210 808 1206 q 818 1217 817 1214 q 822 1228 821 1222 q 825 1240 824 1235 q 826 1245 825 1243 q 826 1249 828 1247 q 824 1252 826 1251 q 821 1254 822 1253 q 814 1263 818 1257 q 806 1271 810 1268 q 796 1274 801 1274 q 786 1274 790 1274 q 748 1278 768 1278 q 708 1278 728 1278 l 613 1278 q 575 1276 594 1278 q 538 1267 556 1274 q 489 1231 510 1256 q 447 1182 468 1207 z "},"Č":{"ha":1018,"x_min":-64,"x_max":1063,"o":"m 878 510 l 713 510 q 651 515 682 510 q 596 543 619 521 q 580 559 588 550 q 564 575 572 568 q 553 586 560 582 l 539 590 q 531 592 536 590 q 524 593 526 594 q 520 590 522 593 q 517 585 518 586 q 511 580 515 583 q 506 574 507 576 q 506 563 504 569 q 507 551 507 556 q 510 540 507 546 q 514 526 513 533 q 528 497 521 511 q 544 467 536 482 q 551 458 547 461 q 557 449 554 454 q 561 444 560 447 q 564 440 563 442 q 571 439 567 439 q 576 439 575 439 q 584 436 579 438 q 592 436 589 435 q 600 438 596 436 q 607 442 604 440 q 628 451 618 446 q 650 458 639 456 q 679 465 664 464 q 708 467 694 465 q 772 467 740 468 q 835 467 804 467 q 876 466 854 467 q 917 458 899 465 q 953 433 940 450 q 979 397 965 415 q 1005 373 990 383 q 1033 350 1019 363 l 1047 338 q 1060 303 1058 322 q 1058 267 1061 285 q 1046 214 1056 240 q 1022 164 1036 188 q 993 122 1010 142 q 960 82 976 101 q 913 31 938 56 q 860 -14 889 6 q 808 -40 847 -26 q 716 -65 768 -53 q 612 -85 664 -76 q 520 -99 560 -94 q 468 -103 481 -104 q 413 -97 453 -101 q 324 -82 372 -92 q 235 -60 275 -72 q 179 -32 194 -47 q 143 -6 161 -19 q 110 25 125 8 q 75 69 92 46 q 42 114 58 92 q -3 175 17 144 q -49 289 -36 226 q -59 350 -56 310 q -63 431 -62 390 q -64 492 -64 471 q -61 551 -64 507 q -53 647 -58 594 q -37 744 -47 700 q -11 803 -26 788 q 37 865 8 835 q 96 922 65 896 q 165 979 128 951 q 233 1026 203 1007 q 304 1053 265 1042 q 374 1069 343 1064 q 435 1077 404 1075 q 496 1079 465 1079 q 542 1074 508 1079 q 620 1058 576 1068 q 707 1036 664 1049 q 784 1010 750 1024 q 831 985 818 997 q 876 944 856 967 q 919 899 897 921 q 954 865 936 881 q 988 831 972 849 q 1023 779 1007 807 q 1049 721 1039 751 q 1059 684 1056 703 q 1060 646 1063 665 q 1059 639 1058 643 q 1058 632 1060 635 q 1038 599 1053 614 q 1011 568 1024 583 q 988 540 1000 554 q 958 519 976 526 q 921 511 942 513 q 878 510 900 510 m 779 372 q 708 371 749 372 q 638 346 668 369 q 617 324 626 336 q 597 301 608 313 q 562 275 582 286 q 519 264 542 264 q 462 281 489 263 q 424 329 435 299 q 416 365 418 346 q 413 401 414 383 q 411 450 411 425 q 411 499 411 475 q 411 529 411 514 q 413 558 411 544 q 415 610 413 583 q 431 658 418 636 q 460 692 442 679 q 474 700 467 697 q 490 706 481 703 q 583 685 542 719 q 604 663 594 675 q 624 640 614 651 q 671 607 644 617 q 706 601 688 601 q 742 600 724 600 l 831 600 q 873 599 851 600 q 915 603 894 599 q 926 605 921 604 q 938 607 932 606 q 975 653 968 621 q 976 662 976 657 q 976 672 976 667 q 972 715 978 693 q 957 756 965 736 q 919 796 943 771 q 867 847 894 821 q 813 897 839 874 q 772 935 788 921 q 699 961 742 951 q 624 976 656 971 q 543 985 583 983 q 487 972 531 986 q 384 935 443 958 q 266 885 325 911 q 163 835 207 858 q 107 800 119 813 q 81 745 92 785 q 63 658 69 706 q 53 572 56 611 q 50 517 50 532 q 51 470 50 504 q 56 392 53 436 q 66 302 60 347 q 81 223 72 257 q 103 176 90 189 q 159 140 115 164 q 262 90 203 117 q 380 39 321 63 q 483 1 439 15 q 539 -12 526 -14 q 578 -10 558 -11 q 617 -6 599 -8 q 683 6 649 -1 q 749 26 718 14 q 802 60 769 39 q 867 105 835 81 q 921 150 900 129 q 943 187 933 168 q 961 225 953 206 q 976 279 971 249 q 969 333 982 310 q 966 341 968 336 q 961 347 964 346 q 940 362 953 357 q 915 368 928 367 q 891 372 904 371 q 864 372 878 372 l 779 372 m 499 414 l 507 397 q 509 394 508 396 q 511 390 510 392 q 517 390 513 389 q 522 392 521 392 q 529 392 525 392 q 535 393 533 392 q 537 397 538 394 q 538 400 536 399 q 540 410 539 404 q 542 419 542 415 q 540 425 542 422 q 539 429 539 428 q 536 439 538 433 q 532 447 535 444 q 526 453 531 450 q 519 458 522 456 q 515 462 518 458 q 511 465 513 465 q 508 461 510 465 q 506 457 506 457 q 501 450 504 454 q 499 443 499 446 q 497 431 497 438 q 499 414 497 424 m 804 1157 q 763 1106 785 1131 q 719 1058 742 1082 q 690 1027 706 1043 q 656 1000 674 1011 q 598 978 635 983 q 524 974 561 974 q 467 975 488 975 q 415 977 442 975 q 365 989 389 979 q 332 1008 347 996 q 304 1032 317 1019 q 285 1051 294 1042 q 268 1069 276 1060 q 217 1128 244 1096 q 185 1192 190 1161 q 188 1238 181 1214 q 194 1259 190 1247 q 204 1278 197 1271 q 211 1283 207 1281 q 218 1288 215 1286 q 249 1301 233 1297 q 283 1308 265 1306 q 363 1315 315 1315 q 440 1304 410 1315 q 486 1290 464 1299 q 531 1278 508 1281 q 563 1278 546 1276 q 594 1283 579 1279 q 650 1297 622 1290 q 706 1307 678 1303 q 746 1313 725 1310 q 786 1314 767 1315 q 804 1311 796 1313 q 822 1307 813 1310 q 828 1306 825 1306 q 833 1304 832 1306 q 839 1297 836 1303 q 844 1289 842 1292 q 848 1285 846 1288 q 850 1281 850 1283 q 849 1265 851 1275 q 843 1240 847 1251 q 833 1215 839 1228 q 821 1187 828 1201 q 804 1157 814 1172 m 685 1274 q 603 1251 640 1267 q 560 1235 581 1243 q 515 1225 539 1226 q 465 1233 489 1224 q 418 1250 442 1242 q 371 1267 394 1260 q 321 1275 347 1274 q 292 1276 306 1276 q 263 1271 278 1276 q 256 1269 260 1269 q 249 1265 251 1268 q 243 1258 246 1264 q 238 1249 240 1251 l 233 1242 q 235 1231 233 1238 q 239 1221 238 1225 q 244 1209 240 1214 q 251 1197 247 1204 q 272 1173 261 1185 q 293 1150 283 1161 q 339 1100 315 1126 q 393 1058 363 1074 q 444 1044 417 1047 q 499 1042 472 1042 q 534 1042 517 1042 q 569 1043 551 1042 q 599 1049 585 1046 q 628 1060 614 1053 q 659 1081 644 1068 q 688 1108 674 1094 q 718 1140 703 1124 q 747 1174 733 1157 q 766 1194 756 1183 q 781 1217 776 1206 q 783 1224 783 1219 q 785 1232 783 1229 q 786 1240 785 1235 q 788 1247 788 1246 q 783 1254 786 1250 q 776 1260 779 1258 l 768 1269 q 760 1272 765 1271 q 753 1274 756 1272 q 721 1276 738 1276 q 685 1274 704 1276 z "},"Ç":{"ha":1018,"x_min":196,"x_max":1083,"o":"m 988 524 q 916 521 957 521 q 843 521 875 521 q 790 521 817 521 q 739 526 764 521 q 711 538 724 531 q 688 557 699 544 q 683 562 686 558 q 679 568 679 565 q 679 574 678 571 q 681 579 681 578 q 681 586 681 582 q 683 592 682 590 q 692 595 685 594 q 701 597 699 596 q 733 601 717 601 q 764 600 749 600 q 835 599 796 600 q 906 603 875 599 q 926 606 915 604 q 947 613 938 607 q 958 625 953 615 q 964 629 961 626 q 968 633 967 632 q 971 643 971 639 q 976 661 976 654 q 977 675 978 668 q 976 688 976 682 q 972 710 975 699 q 967 731 969 721 q 933 801 954 768 q 904 843 921 824 q 868 878 888 863 q 821 905 856 890 q 741 933 786 919 q 651 958 696 947 q 571 977 606 969 q 524 985 536 985 q 470 983 497 985 q 415 978 443 982 q 344 963 385 972 q 271 939 303 954 q 226 915 250 929 q 217 910 224 914 q 208 907 211 907 q 204 910 207 907 q 199 914 201 913 q 197 914 199 914 q 196 915 196 914 q 201 921 196 917 q 207 926 206 925 q 243 961 225 947 q 300 998 264 982 q 372 1026 336 1014 q 428 1046 407 1039 q 488 1056 457 1053 q 549 1061 518 1060 q 585 1062 567 1063 q 621 1061 603 1061 q 669 1047 633 1060 q 753 1015 706 1033 q 848 974 800 996 q 932 933 896 953 q 981 901 968 914 q 1015 845 1000 875 q 1042 785 1029 815 q 1070 707 1057 754 q 1076 628 1083 660 q 1063 584 1072 606 q 1038 547 1053 563 q 1026 535 1032 538 q 1010 528 1021 531 q 988 524 999 525 m 521 586 q 512 522 513 556 q 511 456 511 488 q 513 418 513 438 q 521 382 514 399 q 542 356 529 365 q 567 332 556 346 q 574 326 569 331 q 581 317 579 321 q 581 313 582 315 q 579 308 579 311 q 578 299 578 306 q 576 289 579 293 q 572 286 575 288 q 567 283 569 285 q 538 268 553 271 q 474 277 507 260 q 426 325 440 294 q 415 373 417 347 q 411 422 413 399 q 411 498 411 454 q 413 572 411 542 q 416 613 414 592 q 426 653 418 635 q 474 699 442 685 q 538 706 507 713 q 567 694 554 701 q 573 692 569 693 q 578 688 576 690 q 581 681 581 686 q 583 674 582 676 q 587 669 585 672 q 589 663 589 665 q 587 658 589 661 q 583 653 585 654 q 580 647 582 650 q 575 640 578 643 q 563 632 569 635 q 549 624 556 629 q 521 586 531 611 m 1056 196 q 1023 129 1040 165 q 982 64 1006 93 q 941 20 964 40 q 893 -15 918 0 q 853 -37 874 -28 q 811 -56 832 -47 q 790 -64 800 -60 q 768 -74 779 -68 q 761 -77 765 -75 q 754 -82 757 -79 q 751 -86 753 -83 q 749 -92 750 -89 q 742 -99 746 -94 q 738 -107 739 -103 q 736 -117 736 -111 q 736 -126 736 -122 q 738 -162 735 -144 q 740 -199 742 -179 q 729 -249 739 -224 q 707 -296 719 -274 q 694 -316 701 -306 q 679 -336 688 -326 l 661 -353 q 640 -365 651 -360 q 618 -374 629 -371 q 499 -361 557 -392 q 481 -350 490 -357 q 464 -336 471 -343 q 461 -330 463 -333 q 458 -324 460 -326 q 453 -317 457 -322 q 451 -311 450 -312 q 454 -310 451 -310 q 461 -306 457 -307 q 468 -303 465 -304 q 484 -301 475 -300 q 501 -301 493 -301 q 518 -302 508 -303 q 535 -300 528 -301 q 599 -265 567 -293 q 639 -206 631 -236 q 638 -147 646 -178 q 611 -94 631 -117 q 604 -89 608 -92 q 597 -83 600 -86 q 575 -68 588 -74 q 551 -53 563 -62 q 545 -48 550 -51 q 540 -43 540 -44 q 544 -37 540 -42 q 551 -27 547 -33 q 558 -19 554 -21 q 566 -16 561 -17 q 574 -14 571 -15 q 592 -10 583 -11 q 611 -7 601 -8 q 661 2 636 -3 q 710 14 686 7 q 758 50 725 25 q 831 105 792 75 q 904 163 871 135 q 953 206 938 190 q 967 243 961 224 q 975 282 974 263 q 972 325 978 303 q 946 360 965 347 l 932 364 q 906 369 918 368 q 879 372 893 371 l 764 372 q 733 372 750 372 q 701 375 717 371 q 692 378 699 376 q 682 381 685 379 q 681 388 681 382 q 679 397 681 390 q 679 406 678 403 q 683 410 681 408 q 688 414 686 413 q 694 421 690 417 q 701 426 697 425 q 709 431 704 429 q 718 435 714 433 q 747 444 732 442 q 776 447 763 446 q 822 449 800 450 q 865 449 843 449 q 906 449 886 449 q 947 447 926 449 q 971 446 958 447 q 994 442 983 444 q 1009 435 1001 439 q 1022 426 1017 431 q 1039 406 1032 418 q 1051 382 1046 393 q 1067 351 1060 368 q 1076 317 1074 333 q 1074 256 1082 286 q 1056 196 1067 226 m 429 -111 q 425 -99 428 -106 q 419 -86 422 -92 q 414 -81 418 -83 q 407 -76 410 -78 q 402 -71 406 -74 q 396 -67 399 -68 q 367 -56 382 -60 q 338 -47 351 -53 q 290 -24 313 -37 q 246 7 267 -10 q 224 26 235 17 q 207 50 214 36 q 205 56 206 53 q 201 61 204 58 q 201 63 201 63 q 200 64 200 64 q 203 65 201 67 q 207 61 206 63 q 216 58 211 60 q 225 54 221 57 q 263 35 244 44 q 303 19 282 26 q 367 3 333 10 q 426 -22 400 -4 q 463 -56 447 -36 q 493 -96 479 -76 q 510 -124 503 -110 q 522 -153 518 -137 q 524 -160 522 -156 q 525 -168 526 -165 q 523 -173 525 -169 q 519 -179 521 -176 q 515 -187 518 -182 q 510 -196 513 -193 l 499 -200 q 485 -205 492 -203 q 471 -207 479 -207 q 463 -208 468 -207 q 454 -207 457 -208 q 449 -201 451 -206 q 444 -194 446 -196 q 440 -189 443 -192 q 436 -185 438 -186 q 435 -175 435 -181 q 435 -165 435 -169 q 433 -139 433 -153 q 429 -111 432 -125 z "},"Ĉ":{"ha":1018,"x_min":-64,"x_max":1063,"o":"m 878 510 l 713 510 q 651 515 682 510 q 596 543 619 521 q 580 559 588 550 q 564 575 572 568 q 553 586 560 582 l 539 590 q 531 592 536 590 q 524 593 526 594 q 520 590 522 593 q 517 585 518 586 q 511 580 515 583 q 506 574 507 576 q 506 563 504 569 q 507 551 507 556 q 510 540 507 546 q 514 526 513 533 q 528 497 521 511 q 544 467 536 482 q 551 458 547 461 q 557 449 554 454 q 561 444 560 447 q 564 440 563 442 q 571 439 567 439 q 576 439 575 439 q 584 436 579 438 q 592 436 589 435 q 600 438 596 436 q 607 442 604 440 q 628 451 618 446 q 650 458 639 456 q 679 465 664 464 q 708 467 694 465 q 772 467 740 468 q 835 467 804 467 q 876 466 854 467 q 917 458 899 465 q 953 433 940 450 q 979 397 965 415 q 1005 373 990 383 q 1033 350 1019 363 l 1047 338 q 1060 303 1058 322 q 1058 267 1061 285 q 1046 214 1056 240 q 1022 164 1036 188 q 993 122 1010 142 q 960 82 976 101 q 913 31 938 56 q 860 -14 889 6 q 808 -40 847 -26 q 716 -65 768 -53 q 612 -85 664 -76 q 520 -99 560 -94 q 468 -103 481 -104 q 413 -97 453 -101 q 324 -82 372 -92 q 235 -60 275 -72 q 179 -32 194 -47 q 143 -6 161 -19 q 110 25 125 8 q 75 69 92 46 q 42 114 58 92 q -3 175 17 144 q -49 289 -36 226 q -59 350 -56 310 q -63 431 -62 390 q -64 492 -64 471 q -61 551 -64 507 q -53 647 -58 594 q -37 744 -47 700 q -11 803 -26 788 q 37 865 8 835 q 96 922 65 896 q 165 979 128 951 q 233 1026 203 1007 q 304 1053 265 1042 q 374 1069 343 1064 q 435 1077 404 1075 q 496 1079 465 1079 q 542 1074 508 1079 q 620 1058 576 1068 q 707 1036 664 1049 q 784 1010 750 1024 q 831 985 818 997 q 876 944 856 967 q 919 899 897 921 q 954 865 936 881 q 988 831 972 849 q 1023 779 1007 807 q 1049 721 1039 751 q 1059 684 1056 703 q 1060 646 1063 665 q 1059 639 1058 643 q 1058 632 1060 635 q 1038 599 1053 614 q 1011 568 1024 583 q 988 540 1000 554 q 958 519 976 526 q 921 511 942 513 q 878 510 900 510 m 779 372 q 708 371 749 372 q 638 346 668 369 q 617 324 626 336 q 597 301 608 313 q 562 275 582 286 q 519 264 542 264 q 462 281 489 263 q 424 329 435 299 q 416 365 418 346 q 413 401 414 383 q 411 450 411 425 q 411 499 411 475 q 411 529 411 514 q 413 558 411 544 q 415 610 413 583 q 431 658 418 636 q 460 692 442 679 q 474 700 467 697 q 490 706 481 703 q 583 685 542 719 q 604 663 594 675 q 624 640 614 651 q 671 607 644 617 q 706 601 688 601 q 742 600 724 600 l 831 600 q 873 599 851 600 q 915 603 894 599 q 926 605 921 604 q 938 607 932 606 q 975 653 968 621 q 976 662 976 657 q 976 672 976 667 q 972 715 978 693 q 957 756 965 736 q 919 796 943 771 q 867 847 894 821 q 813 897 839 874 q 772 935 788 921 q 699 961 742 951 q 624 976 656 971 q 543 985 583 983 q 487 972 531 986 q 384 935 443 958 q 266 885 325 911 q 163 835 207 858 q 107 800 119 813 q 81 745 92 785 q 63 658 69 706 q 53 572 56 611 q 50 517 50 532 q 51 470 50 504 q 56 392 53 436 q 66 302 60 347 q 81 223 72 257 q 103 176 90 189 q 159 140 115 164 q 262 90 203 117 q 380 39 321 63 q 483 1 439 15 q 539 -12 526 -14 q 578 -10 558 -11 q 617 -6 599 -8 q 683 6 649 -1 q 749 26 718 14 q 802 60 769 39 q 867 105 835 81 q 921 150 900 129 q 943 187 933 168 q 961 225 953 206 q 976 279 971 249 q 969 333 982 310 q 966 341 968 336 q 961 347 964 346 q 940 362 953 357 q 915 368 928 367 q 891 372 904 371 q 864 372 878 372 l 779 372 m 499 414 l 507 397 q 509 394 508 396 q 511 390 510 392 q 517 390 513 389 q 522 392 521 392 q 529 392 525 392 q 535 393 533 392 q 537 397 538 394 q 538 400 536 399 q 540 410 539 404 q 542 419 542 415 q 540 425 542 422 q 539 429 539 428 q 536 439 538 433 q 532 447 535 444 q 526 453 531 450 q 519 458 522 456 q 515 462 518 458 q 511 465 513 465 q 508 461 510 465 q 506 457 506 457 q 501 450 504 454 q 499 443 499 446 q 497 431 497 438 q 499 414 497 424 m 771 969 q 712 973 740 969 q 656 986 683 976 q 621 1001 638 993 q 588 1015 604 1008 q 564 1024 576 1019 q 539 1028 551 1028 q 517 1023 529 1026 q 494 1015 506 1019 q 459 999 476 1008 q 424 983 442 990 q 374 972 399 974 q 322 969 349 969 q 299 970 311 969 q 275 975 286 971 q 254 986 264 979 q 233 999 244 993 q 206 1013 219 1004 q 199 1015 203 1014 q 192 1019 194 1017 q 188 1026 190 1022 q 183 1032 186 1029 q 179 1038 182 1035 q 175 1044 176 1042 q 175 1054 174 1049 q 176 1064 176 1060 q 192 1109 179 1088 q 218 1149 206 1131 q 253 1193 233 1172 q 293 1235 274 1214 q 357 1297 321 1267 q 424 1342 393 1328 q 453 1347 439 1346 q 482 1350 468 1349 q 524 1351 503 1351 q 564 1350 544 1350 q 599 1349 581 1350 q 632 1344 617 1349 q 694 1303 664 1335 q 749 1244 724 1272 q 781 1211 764 1228 q 811 1175 797 1194 q 819 1162 814 1169 q 825 1147 824 1154 q 826 1140 826 1144 q 826 1132 826 1135 q 826 1093 828 1113 q 825 1054 824 1074 q 828 1032 826 1043 q 829 1010 831 1021 q 830 1003 829 1007 q 829 996 831 999 q 821 988 826 990 q 808 975 815 981 q 803 974 807 974 q 797 974 800 974 l 771 969 m 760 1132 l 689 1211 q 660 1240 675 1226 q 628 1264 646 1254 q 590 1274 610 1272 q 551 1278 571 1276 l 465 1278 q 428 1274 447 1276 q 392 1264 408 1272 q 359 1241 374 1256 q 331 1211 344 1226 q 290 1167 310 1189 q 250 1121 269 1144 q 244 1114 247 1118 q 238 1106 240 1110 q 233 1098 235 1103 q 231 1089 232 1093 q 228 1084 229 1088 q 226 1078 226 1081 q 230 1070 226 1075 q 235 1063 233 1065 q 239 1058 238 1061 q 242 1053 240 1054 q 249 1050 244 1051 q 256 1047 253 1049 q 283 1042 269 1043 q 310 1043 296 1042 q 365 1051 339 1044 q 418 1068 392 1057 q 460 1086 438 1076 q 504 1097 482 1096 q 565 1085 536 1100 q 624 1060 594 1071 q 724 1043 672 1042 q 761 1047 743 1043 q 767 1047 764 1047 q 772 1049 771 1047 q 778 1055 775 1051 q 782 1061 781 1058 q 787 1067 783 1064 q 792 1072 790 1071 q 790 1080 792 1075 q 788 1088 789 1085 q 786 1094 786 1090 q 783 1101 786 1099 q 774 1117 781 1108 q 760 1132 767 1125 z "},"Ċ":{"ha":1018,"x_min":-64,"x_max":1063,"o":"m 878 510 l 713 510 q 651 515 682 510 q 596 543 619 521 q 580 559 588 550 q 564 575 572 568 q 553 586 560 582 l 539 590 q 531 592 536 590 q 524 593 526 594 q 520 590 522 593 q 517 585 518 586 q 511 580 515 583 q 506 574 507 576 q 506 563 504 569 q 507 551 507 556 q 510 540 507 546 q 514 526 513 533 q 528 497 521 511 q 544 467 536 482 q 551 458 547 461 q 557 449 554 454 q 561 444 560 447 q 564 440 563 442 q 571 439 567 439 q 576 439 575 439 q 584 436 579 438 q 592 436 589 435 q 600 438 596 436 q 607 442 604 440 q 628 451 618 446 q 650 458 639 456 q 679 465 664 464 q 708 467 694 465 q 772 467 740 468 q 835 467 804 467 q 876 466 854 467 q 917 458 899 465 q 953 433 940 450 q 979 397 965 415 q 1005 373 990 383 q 1033 350 1019 363 l 1047 338 q 1060 303 1058 322 q 1058 267 1061 285 q 1046 214 1056 240 q 1022 164 1036 188 q 993 122 1010 142 q 960 82 976 101 q 913 31 938 56 q 860 -14 889 6 q 808 -40 847 -26 q 716 -65 768 -53 q 612 -85 664 -76 q 520 -99 560 -94 q 468 -103 481 -104 q 413 -97 453 -101 q 324 -82 372 -92 q 235 -60 275 -72 q 179 -32 194 -47 q 143 -6 161 -19 q 110 25 125 8 q 75 69 92 46 q 42 114 58 92 q -3 175 17 144 q -49 289 -36 226 q -59 350 -56 310 q -63 431 -62 390 q -64 492 -64 471 q -61 551 -64 507 q -53 647 -58 594 q -37 744 -47 700 q -11 803 -26 788 q 37 865 8 835 q 96 922 65 896 q 165 979 128 951 q 233 1026 203 1007 q 304 1053 265 1042 q 374 1069 343 1064 q 435 1077 404 1075 q 496 1079 465 1079 q 542 1074 508 1079 q 620 1058 576 1068 q 707 1036 664 1049 q 784 1010 750 1024 q 831 985 818 997 q 876 944 856 967 q 919 899 897 921 q 954 865 936 881 q 988 831 972 849 q 1023 779 1007 807 q 1049 721 1039 751 q 1059 684 1056 703 q 1060 646 1063 665 q 1059 639 1058 643 q 1058 632 1060 635 q 1038 599 1053 614 q 1011 568 1024 583 q 988 540 1000 554 q 958 519 976 526 q 921 511 942 513 q 878 510 900 510 m 779 372 q 708 371 749 372 q 638 346 668 369 q 617 324 626 336 q 597 301 608 313 q 562 275 582 286 q 519 264 542 264 q 462 281 489 263 q 424 329 435 299 q 416 365 418 346 q 413 401 414 383 q 411 450 411 425 q 411 499 411 475 q 411 529 411 514 q 413 558 411 544 q 415 610 413 583 q 431 658 418 636 q 460 692 442 679 q 474 700 467 697 q 490 706 481 703 q 583 685 542 719 q 604 663 594 675 q 624 640 614 651 q 671 607 644 617 q 706 601 688 601 q 742 600 724 600 l 831 600 q 873 599 851 600 q 915 603 894 599 q 926 605 921 604 q 938 607 932 606 q 975 653 968 621 q 976 662 976 657 q 976 672 976 667 q 972 715 978 693 q 957 756 965 736 q 919 796 943 771 q 867 847 894 821 q 813 897 839 874 q 772 935 788 921 q 699 961 742 951 q 624 976 656 971 q 543 985 583 983 q 487 972 531 986 q 384 935 443 958 q 266 885 325 911 q 163 835 207 858 q 107 800 119 813 q 81 745 92 785 q 63 658 69 706 q 53 572 56 611 q 50 517 50 532 q 51 470 50 504 q 56 392 53 436 q 66 302 60 347 q 81 223 72 257 q 103 176 90 189 q 159 140 115 164 q 262 90 203 117 q 380 39 321 63 q 483 1 439 15 q 539 -12 526 -14 q 578 -10 558 -11 q 617 -6 599 -8 q 683 6 649 -1 q 749 26 718 14 q 802 60 769 39 q 867 105 835 81 q 921 150 900 129 q 943 187 933 168 q 961 225 953 206 q 976 279 971 249 q 969 333 982 310 q 966 341 968 336 q 961 347 964 346 q 940 362 953 357 q 915 368 928 367 q 891 372 904 371 q 864 372 878 372 l 779 372 m 499 414 l 507 397 q 509 394 508 396 q 511 390 510 392 q 517 390 513 389 q 522 392 521 392 q 529 392 525 392 q 535 393 533 392 q 537 397 538 394 q 538 400 536 399 q 540 410 539 404 q 542 419 542 415 q 540 425 542 422 q 539 429 539 428 q 536 439 538 433 q 532 447 535 444 q 526 453 531 450 q 519 458 522 456 q 515 462 518 458 q 511 465 513 465 q 508 461 510 465 q 506 457 506 457 q 501 450 504 454 q 499 443 499 446 q 497 431 497 438 q 499 414 497 424 m 682 1029 q 671 1022 676 1026 q 658 1015 665 1018 q 649 1014 654 1014 q 639 1013 644 1014 q 606 1010 624 1011 q 572 1010 589 1010 q 506 1011 542 1010 q 439 1018 471 1013 q 408 1024 424 1021 q 376 1033 392 1028 q 369 1038 374 1036 q 363 1040 365 1039 q 359 1047 361 1043 q 354 1053 357 1050 q 350 1058 353 1056 q 346 1064 347 1061 q 339 1090 340 1076 q 336 1118 338 1104 q 335 1180 335 1149 q 342 1240 336 1211 q 348 1265 344 1253 q 356 1289 351 1276 q 366 1315 360 1303 q 382 1339 372 1328 q 387 1345 385 1342 q 392 1350 389 1349 q 399 1353 394 1353 q 406 1356 403 1354 q 446 1364 425 1363 q 488 1365 467 1365 q 529 1365 507 1365 q 569 1358 551 1365 q 607 1334 593 1351 q 638 1299 621 1317 q 670 1269 653 1283 q 697 1233 688 1254 q 706 1197 704 1217 q 708 1160 707 1178 l 708 1097 q 706 1076 707 1088 q 703 1057 706 1065 q 682 1029 696 1043 m 614 1063 q 622 1074 617 1068 q 629 1086 626 1081 q 633 1105 632 1094 q 635 1125 635 1115 q 636 1160 636 1143 q 636 1196 636 1178 q 635 1222 636 1210 q 629 1247 633 1235 q 627 1254 628 1250 q 624 1261 626 1258 q 600 1282 614 1274 q 590 1286 596 1285 q 578 1289 583 1288 q 553 1294 567 1293 q 526 1294 539 1294 q 483 1295 506 1294 q 442 1289 461 1296 q 431 1288 436 1288 q 422 1285 426 1288 q 411 1274 415 1281 q 400 1264 403 1268 q 390 1242 393 1254 q 386 1218 388 1229 q 384 1190 385 1204 q 383 1163 383 1176 q 384 1135 383 1149 q 386 1107 385 1121 q 388 1097 388 1101 q 390 1088 389 1092 q 395 1079 392 1083 q 400 1072 399 1075 q 403 1068 401 1071 q 406 1063 404 1065 q 412 1060 408 1061 q 417 1057 415 1058 q 435 1050 426 1053 q 453 1044 443 1047 q 508 1040 479 1040 q 564 1043 538 1040 q 589 1049 575 1044 q 614 1063 603 1053 z "},"D":{"ha":1028,"x_min":72,"x_max":1049,"o":"m 1019 756 q 1038 700 1032 740 q 1047 612 1044 660 q 1048 524 1049 564 q 1046 467 1047 483 q 1043 411 1046 446 q 1035 342 1040 376 q 1019 286 1031 307 q 995 230 1010 257 q 965 175 981 203 q 936 119 951 147 q 901 67 921 92 q 844 12 878 36 q 778 -29 810 -12 q 731 -51 765 -42 q 651 -65 696 -60 q 563 -74 607 -71 q 483 -79 518 -78 q 436 -81 449 -81 q 385 -81 421 -81 q 309 -81 350 -81 q 233 -81 268 -81 q 182 -79 197 -81 q 131 -71 156 -79 q 124 -68 128 -69 q 117 -65 119 -67 l 108 -56 q 103 -49 107 -53 q 97 -43 99 -46 q 97 -37 96 -40 q 97 -32 97 -33 q 97 -23 97 -29 q 97 -15 96 -17 q 102 -12 99 -14 q 107 -10 106 -11 q 115 -4 110 -7 q 122 0 119 -1 q 132 1 126 1 q 142 1 138 1 q 177 1 160 1 q 213 0 194 0 l 349 0 q 395 3 360 0 q 481 13 431 7 q 586 26 531 18 q 692 42 642 33 q 778 62 742 51 q 824 82 814 72 q 881 131 856 103 q 906 176 893 143 q 933 250 919 208 q 956 334 946 292 q 973 409 967 376 q 979 454 979 442 q 979 502 979 469 q 978 573 979 535 q 972 644 976 611 q 958 692 967 676 q 921 778 946 739 q 878 811 908 790 q 808 856 847 832 q 728 902 768 879 q 657 942 688 925 q 614 964 626 958 q 556 971 593 969 q 483 972 519 972 q 425 972 446 972 l 210 972 q 165 971 188 972 q 124 961 143 969 q 117 958 121 960 q 110 954 113 957 q 100 943 106 951 q 89 932 93 939 q 83 918 86 926 q 79 903 81 910 q 76 869 76 888 q 76 836 76 851 l 76 132 q 76 128 76 131 q 75 124 75 126 q 75 131 75 124 q 74 138 75 135 q 74 146 74 142 l 74 860 q 73 915 74 888 q 78 968 72 942 q 83 984 81 976 q 89 1000 85 992 q 92 1006 90 1003 q 94 1011 93 1010 q 101 1017 97 1014 q 108 1021 106 1019 l 121 1031 q 155 1039 136 1038 q 189 1040 174 1040 l 407 1040 q 465 1040 428 1040 q 538 1039 501 1040 q 596 1033 575 1038 q 650 1024 617 1031 q 716 1007 683 1017 q 769 985 749 997 q 831 958 800 972 q 888 925 861 944 q 934 872 908 904 q 983 808 960 840 q 1019 756 1007 776 m 440 292 q 438 298 439 294 q 435 303 436 301 q 429 320 432 313 q 425 338 426 328 q 424 385 424 361 q 424 436 424 410 l 424 592 q 425 623 424 607 q 431 654 426 639 l 435 669 q 440 674 438 672 q 444 678 443 676 q 451 685 447 681 q 458 692 456 690 q 465 693 461 693 q 469 694 468 693 q 484 697 476 696 q 499 697 492 699 q 551 687 526 696 q 594 657 576 678 q 623 583 619 626 q 628 508 626 540 q 627 454 628 482 q 624 399 626 426 q 618 361 622 381 q 603 326 614 342 q 552 285 585 297 q 488 275 519 272 q 477 275 482 275 q 468 276 472 275 l 450 286 q 445 289 449 288 q 440 292 442 290 m 493 546 q 492 498 492 522 q 492 450 492 474 q 492 424 492 438 q 494 399 493 411 q 496 391 496 396 q 497 383 496 386 q 504 374 500 379 q 510 365 508 369 q 514 358 513 360 q 521 357 517 357 q 526 357 525 357 q 535 354 531 356 q 544 353 540 353 q 551 356 549 353 q 563 360 557 358 q 574 364 568 361 q 604 404 593 379 q 615 431 611 417 q 619 458 618 444 q 622 506 622 482 q 614 551 621 529 q 599 578 608 567 q 574 599 589 590 q 567 602 571 600 q 560 606 564 604 q 553 607 557 607 q 546 607 549 607 q 535 608 540 607 q 524 606 531 608 q 513 599 519 603 q 503 590 506 594 q 500 579 500 585 q 495 563 497 571 q 493 546 493 556 z "},"Ð":{"ha":1064,"x_min":-96,"x_max":1068,"o":"m 1067 442 q 1065 382 1065 411 q 1058 322 1064 353 q 1048 272 1054 297 q 1035 224 1042 247 q 1014 167 1026 203 q 984 94 1001 131 q 946 38 967 58 q 890 2 931 22 q 802 -37 850 -18 q 714 -69 754 -56 q 658 -87 674 -83 q 604 -92 638 -90 q 538 -93 571 -93 q 483 -93 504 -93 l 265 -93 q 222 -92 244 -93 q 181 -85 200 -90 q 142 -63 158 -78 q 107 -36 126 -49 q 75 -19 92 -25 q 42 -7 58 -14 q 33 -2 38 -4 q 25 1 28 0 q -1 47 3 19 q -6 101 -6 75 l -6 242 q -6 272 -6 257 q -7 301 -6 288 q -8 310 -8 306 q -10 319 -8 315 q -25 349 -15 336 q -47 368 -33 360 q -71 386 -60 376 q -91 425 -86 403 q -96 469 -96 447 q -94 507 -96 489 q -85 542 -92 525 q -81 549 -82 544 q -78 554 -79 553 q -50 580 -67 569 q -24 606 -33 590 q -17 613 -21 608 q -12 622 -14 617 q -10 635 -11 629 q -7 647 -8 642 q -5 682 -4 664 q -6 717 -6 700 l -6 817 q -6 865 -6 840 q 4 913 -6 890 q 42 957 15 942 q 85 999 69 972 q 105 1038 96 1018 q 135 1068 114 1058 q 150 1074 139 1071 q 190 1080 169 1079 q 231 1081 210 1081 l 404 1081 q 467 1081 425 1081 q 551 1080 510 1081 q 614 1074 593 1079 q 662 1062 629 1069 q 731 1043 694 1054 q 801 1018 768 1032 q 849 989 833 1004 q 913 923 881 961 q 972 853 944 885 q 1046 721 1021 789 q 1061 667 1057 706 q 1067 582 1065 628 q 1067 497 1068 536 q 1067 442 1067 458 m 108 311 q 110 252 110 290 q 110 175 110 214 q 110 115 110 136 q 113 74 110 94 q 125 35 115 54 q 129 29 128 33 q 133 22 131 25 q 140 19 136 21 q 146 14 143 17 q 152 10 149 13 q 158 7 156 8 q 180 2 168 3 q 201 1 192 1 q 272 0 233 0 q 342 0 311 0 l 449 0 q 506 0 469 0 q 577 1 542 0 q 633 6 613 3 q 688 24 649 10 q 775 56 728 38 q 862 94 822 75 q 917 129 901 114 q 956 188 938 150 q 989 263 975 225 q 1007 321 1003 300 q 1013 394 1013 353 q 1013 467 1013 436 q 1013 543 1013 499 q 1010 618 1013 588 q 1001 678 1008 649 q 983 735 994 707 q 958 783 974 760 q 925 826 943 807 q 896 856 911 842 q 864 882 881 869 q 817 911 849 897 q 748 936 785 925 q 679 955 711 947 q 632 967 647 963 q 584 971 617 969 q 513 972 551 972 q 442 972 475 972 q 394 972 410 972 q 336 973 374 972 q 260 974 299 974 q 201 971 222 974 q 175 969 189 971 q 150 963 161 968 q 142 958 146 961 q 135 951 139 954 q 126 944 133 947 q 124 938 125 942 q 121 931 122 933 q 111 891 113 913 q 110 850 110 869 l 110 719 q 110 685 110 703 q 108 650 111 667 q 104 635 107 644 q 99 621 101 626 q 95 617 97 619 q 90 613 93 615 l 76 600 q 64 592 71 594 q 50 583 57 589 q 40 572 46 579 q 31 558 33 565 q 27 547 28 553 q 24 535 26 542 q 20 510 21 524 q 19 483 19 496 q 20 462 19 474 q 22 439 21 450 q 28 424 25 433 q 33 410 31 415 q 44 399 38 404 q 56 389 50 393 q 69 382 63 385 q 82 374 76 379 q 108 311 106 351 m 567 444 q 570 492 569 468 q 564 539 571 517 q 562 548 563 543 q 558 557 561 553 q 533 581 549 572 q 501 600 517 590 q 492 605 497 603 q 485 610 488 607 q 481 616 483 613 q 476 622 479 619 q 472 628 475 625 q 467 633 468 631 q 466 641 465 636 q 467 649 467 646 q 465 663 464 658 q 469 669 467 665 q 472 674 471 672 q 477 681 475 676 q 481 686 479 685 q 492 690 485 690 q 507 696 500 694 q 524 699 514 697 q 575 691 549 699 q 619 664 601 683 q 631 646 626 656 q 647 603 644 626 q 651 556 650 579 q 652 503 653 529 q 651 451 651 478 q 651 411 651 432 q 647 371 650 390 q 638 341 644 357 q 622 314 632 325 q 580 284 606 294 q 529 275 554 274 q 512 278 519 276 q 496 282 504 279 q 490 285 493 283 q 483 288 486 286 q 474 300 479 292 q 470 306 472 303 q 467 310 468 308 q 465 317 465 313 q 465 325 465 322 q 465 333 465 329 q 465 340 464 338 q 467 346 465 343 q 471 350 469 349 q 476 359 474 354 q 481 367 478 364 q 488 371 483 369 q 494 374 492 372 q 515 383 504 379 q 535 393 525 388 q 547 402 540 396 q 557 414 554 408 q 563 427 561 419 q 567 444 565 435 z "},"Ď":{"ha":1028,"x_min":72,"x_max":1049,"o":"m 1019 756 q 1038 700 1032 740 q 1047 612 1044 660 q 1048 524 1049 564 q 1046 467 1047 483 q 1043 411 1046 446 q 1035 342 1040 376 q 1019 286 1031 307 q 995 230 1010 257 q 965 175 981 203 q 936 119 951 147 q 901 67 921 92 q 844 12 878 36 q 778 -29 810 -12 q 731 -51 765 -42 q 651 -65 696 -60 q 563 -74 607 -71 q 483 -79 518 -78 q 436 -81 449 -81 q 385 -81 421 -81 q 309 -81 350 -81 q 233 -81 268 -81 q 182 -79 197 -81 q 131 -71 156 -79 q 124 -68 128 -69 q 117 -65 119 -67 l 108 -56 q 103 -49 107 -53 q 97 -43 99 -46 q 97 -37 96 -40 q 97 -32 97 -33 q 97 -23 97 -29 q 97 -15 96 -17 q 102 -12 99 -14 q 107 -10 106 -11 q 115 -4 110 -7 q 122 0 119 -1 q 132 1 126 1 q 142 1 138 1 q 177 1 160 1 q 213 0 194 0 l 349 0 q 395 3 360 0 q 481 13 431 7 q 586 26 531 18 q 692 42 642 33 q 778 62 742 51 q 824 82 814 72 q 881 131 856 103 q 906 176 893 143 q 933 250 919 208 q 956 334 946 292 q 973 409 967 376 q 979 454 979 442 q 979 502 979 469 q 978 573 979 535 q 972 644 976 611 q 958 692 967 676 q 921 778 946 739 q 878 811 908 790 q 808 856 847 832 q 728 902 768 879 q 657 942 688 925 q 614 964 626 958 q 556 971 593 969 q 483 972 519 972 q 425 972 446 972 l 210 972 q 165 971 188 972 q 124 961 143 969 q 117 958 121 960 q 110 954 113 957 q 100 943 106 951 q 89 932 93 939 q 83 918 86 926 q 79 903 81 910 q 76 869 76 888 q 76 836 76 851 l 76 132 q 76 128 76 131 q 75 124 75 126 q 75 131 75 124 q 74 138 75 135 q 74 146 74 142 l 74 860 q 73 915 74 888 q 78 968 72 942 q 83 984 81 976 q 89 1000 85 992 q 92 1006 90 1003 q 94 1011 93 1010 q 101 1017 97 1014 q 108 1021 106 1019 l 121 1031 q 155 1039 136 1038 q 189 1040 174 1040 l 407 1040 q 465 1040 428 1040 q 538 1039 501 1040 q 596 1033 575 1038 q 650 1024 617 1031 q 716 1007 683 1017 q 769 985 749 997 q 831 958 800 972 q 888 925 861 944 q 934 872 908 904 q 983 808 960 840 q 1019 756 1007 776 m 440 292 q 438 298 439 294 q 435 303 436 301 q 429 320 432 313 q 425 338 426 328 q 424 385 424 361 q 424 436 424 410 l 424 592 q 425 623 424 607 q 431 654 426 639 l 435 669 q 440 674 438 672 q 444 678 443 676 q 451 685 447 681 q 458 692 456 690 q 465 693 461 693 q 469 694 468 693 q 484 697 476 696 q 499 697 492 699 q 551 687 526 696 q 594 657 576 678 q 623 583 619 626 q 628 508 626 540 q 627 454 628 482 q 624 399 626 426 q 618 361 622 381 q 603 326 614 342 q 552 285 585 297 q 488 275 519 272 q 477 275 482 275 q 468 276 472 275 l 450 286 q 445 289 449 288 q 440 292 442 290 m 493 546 q 492 498 492 522 q 492 450 492 474 q 492 424 492 438 q 494 399 493 411 q 496 391 496 396 q 497 383 496 386 q 504 374 500 379 q 510 365 508 369 q 514 358 513 360 q 521 357 517 357 q 526 357 525 357 q 535 354 531 356 q 544 353 540 353 q 551 356 549 353 q 563 360 557 358 q 574 364 568 361 q 604 404 593 379 q 615 431 611 417 q 619 458 618 444 q 622 506 622 482 q 614 551 621 529 q 599 578 608 567 q 574 599 589 590 q 567 602 571 600 q 560 606 564 604 q 553 607 557 607 q 546 607 549 607 q 535 608 540 607 q 524 606 531 608 q 513 599 519 603 q 503 590 506 594 q 500 579 500 585 q 495 563 497 571 q 493 546 493 556 m 800 1157 q 759 1106 781 1131 q 715 1058 738 1082 q 685 1027 701 1043 q 651 1000 669 1011 q 594 978 631 983 q 520 974 557 974 q 463 975 483 975 q 411 977 438 975 q 361 989 385 979 q 328 1008 343 996 q 300 1032 313 1019 q 281 1051 290 1042 q 264 1069 272 1060 q 213 1128 240 1096 q 181 1192 186 1161 q 183 1238 176 1214 q 190 1259 186 1247 q 200 1278 193 1271 q 207 1283 203 1281 q 214 1288 211 1286 q 245 1301 229 1297 q 279 1308 261 1306 q 358 1315 311 1315 q 436 1304 406 1315 q 482 1290 460 1299 q 526 1278 504 1281 q 558 1278 542 1276 q 590 1283 575 1279 q 646 1297 618 1290 q 701 1307 674 1303 q 742 1313 721 1310 q 782 1314 763 1315 q 800 1311 792 1313 q 818 1307 808 1310 q 824 1306 821 1306 q 829 1304 828 1306 q 835 1297 832 1303 q 840 1289 838 1292 q 844 1285 842 1288 q 846 1281 846 1283 q 844 1265 847 1275 q 839 1240 843 1251 q 829 1215 835 1228 q 817 1187 824 1201 q 800 1157 810 1172 m 681 1274 q 599 1251 636 1267 q 556 1235 576 1243 q 511 1225 535 1226 q 461 1233 485 1224 q 414 1250 438 1242 q 367 1267 390 1260 q 317 1275 343 1274 q 288 1276 301 1276 q 258 1271 274 1276 q 251 1269 256 1269 q 244 1265 247 1268 q 239 1258 242 1264 q 233 1249 236 1251 l 229 1242 q 231 1231 229 1238 q 235 1221 233 1225 q 240 1209 236 1214 q 247 1197 243 1204 q 268 1173 257 1185 q 289 1150 279 1161 q 335 1100 311 1126 q 389 1058 358 1074 q 440 1044 413 1047 q 494 1042 468 1042 q 530 1042 513 1042 q 565 1043 547 1042 q 595 1049 581 1046 q 624 1060 610 1053 q 655 1081 640 1068 q 683 1108 669 1094 q 714 1140 699 1124 q 743 1174 729 1157 q 762 1194 751 1183 q 776 1217 772 1206 q 779 1224 779 1219 q 781 1232 779 1229 q 782 1240 781 1235 q 783 1247 783 1246 q 778 1254 782 1250 q 772 1260 775 1258 l 764 1269 q 756 1272 761 1271 q 749 1274 751 1272 q 717 1276 733 1276 q 681 1274 700 1276 z "},"Đ":{"ha":1061,"x_min":-33,"x_max":1078,"o":"m 1075 314 q 1066 239 1072 283 q 1046 163 1060 194 q 1009 110 1033 142 q 958 47 985 78 q 911 -6 932 15 q 847 -37 881 -24 q 781 -62 813 -51 q 729 -80 760 -72 q 668 -93 699 -87 q 617 -101 638 -99 q 555 -105 596 -104 q 473 -106 514 -106 q 411 -106 432 -106 l 233 -106 q 185 -105 211 -106 q 139 -93 160 -104 q 114 -72 125 -85 q 94 -44 103 -58 q 74 -9 83 -26 q 60 29 64 8 q 58 56 58 42 q 57 83 57 69 l 57 183 q 57 210 57 196 q 54 236 57 224 q 45 263 51 250 q 32 288 39 275 l -1 346 q -15 369 -8 357 q -26 396 -22 382 q -33 430 -32 413 q -33 465 -33 447 q -32 505 -33 485 q -28 543 -31 525 q -21 574 -25 558 q -10 601 -17 589 q 10 624 -1 614 q 32 643 22 633 q 56 697 51 664 q 58 729 58 713 q 57 761 57 746 q 57 829 57 793 q 60 896 57 865 q 65 923 63 910 q 71 949 67 936 q 74 959 72 954 q 76 968 75 964 q 85 981 79 974 q 94 993 90 989 q 115 1003 103 1000 q 136 1007 126 1006 q 181 1010 158 1010 q 225 1010 203 1010 l 436 1010 q 483 1009 451 1010 q 551 1006 515 1008 q 619 1000 588 1004 q 667 989 651 996 q 734 965 699 979 q 800 932 769 951 l 825 915 q 831 911 826 914 q 835 908 835 908 q 833 908 835 907 q 832 908 832 908 l 817 908 q 808 913 813 911 q 800 917 804 915 q 768 931 785 925 q 704 952 738 944 q 639 965 671 960 q 588 971 618 969 q 528 972 558 972 q 476 972 497 972 l 306 972 q 256 973 281 972 q 206 971 231 974 q 181 969 194 969 q 157 963 168 968 q 143 953 151 960 q 131 943 135 947 q 124 929 126 936 q 114 901 117 915 q 111 872 111 888 q 110 814 110 851 q 111 739 111 776 q 110 681 111 701 q 106 650 108 667 q 94 621 103 633 q 73 600 86 608 q 49 581 60 592 q 32 556 39 571 q 22 526 25 542 q 21 486 18 507 q 24 447 21 468 q 38 411 28 426 q 71 381 51 393 q 100 346 90 368 q 103 339 103 343 q 104 332 103 335 q 109 299 108 315 q 110 264 110 282 l 110 121 q 112 77 110 99 q 125 36 114 56 q 128 31 126 35 q 132 24 131 26 q 139 19 135 21 q 146 15 143 18 q 152 11 149 14 q 160 7 156 8 q 174 4 168 4 q 222 0 199 0 l 421 0 q 484 0 442 0 q 569 1 526 0 q 633 6 613 1 q 683 19 649 10 q 758 41 718 28 q 832 70 797 54 q 882 101 867 86 q 911 129 897 115 q 936 158 925 143 q 963 199 951 178 q 982 242 974 219 q 1002 315 996 274 q 1010 388 1008 357 q 1013 447 1013 417 q 1013 506 1013 476 q 1011 574 1013 538 q 1004 642 1010 611 q 994 685 1001 664 q 981 729 988 707 q 978 740 979 735 q 976 749 978 744 q 975 757 972 756 q 979 751 976 758 q 985 745 982 749 q 992 738 989 742 q 1018 700 1007 721 q 1039 660 1029 679 q 1059 605 1051 639 q 1070 537 1067 571 q 1075 482 1074 503 q 1077 400 1078 451 q 1075 314 1076 349 m 565 278 q 538 274 551 276 q 511 276 524 272 q 503 278 507 276 q 497 282 500 281 q 490 285 494 283 q 483 288 486 286 q 478 295 481 290 q 472 303 475 300 q 467 325 467 314 q 467 333 467 328 q 468 342 467 338 q 472 348 469 344 q 476 354 475 351 q 480 360 478 357 q 485 365 482 364 q 492 372 488 369 q 501 376 497 375 q 532 397 517 388 q 557 421 547 406 q 569 463 568 440 q 574 508 571 486 q 577 530 575 519 q 579 550 579 540 q 581 558 579 553 q 581 565 582 564 q 578 569 579 568 q 575 572 576 571 q 569 580 572 575 q 561 586 565 585 q 555 589 560 589 q 547 590 550 589 q 526 595 538 593 q 503 601 514 597 q 494 606 499 603 q 488 610 490 608 q 483 614 486 613 q 478 617 479 615 q 475 622 476 618 q 472 626 474 625 q 468 634 471 629 q 465 643 465 639 q 468 656 465 647 q 469 665 468 658 q 476 676 471 671 q 485 685 481 679 q 493 692 489 690 q 515 698 503 697 q 538 699 528 699 q 600 681 569 697 q 644 633 631 665 q 658 584 656 611 q 660 533 660 557 q 661 511 661 522 q 661 489 661 500 q 653 427 661 468 q 629 346 644 386 q 593 288 614 306 q 565 278 581 281 z "},"E":{"ha":926,"x_min":15,"x_max":983,"o":"m 982 65 q 980 37 981 51 q 972 11 979 22 l 963 -1 q 958 -6 961 -3 q 953 -12 956 -10 q 940 -19 949 -17 q 906 -30 924 -28 q 869 -39 888 -32 q 856 -44 863 -40 q 842 -51 849 -49 q 816 -67 828 -58 q 789 -81 804 -75 q 751 -87 771 -86 q 711 -89 731 -89 l 275 -89 q 203 -90 244 -89 q 131 -89 163 -90 q 90 -84 111 -87 q 53 -67 69 -81 q 31 -35 39 -54 q 21 3 24 -15 q 16 56 17 24 q 16 122 15 89 q 17 175 17 154 l 17 767 q 17 822 17 794 q 21 875 17 849 q 33 936 24 903 q 64 988 42 969 q 97 1003 78 999 q 132 1010 115 1008 q 189 1017 160 1014 q 247 1019 218 1019 q 303 1019 260 1019 q 404 1019 346 1019 q 520 1019 463 1019 q 621 1019 578 1019 q 676 1019 664 1019 l 817 1019 q 869 1013 843 1018 q 914 989 894 1008 q 927 972 921 982 q 939 953 933 963 q 956 919 949 936 q 967 883 963 903 q 971 836 971 861 q 971 788 971 811 q 970 754 971 771 q 964 721 969 738 q 962 713 963 718 q 958 706 961 708 q 949 692 956 700 q 936 682 942 685 q 922 675 931 678 q 906 669 913 672 q 897 667 901 668 q 889 663 893 665 q 885 661 888 661 q 882 660 883 661 q 883 656 881 658 l 888 640 q 901 607 892 622 q 918 575 911 592 q 930 547 925 561 q 938 517 935 532 q 940 483 940 500 q 940 450 940 467 q 940 424 940 438 q 938 399 940 411 q 926 365 935 381 q 901 340 917 349 q 890 333 896 336 q 881 324 885 331 q 875 317 875 318 q 882 315 875 315 q 893 313 888 314 q 903 310 899 313 q 926 291 917 303 q 943 267 936 279 q 964 227 954 249 q 978 183 974 206 q 983 127 983 157 q 982 65 982 97 m 76 817 l 76 239 q 76 167 76 208 q 78 94 76 126 q 82 65 79 79 q 93 38 85 51 q 98 32 96 36 q 101 25 100 28 q 108 22 104 24 q 114 17 111 19 q 120 13 117 15 q 128 8 124 10 q 154 2 140 3 q 182 0 168 1 q 235 -1 203 -1 q 299 -1 267 -1 q 353 0 332 0 l 722 0 q 771 0 746 0 q 818 7 796 0 q 840 17 829 11 q 858 33 851 24 q 868 56 865 43 q 872 79 871 68 q 876 129 875 103 q 874 179 876 156 q 865 223 872 201 q 839 257 858 244 q 832 260 836 260 q 825 263 828 261 q 782 270 804 269 q 738 269 760 271 l 540 269 q 489 270 517 269 q 442 285 461 271 q 435 290 439 288 q 428 294 431 293 q 426 306 426 299 q 424 317 425 313 q 422 325 421 322 q 426 331 422 326 q 433 341 429 335 q 442 350 438 347 q 456 353 447 353 q 485 358 471 357 q 513 358 499 358 l 706 358 q 743 358 725 358 q 779 363 761 358 q 789 365 783 364 q 797 368 794 367 q 803 372 800 369 q 807 375 806 374 q 815 381 810 378 q 821 389 819 385 q 824 397 824 392 q 825 404 824 401 q 831 426 829 415 q 833 449 832 438 q 835 499 835 474 q 831 550 835 525 q 829 559 829 554 q 826 568 829 564 q 822 576 825 572 q 817 585 819 581 q 814 590 815 588 q 810 594 813 593 q 803 599 807 597 q 796 601 799 600 q 767 610 782 608 q 738 613 753 611 q 664 613 707 614 q 589 613 621 613 l 504 613 q 479 613 493 613 q 454 618 465 614 q 445 623 450 619 q 436 629 440 626 q 433 631 435 631 q 429 633 431 632 q 427 642 428 636 q 425 651 426 649 q 422 663 422 657 q 426 669 422 665 q 432 680 429 674 q 438 688 435 686 q 447 692 440 690 q 457 696 453 694 q 478 701 467 700 q 501 701 490 701 l 753 701 q 787 703 768 701 q 819 711 806 706 q 826 715 822 713 q 832 719 829 718 q 838 724 835 722 q 843 726 842 725 q 854 747 850 735 q 860 768 858 758 q 864 808 864 788 q 864 849 864 829 q 863 882 864 865 q 857 915 863 899 q 854 929 857 921 q 810 967 840 956 q 799 968 804 968 q 788 969 793 968 q 754 972 771 972 q 721 972 738 972 l 251 972 q 201 973 226 972 q 151 969 175 974 q 128 965 140 968 q 106 953 115 961 q 92 936 97 947 q 83 915 86 925 q 77 868 78 893 q 76 817 76 843 z "},"É":{"ha":926,"x_min":15,"x_max":983,"o":"m 982 65 q 980 37 981 51 q 972 11 979 22 l 963 -1 q 958 -6 961 -3 q 953 -12 956 -10 q 940 -19 949 -17 q 906 -30 924 -28 q 869 -39 888 -32 q 856 -44 863 -40 q 842 -51 849 -49 q 816 -67 828 -58 q 789 -81 804 -75 q 751 -87 771 -86 q 711 -89 731 -89 l 275 -89 q 203 -90 244 -89 q 131 -89 163 -90 q 90 -84 111 -87 q 53 -67 69 -81 q 31 -35 39 -54 q 21 3 24 -15 q 16 56 17 24 q 16 122 15 89 q 17 175 17 154 l 17 767 q 17 822 17 794 q 21 875 17 849 q 33 936 24 903 q 64 988 42 969 q 97 1003 78 999 q 132 1010 115 1008 q 189 1017 160 1014 q 247 1019 218 1019 q 303 1019 260 1019 q 404 1019 346 1019 q 520 1019 463 1019 q 621 1019 578 1019 q 676 1019 664 1019 l 817 1019 q 869 1013 843 1018 q 914 989 894 1008 q 927 972 921 982 q 939 953 933 963 q 956 919 949 936 q 967 883 963 903 q 971 836 971 861 q 971 788 971 811 q 970 754 971 771 q 964 721 969 738 q 962 713 963 718 q 958 706 961 708 q 949 692 956 700 q 936 682 942 685 q 922 675 931 678 q 906 669 913 672 q 897 667 901 668 q 889 663 893 665 q 885 661 888 661 q 882 660 883 661 q 883 656 881 658 l 888 640 q 901 607 892 622 q 918 575 911 592 q 930 547 925 561 q 938 517 935 532 q 940 483 940 500 q 940 450 940 467 q 940 424 940 438 q 938 399 940 411 q 926 365 935 381 q 901 340 917 349 q 890 333 896 336 q 881 324 885 331 q 875 317 875 318 q 882 315 875 315 q 893 313 888 314 q 903 310 899 313 q 926 291 917 303 q 943 267 936 279 q 964 227 954 249 q 978 183 974 206 q 983 127 983 157 q 982 65 982 97 m 76 817 l 76 239 q 76 167 76 208 q 78 94 76 126 q 82 65 79 79 q 93 38 85 51 q 98 32 96 36 q 101 25 100 28 q 108 22 104 24 q 114 17 111 19 q 120 13 117 15 q 128 8 124 10 q 154 2 140 3 q 182 0 168 1 q 235 -1 203 -1 q 299 -1 267 -1 q 353 0 332 0 l 722 0 q 771 0 746 0 q 818 7 796 0 q 840 17 829 11 q 858 33 851 24 q 868 56 865 43 q 872 79 871 68 q 876 129 875 103 q 874 179 876 156 q 865 223 872 201 q 839 257 858 244 q 832 260 836 260 q 825 263 828 261 q 782 270 804 269 q 738 269 760 271 l 540 269 q 489 270 517 269 q 442 285 461 271 q 435 290 439 288 q 428 294 431 293 q 426 306 426 299 q 424 317 425 313 q 422 325 421 322 q 426 331 422 326 q 433 341 429 335 q 442 350 438 347 q 456 353 447 353 q 485 358 471 357 q 513 358 499 358 l 706 358 q 743 358 725 358 q 779 363 761 358 q 789 365 783 364 q 797 368 794 367 q 803 372 800 369 q 807 375 806 374 q 815 381 810 378 q 821 389 819 385 q 824 397 824 392 q 825 404 824 401 q 831 426 829 415 q 833 449 832 438 q 835 499 835 474 q 831 550 835 525 q 829 559 829 554 q 826 568 829 564 q 822 576 825 572 q 817 585 819 581 q 814 590 815 588 q 810 594 813 593 q 803 599 807 597 q 796 601 799 600 q 767 610 782 608 q 738 613 753 611 q 664 613 707 614 q 589 613 621 613 l 504 613 q 479 613 493 613 q 454 618 465 614 q 445 623 450 619 q 436 629 440 626 q 433 631 435 631 q 429 633 431 632 q 427 642 428 636 q 425 651 426 649 q 422 663 422 657 q 426 669 422 665 q 432 680 429 674 q 438 688 435 686 q 447 692 440 690 q 457 696 453 694 q 478 701 467 700 q 501 701 490 701 l 753 701 q 787 703 768 701 q 819 711 806 706 q 826 715 822 713 q 832 719 829 718 q 838 724 835 722 q 843 726 842 725 q 854 747 850 735 q 860 768 858 758 q 864 808 864 788 q 864 849 864 829 q 863 882 864 865 q 857 915 863 899 q 854 929 857 921 q 810 967 840 956 q 799 968 804 968 q 788 969 793 968 q 754 972 771 972 q 721 972 738 972 l 251 972 q 201 973 226 972 q 151 969 175 974 q 128 965 140 968 q 106 953 115 961 q 92 936 97 947 q 83 915 86 925 q 77 868 78 893 q 76 817 76 843 m 736 1115 q 700 1084 718 1100 q 663 1053 682 1068 q 630 1026 647 1039 q 593 1004 613 1014 q 565 995 579 999 q 535 989 550 992 q 501 987 518 988 q 465 986 483 986 q 415 987 444 986 q 357 994 386 988 q 307 1021 328 1001 q 293 1039 299 1029 q 283 1058 288 1049 q 278 1132 269 1096 q 288 1155 281 1143 q 301 1176 294 1167 q 326 1210 313 1194 q 354 1243 340 1226 q 377 1273 365 1258 q 403 1299 389 1288 q 464 1327 431 1322 q 528 1333 497 1332 l 628 1333 q 675 1333 651 1333 q 721 1328 699 1333 q 742 1319 732 1325 q 761 1308 751 1314 l 808 1283 q 818 1278 813 1281 q 828 1271 824 1275 l 833 1261 q 839 1254 836 1258 q 842 1247 842 1250 q 842 1242 843 1246 q 840 1236 840 1239 q 840 1228 840 1232 q 838 1219 840 1224 q 833 1211 836 1215 q 828 1204 831 1207 q 787 1157 811 1178 q 736 1115 763 1136 m 401 1182 q 381 1157 392 1169 q 360 1131 371 1144 q 351 1119 356 1125 q 343 1106 346 1113 q 338 1095 342 1101 q 335 1085 335 1089 q 337 1080 335 1083 q 340 1075 339 1076 q 347 1057 343 1063 q 351 1056 350 1056 q 354 1054 353 1056 q 365 1050 360 1053 q 376 1044 371 1047 q 403 1042 389 1042 q 432 1042 418 1042 q 478 1042 454 1042 q 524 1044 501 1042 q 581 1068 544 1049 q 653 1113 617 1088 q 710 1158 689 1138 q 735 1180 722 1169 q 760 1203 749 1190 q 767 1210 763 1206 q 772 1217 771 1214 q 776 1228 775 1222 q 779 1240 778 1235 q 781 1245 779 1243 q 781 1249 782 1247 q 778 1252 781 1251 q 775 1254 776 1253 q 768 1263 772 1257 q 760 1271 764 1268 q 750 1274 756 1274 q 740 1274 744 1274 q 702 1278 722 1278 q 663 1278 682 1278 l 567 1278 q 529 1276 549 1278 q 492 1267 510 1274 q 443 1231 464 1256 q 401 1182 422 1207 z "},"Ĕ":{"ha":926,"x_min":15,"x_max":983,"o":"m 982 65 q 980 37 981 51 q 972 11 979 22 l 963 -1 q 958 -6 961 -3 q 953 -12 956 -10 q 940 -19 949 -17 q 906 -30 924 -28 q 869 -39 888 -32 q 856 -44 863 -40 q 842 -51 849 -49 q 816 -67 828 -58 q 789 -81 804 -75 q 751 -87 771 -86 q 711 -89 731 -89 l 275 -89 q 203 -90 244 -89 q 131 -89 163 -90 q 90 -84 111 -87 q 53 -67 69 -81 q 31 -35 39 -54 q 21 3 24 -15 q 16 56 17 24 q 16 122 15 89 q 17 175 17 154 l 17 767 q 17 822 17 794 q 21 875 17 849 q 33 936 24 903 q 64 988 42 969 q 97 1003 78 999 q 132 1010 115 1008 q 189 1017 160 1014 q 247 1019 218 1019 q 303 1019 260 1019 q 404 1019 346 1019 q 520 1019 463 1019 q 621 1019 578 1019 q 676 1019 664 1019 l 817 1019 q 869 1013 843 1018 q 914 989 894 1008 q 927 972 921 982 q 939 953 933 963 q 956 919 949 936 q 967 883 963 903 q 971 836 971 861 q 971 788 971 811 q 970 754 971 771 q 964 721 969 738 q 962 713 963 718 q 958 706 961 708 q 949 692 956 700 q 936 682 942 685 q 922 675 931 678 q 906 669 913 672 q 897 667 901 668 q 889 663 893 665 q 885 661 888 661 q 882 660 883 661 q 883 656 881 658 l 888 640 q 901 607 892 622 q 918 575 911 592 q 930 547 925 561 q 938 517 935 532 q 940 483 940 500 q 940 450 940 467 q 940 424 940 438 q 938 399 940 411 q 926 365 935 381 q 901 340 917 349 q 890 333 896 336 q 881 324 885 331 q 875 317 875 318 q 882 315 875 315 q 893 313 888 314 q 903 310 899 313 q 926 291 917 303 q 943 267 936 279 q 964 227 954 249 q 978 183 974 206 q 983 127 983 157 q 982 65 982 97 m 76 817 l 76 239 q 76 167 76 208 q 78 94 76 126 q 82 65 79 79 q 93 38 85 51 q 98 32 96 36 q 101 25 100 28 q 108 22 104 24 q 114 17 111 19 q 120 13 117 15 q 128 8 124 10 q 154 2 140 3 q 182 0 168 1 q 235 -1 203 -1 q 299 -1 267 -1 q 353 0 332 0 l 722 0 q 771 0 746 0 q 818 7 796 0 q 840 17 829 11 q 858 33 851 24 q 868 56 865 43 q 872 79 871 68 q 876 129 875 103 q 874 179 876 156 q 865 223 872 201 q 839 257 858 244 q 832 260 836 260 q 825 263 828 261 q 782 270 804 269 q 738 269 760 271 l 540 269 q 489 270 517 269 q 442 285 461 271 q 435 290 439 288 q 428 294 431 293 q 426 306 426 299 q 424 317 425 313 q 422 325 421 322 q 426 331 422 326 q 433 341 429 335 q 442 350 438 347 q 456 353 447 353 q 485 358 471 357 q 513 358 499 358 l 706 358 q 743 358 725 358 q 779 363 761 358 q 789 365 783 364 q 797 368 794 367 q 803 372 800 369 q 807 375 806 374 q 815 381 810 378 q 821 389 819 385 q 824 397 824 392 q 825 404 824 401 q 831 426 829 415 q 833 449 832 438 q 835 499 835 474 q 831 550 835 525 q 829 559 829 554 q 826 568 829 564 q 822 576 825 572 q 817 585 819 581 q 814 590 815 588 q 810 594 813 593 q 803 599 807 597 q 796 601 799 600 q 767 610 782 608 q 738 613 753 611 q 664 613 707 614 q 589 613 621 613 l 504 613 q 479 613 493 613 q 454 618 465 614 q 445 623 450 619 q 436 629 440 626 q 433 631 435 631 q 429 633 431 632 q 427 642 428 636 q 425 651 426 649 q 422 663 422 657 q 426 669 422 665 q 432 680 429 674 q 438 688 435 686 q 447 692 440 690 q 457 696 453 694 q 478 701 467 700 q 501 701 490 701 l 753 701 q 787 703 768 701 q 819 711 806 706 q 826 715 822 713 q 832 719 829 718 q 838 724 835 722 q 843 726 842 725 q 854 747 850 735 q 860 768 858 758 q 864 808 864 788 q 864 849 864 829 q 863 882 864 865 q 857 915 863 899 q 854 929 857 921 q 810 967 840 956 q 799 968 804 968 q 788 969 793 968 q 754 972 771 972 q 721 972 738 972 l 251 972 q 201 973 226 972 q 151 969 175 974 q 128 965 140 968 q 106 953 115 961 q 92 936 97 947 q 83 915 86 925 q 77 868 78 893 q 76 817 76 843 m 740 1181 q 707 1135 726 1156 q 685 1115 697 1125 q 663 1094 674 1106 q 630 1061 646 1078 q 594 1031 614 1044 q 531 999 574 1010 q 447 987 489 989 q 383 989 404 985 q 332 1006 363 993 q 272 1038 301 1019 q 225 1078 243 1057 q 206 1114 214 1094 q 193 1153 199 1133 q 185 1196 188 1174 q 188 1240 182 1218 q 190 1247 189 1243 q 192 1254 190 1251 q 216 1284 200 1272 q 250 1303 232 1296 q 365 1322 306 1325 q 390 1322 376 1322 q 413 1318 403 1321 q 427 1313 419 1317 q 440 1306 435 1308 q 456 1292 449 1300 q 474 1281 464 1285 q 482 1276 476 1279 q 490 1274 488 1274 q 501 1277 494 1274 q 511 1282 507 1281 q 541 1297 526 1289 q 572 1310 556 1304 q 638 1324 603 1321 q 703 1319 672 1326 q 712 1318 707 1318 q 721 1315 717 1318 q 728 1311 724 1314 q 736 1306 732 1308 q 741 1303 739 1304 q 744 1300 743 1303 q 750 1292 747 1297 q 754 1283 753 1288 q 757 1279 756 1282 q 760 1274 758 1276 q 761 1249 763 1263 q 757 1225 760 1236 q 740 1181 753 1203 m 696 1231 q 692 1242 694 1236 q 685 1254 689 1249 l 676 1260 q 662 1269 668 1265 q 646 1274 656 1272 q 595 1276 624 1278 q 546 1260 567 1275 q 521 1234 532 1250 q 496 1206 510 1218 q 490 1201 493 1204 q 483 1196 486 1197 q 476 1194 481 1194 q 468 1194 471 1194 q 460 1193 465 1194 q 451 1193 454 1192 q 445 1197 449 1194 q 439 1201 442 1200 q 432 1207 436 1204 q 425 1211 428 1210 q 407 1235 415 1222 q 386 1257 399 1247 q 339 1276 367 1274 q 286 1274 311 1278 q 270 1269 276 1272 q 256 1263 264 1267 q 251 1260 254 1261 q 246 1257 249 1260 q 243 1253 244 1256 q 240 1247 242 1250 q 235 1238 239 1243 q 231 1229 232 1233 q 229 1215 229 1224 q 229 1199 229 1206 q 235 1176 231 1188 q 243 1156 239 1165 q 332 1067 271 1097 q 388 1046 353 1053 q 458 1038 424 1039 q 514 1042 493 1038 q 589 1063 554 1046 q 647 1102 621 1078 q 686 1157 672 1126 q 694 1179 690 1168 q 699 1200 697 1190 q 696 1231 700 1210 z "},"Ě":{"ha":926,"x_min":15,"x_max":983,"o":"m 982 65 q 980 37 981 51 q 972 11 979 22 l 963 -1 q 958 -6 961 -3 q 953 -12 956 -10 q 940 -19 949 -17 q 906 -30 924 -28 q 869 -39 888 -32 q 856 -44 863 -40 q 842 -51 849 -49 q 816 -67 828 -58 q 789 -81 804 -75 q 751 -87 771 -86 q 711 -89 731 -89 l 275 -89 q 203 -90 244 -89 q 131 -89 163 -90 q 90 -84 111 -87 q 53 -67 69 -81 q 31 -35 39 -54 q 21 3 24 -15 q 16 56 17 24 q 16 122 15 89 q 17 175 17 154 l 17 767 q 17 822 17 794 q 21 875 17 849 q 33 936 24 903 q 64 988 42 969 q 97 1003 78 999 q 132 1010 115 1008 q 189 1017 160 1014 q 247 1019 218 1019 q 303 1019 260 1019 q 404 1019 346 1019 q 520 1019 463 1019 q 621 1019 578 1019 q 676 1019 664 1019 l 817 1019 q 869 1013 843 1018 q 914 989 894 1008 q 927 972 921 982 q 939 953 933 963 q 956 919 949 936 q 967 883 963 903 q 971 836 971 861 q 971 788 971 811 q 970 754 971 771 q 964 721 969 738 q 962 713 963 718 q 958 706 961 708 q 949 692 956 700 q 936 682 942 685 q 922 675 931 678 q 906 669 913 672 q 897 667 901 668 q 889 663 893 665 q 885 661 888 661 q 882 660 883 661 q 883 656 881 658 l 888 640 q 901 607 892 622 q 918 575 911 592 q 930 547 925 561 q 938 517 935 532 q 940 483 940 500 q 940 450 940 467 q 940 424 940 438 q 938 399 940 411 q 926 365 935 381 q 901 340 917 349 q 890 333 896 336 q 881 324 885 331 q 875 317 875 318 q 882 315 875 315 q 893 313 888 314 q 903 310 899 313 q 926 291 917 303 q 943 267 936 279 q 964 227 954 249 q 978 183 974 206 q 983 127 983 157 q 982 65 982 97 m 76 817 l 76 239 q 76 167 76 208 q 78 94 76 126 q 82 65 79 79 q 93 38 85 51 q 98 32 96 36 q 101 25 100 28 q 108 22 104 24 q 114 17 111 19 q 120 13 117 15 q 128 8 124 10 q 154 2 140 3 q 182 0 168 1 q 235 -1 203 -1 q 299 -1 267 -1 q 353 0 332 0 l 722 0 q 771 0 746 0 q 818 7 796 0 q 840 17 829 11 q 858 33 851 24 q 868 56 865 43 q 872 79 871 68 q 876 129 875 103 q 874 179 876 156 q 865 223 872 201 q 839 257 858 244 q 832 260 836 260 q 825 263 828 261 q 782 270 804 269 q 738 269 760 271 l 540 269 q 489 270 517 269 q 442 285 461 271 q 435 290 439 288 q 428 294 431 293 q 426 306 426 299 q 424 317 425 313 q 422 325 421 322 q 426 331 422 326 q 433 341 429 335 q 442 350 438 347 q 456 353 447 353 q 485 358 471 357 q 513 358 499 358 l 706 358 q 743 358 725 358 q 779 363 761 358 q 789 365 783 364 q 797 368 794 367 q 803 372 800 369 q 807 375 806 374 q 815 381 810 378 q 821 389 819 385 q 824 397 824 392 q 825 404 824 401 q 831 426 829 415 q 833 449 832 438 q 835 499 835 474 q 831 550 835 525 q 829 559 829 554 q 826 568 829 564 q 822 576 825 572 q 817 585 819 581 q 814 590 815 588 q 810 594 813 593 q 803 599 807 597 q 796 601 799 600 q 767 610 782 608 q 738 613 753 611 q 664 613 707 614 q 589 613 621 613 l 504 613 q 479 613 493 613 q 454 618 465 614 q 445 623 450 619 q 436 629 440 626 q 433 631 435 631 q 429 633 431 632 q 427 642 428 636 q 425 651 426 649 q 422 663 422 657 q 426 669 422 665 q 432 680 429 674 q 438 688 435 686 q 447 692 440 690 q 457 696 453 694 q 478 701 467 700 q 501 701 490 701 l 753 701 q 787 703 768 701 q 819 711 806 706 q 826 715 822 713 q 832 719 829 718 q 838 724 835 722 q 843 726 842 725 q 854 747 850 735 q 860 768 858 758 q 864 808 864 788 q 864 849 864 829 q 863 882 864 865 q 857 915 863 899 q 854 929 857 921 q 810 967 840 956 q 799 968 804 968 q 788 969 793 968 q 754 972 771 972 q 721 972 738 972 l 251 972 q 201 973 226 972 q 151 969 175 974 q 128 965 140 968 q 106 953 115 961 q 92 936 97 947 q 83 915 86 925 q 77 868 78 893 q 76 817 76 843 m 758 1157 q 717 1106 739 1131 q 674 1058 696 1082 q 644 1027 660 1043 q 610 1000 628 1011 q 552 978 589 983 q 478 974 515 974 q 421 975 442 975 q 369 977 396 975 q 319 989 343 979 q 286 1008 301 996 q 258 1032 271 1019 q 240 1051 249 1042 q 222 1069 231 1060 q 172 1128 199 1096 q 139 1192 144 1161 q 142 1238 135 1214 q 148 1259 144 1247 q 158 1278 151 1271 q 165 1283 161 1281 q 172 1288 169 1286 q 203 1301 188 1297 q 238 1308 219 1306 q 317 1315 269 1315 q 394 1304 364 1315 q 440 1290 418 1299 q 485 1278 463 1281 q 517 1278 500 1276 q 549 1283 533 1279 q 604 1297 576 1290 q 660 1307 632 1303 q 700 1313 679 1310 q 740 1314 721 1315 q 758 1311 750 1313 q 776 1307 767 1310 q 783 1306 779 1306 q 788 1304 786 1306 q 793 1297 790 1303 q 799 1289 796 1292 q 802 1285 800 1288 q 804 1281 804 1283 q 803 1265 806 1275 q 797 1240 801 1251 q 788 1215 793 1228 q 775 1187 782 1201 q 758 1157 768 1172 m 639 1274 q 557 1251 594 1267 q 514 1235 535 1243 q 469 1225 493 1226 q 419 1233 443 1224 q 372 1250 396 1242 q 325 1267 349 1260 q 275 1275 301 1274 q 246 1276 260 1276 q 217 1271 232 1276 q 210 1269 214 1269 q 203 1265 206 1268 q 197 1258 200 1264 q 192 1249 194 1251 l 188 1242 q 190 1231 188 1238 q 193 1221 192 1225 q 198 1209 194 1214 q 206 1197 201 1204 q 226 1173 215 1185 q 247 1150 238 1161 q 293 1100 269 1126 q 347 1058 317 1074 q 399 1044 371 1047 q 453 1042 426 1042 q 488 1042 471 1042 q 524 1043 506 1042 q 553 1049 539 1046 q 582 1060 568 1053 q 613 1081 599 1068 q 642 1108 628 1094 q 672 1140 657 1124 q 701 1174 688 1157 q 720 1194 710 1183 q 735 1217 731 1206 q 738 1224 738 1219 q 739 1232 738 1229 q 740 1240 739 1235 q 742 1247 742 1246 q 737 1254 740 1250 q 731 1260 733 1258 l 722 1269 q 715 1272 719 1271 q 707 1274 710 1272 q 675 1276 692 1276 q 639 1274 658 1276 z "},"Ê":{"ha":926,"x_min":15,"x_max":983,"o":"m 982 65 q 980 37 981 51 q 972 11 979 22 l 963 -1 q 958 -6 961 -3 q 953 -12 956 -10 q 940 -19 949 -17 q 906 -30 924 -28 q 869 -39 888 -32 q 856 -44 863 -40 q 842 -51 849 -49 q 816 -67 828 -58 q 789 -81 804 -75 q 751 -87 771 -86 q 711 -89 731 -89 l 275 -89 q 203 -90 244 -89 q 131 -89 163 -90 q 90 -84 111 -87 q 53 -67 69 -81 q 31 -35 39 -54 q 21 3 24 -15 q 16 56 17 24 q 16 122 15 89 q 17 175 17 154 l 17 767 q 17 822 17 794 q 21 875 17 849 q 33 936 24 903 q 64 988 42 969 q 97 1003 78 999 q 132 1010 115 1008 q 189 1017 160 1014 q 247 1019 218 1019 q 303 1019 260 1019 q 404 1019 346 1019 q 520 1019 463 1019 q 621 1019 578 1019 q 676 1019 664 1019 l 817 1019 q 869 1013 843 1018 q 914 989 894 1008 q 927 972 921 982 q 939 953 933 963 q 956 919 949 936 q 967 883 963 903 q 971 836 971 861 q 971 788 971 811 q 970 754 971 771 q 964 721 969 738 q 962 713 963 718 q 958 706 961 708 q 949 692 956 700 q 936 682 942 685 q 922 675 931 678 q 906 669 913 672 q 897 667 901 668 q 889 663 893 665 q 885 661 888 661 q 882 660 883 661 q 883 656 881 658 l 888 640 q 901 607 892 622 q 918 575 911 592 q 930 547 925 561 q 938 517 935 532 q 940 483 940 500 q 940 450 940 467 q 940 424 940 438 q 938 399 940 411 q 926 365 935 381 q 901 340 917 349 q 890 333 896 336 q 881 324 885 331 q 875 317 875 318 q 882 315 875 315 q 893 313 888 314 q 903 310 899 313 q 926 291 917 303 q 943 267 936 279 q 964 227 954 249 q 978 183 974 206 q 983 127 983 157 q 982 65 982 97 m 76 817 l 76 239 q 76 167 76 208 q 78 94 76 126 q 82 65 79 79 q 93 38 85 51 q 98 32 96 36 q 101 25 100 28 q 108 22 104 24 q 114 17 111 19 q 120 13 117 15 q 128 8 124 10 q 154 2 140 3 q 182 0 168 1 q 235 -1 203 -1 q 299 -1 267 -1 q 353 0 332 0 l 722 0 q 771 0 746 0 q 818 7 796 0 q 840 17 829 11 q 858 33 851 24 q 868 56 865 43 q 872 79 871 68 q 876 129 875 103 q 874 179 876 156 q 865 223 872 201 q 839 257 858 244 q 832 260 836 260 q 825 263 828 261 q 782 270 804 269 q 738 269 760 271 l 540 269 q 489 270 517 269 q 442 285 461 271 q 435 290 439 288 q 428 294 431 293 q 426 306 426 299 q 424 317 425 313 q 422 325 421 322 q 426 331 422 326 q 433 341 429 335 q 442 350 438 347 q 456 353 447 353 q 485 358 471 357 q 513 358 499 358 l 706 358 q 743 358 725 358 q 779 363 761 358 q 789 365 783 364 q 797 368 794 367 q 803 372 800 369 q 807 375 806 374 q 815 381 810 378 q 821 389 819 385 q 824 397 824 392 q 825 404 824 401 q 831 426 829 415 q 833 449 832 438 q 835 499 835 474 q 831 550 835 525 q 829 559 829 554 q 826 568 829 564 q 822 576 825 572 q 817 585 819 581 q 814 590 815 588 q 810 594 813 593 q 803 599 807 597 q 796 601 799 600 q 767 610 782 608 q 738 613 753 611 q 664 613 707 614 q 589 613 621 613 l 504 613 q 479 613 493 613 q 454 618 465 614 q 445 623 450 619 q 436 629 440 626 q 433 631 435 631 q 429 633 431 632 q 427 642 428 636 q 425 651 426 649 q 422 663 422 657 q 426 669 422 665 q 432 680 429 674 q 438 688 435 686 q 447 692 440 690 q 457 696 453 694 q 478 701 467 700 q 501 701 490 701 l 753 701 q 787 703 768 701 q 819 711 806 706 q 826 715 822 713 q 832 719 829 718 q 838 724 835 722 q 843 726 842 725 q 854 747 850 735 q 860 768 858 758 q 864 808 864 788 q 864 849 864 829 q 863 882 864 865 q 857 915 863 899 q 854 929 857 921 q 810 967 840 956 q 799 968 804 968 q 788 969 793 968 q 754 972 771 972 q 721 972 738 972 l 251 972 q 201 973 226 972 q 151 969 175 974 q 128 965 140 968 q 106 953 115 961 q 92 936 97 947 q 83 915 86 925 q 77 868 78 893 q 76 817 76 843 m 725 969 q 666 973 694 969 q 610 986 638 976 q 575 1001 592 993 q 542 1015 558 1008 q 518 1024 531 1019 q 493 1028 506 1028 q 472 1023 483 1026 q 449 1015 460 1019 q 413 999 431 1008 q 378 983 396 990 q 328 972 353 974 q 276 969 303 969 q 253 970 265 969 q 229 975 240 971 q 208 986 218 979 q 188 999 199 993 q 160 1013 174 1004 q 153 1015 157 1014 q 146 1019 149 1017 q 142 1026 144 1022 q 138 1032 140 1029 q 133 1038 136 1035 q 129 1044 131 1042 q 129 1054 128 1049 q 131 1064 131 1060 q 147 1109 133 1088 q 172 1149 160 1131 q 208 1193 188 1172 q 247 1235 228 1214 q 311 1297 275 1267 q 378 1342 347 1328 q 408 1347 393 1346 q 436 1350 422 1349 q 478 1351 457 1351 q 518 1350 499 1350 q 553 1349 535 1350 q 586 1344 571 1349 q 648 1303 618 1335 q 703 1244 678 1272 q 735 1211 718 1228 q 765 1175 751 1194 q 773 1162 768 1169 q 779 1147 778 1154 q 781 1140 781 1144 q 781 1132 781 1135 q 780 1093 782 1113 q 779 1054 778 1074 q 783 1032 781 1043 q 783 1010 785 1021 q 784 1003 783 1007 q 783 996 785 999 q 775 988 781 990 q 763 975 769 981 q 758 974 761 974 q 751 974 754 974 l 725 969 m 714 1132 l 643 1211 q 615 1240 629 1226 q 582 1264 600 1254 q 544 1274 564 1272 q 506 1278 525 1276 l 419 1278 q 382 1274 401 1276 q 346 1264 363 1272 q 313 1241 328 1256 q 285 1211 299 1226 q 244 1167 264 1189 q 204 1121 224 1144 q 198 1114 201 1118 q 192 1106 194 1110 q 188 1098 189 1103 q 185 1089 186 1093 q 182 1084 183 1088 q 181 1078 181 1081 q 184 1070 181 1075 q 189 1063 188 1065 q 193 1058 192 1061 q 196 1053 194 1054 q 203 1050 199 1051 q 210 1047 207 1049 q 237 1042 224 1043 q 264 1043 250 1042 q 319 1051 293 1044 q 372 1068 346 1057 q 414 1086 392 1076 q 458 1097 436 1096 q 519 1085 490 1100 q 578 1060 549 1071 q 678 1043 626 1042 q 715 1047 697 1043 q 722 1047 718 1047 q 726 1049 725 1047 q 732 1055 729 1051 q 736 1061 735 1058 q 741 1067 738 1064 q 746 1072 744 1071 q 744 1080 746 1075 q 742 1088 743 1085 q 740 1094 740 1090 q 738 1101 740 1099 q 728 1117 735 1108 q 714 1132 721 1125 z "},"Ë":{"ha":926,"x_min":15,"x_max":983,"o":"m 982 65 q 980 37 981 51 q 972 11 979 22 l 963 -1 q 958 -6 961 -3 q 953 -12 956 -10 q 940 -19 949 -17 q 906 -30 924 -28 q 869 -39 888 -32 q 856 -44 863 -40 q 842 -51 849 -49 q 816 -67 828 -58 q 789 -81 804 -75 q 751 -87 771 -86 q 711 -89 731 -89 l 275 -89 q 203 -90 244 -89 q 131 -89 163 -90 q 90 -84 111 -87 q 53 -67 69 -81 q 31 -35 39 -54 q 21 3 24 -15 q 16 56 17 24 q 16 122 15 89 q 17 175 17 154 l 17 767 q 17 822 17 794 q 21 875 17 849 q 33 936 24 903 q 64 988 42 969 q 97 1003 78 999 q 132 1010 115 1008 q 189 1017 160 1014 q 247 1019 218 1019 q 303 1019 260 1019 q 404 1019 346 1019 q 520 1019 463 1019 q 621 1019 578 1019 q 676 1019 664 1019 l 817 1019 q 869 1013 843 1018 q 914 989 894 1008 q 927 972 921 982 q 939 953 933 963 q 956 919 949 936 q 967 883 963 903 q 971 836 971 861 q 971 788 971 811 q 970 754 971 771 q 964 721 969 738 q 962 713 963 718 q 958 706 961 708 q 949 692 956 700 q 936 682 942 685 q 922 675 931 678 q 906 669 913 672 q 897 667 901 668 q 889 663 893 665 q 885 661 888 661 q 882 660 883 661 q 883 656 881 658 l 888 640 q 901 607 892 622 q 918 575 911 592 q 930 547 925 561 q 938 517 935 532 q 940 483 940 500 q 940 450 940 467 q 940 424 940 438 q 938 399 940 411 q 926 365 935 381 q 901 340 917 349 q 890 333 896 336 q 881 324 885 331 q 875 317 875 318 q 882 315 875 315 q 893 313 888 314 q 903 310 899 313 q 926 291 917 303 q 943 267 936 279 q 964 227 954 249 q 978 183 974 206 q 983 127 983 157 q 982 65 982 97 m 76 817 l 76 239 q 76 167 76 208 q 78 94 76 126 q 82 65 79 79 q 93 38 85 51 q 98 32 96 36 q 101 25 100 28 q 108 22 104 24 q 114 17 111 19 q 120 13 117 15 q 128 8 124 10 q 154 2 140 3 q 182 0 168 1 q 235 -1 203 -1 q 299 -1 267 -1 q 353 0 332 0 l 722 0 q 771 0 746 0 q 818 7 796 0 q 840 17 829 11 q 858 33 851 24 q 868 56 865 43 q 872 79 871 68 q 876 129 875 103 q 874 179 876 156 q 865 223 872 201 q 839 257 858 244 q 832 260 836 260 q 825 263 828 261 q 782 270 804 269 q 738 269 760 271 l 540 269 q 489 270 517 269 q 442 285 461 271 q 435 290 439 288 q 428 294 431 293 q 426 306 426 299 q 424 317 425 313 q 422 325 421 322 q 426 331 422 326 q 433 341 429 335 q 442 350 438 347 q 456 353 447 353 q 485 358 471 357 q 513 358 499 358 l 706 358 q 743 358 725 358 q 779 363 761 358 q 789 365 783 364 q 797 368 794 367 q 803 372 800 369 q 807 375 806 374 q 815 381 810 378 q 821 389 819 385 q 824 397 824 392 q 825 404 824 401 q 831 426 829 415 q 833 449 832 438 q 835 499 835 474 q 831 550 835 525 q 829 559 829 554 q 826 568 829 564 q 822 576 825 572 q 817 585 819 581 q 814 590 815 588 q 810 594 813 593 q 803 599 807 597 q 796 601 799 600 q 767 610 782 608 q 738 613 753 611 q 664 613 707 614 q 589 613 621 613 l 504 613 q 479 613 493 613 q 454 618 465 614 q 445 623 450 619 q 436 629 440 626 q 433 631 435 631 q 429 633 431 632 q 427 642 428 636 q 425 651 426 649 q 422 663 422 657 q 426 669 422 665 q 432 680 429 674 q 438 688 435 686 q 447 692 440 690 q 457 696 453 694 q 478 701 467 700 q 501 701 490 701 l 753 701 q 787 703 768 701 q 819 711 806 706 q 826 715 822 713 q 832 719 829 718 q 838 724 835 722 q 843 726 842 725 q 854 747 850 735 q 860 768 858 758 q 864 808 864 788 q 864 849 864 829 q 863 882 864 865 q 857 915 863 899 q 854 929 857 921 q 810 967 840 956 q 799 968 804 968 q 788 969 793 968 q 754 972 771 972 q 721 972 738 972 l 251 972 q 201 973 226 972 q 151 969 175 974 q 128 965 140 968 q 106 953 115 961 q 92 936 97 947 q 83 915 86 925 q 77 868 78 893 q 76 817 76 843 m 817 1124 q 804 1063 814 1093 q 771 1008 794 1033 q 753 992 763 1000 q 732 979 743 983 q 692 972 714 972 q 650 972 669 972 q 599 978 622 972 q 592 979 596 979 q 585 981 588 979 q 551 1010 563 992 q 524 1047 539 1029 q 501 1068 514 1058 q 482 1090 489 1078 q 474 1113 476 1101 q 471 1136 472 1125 q 469 1172 469 1154 q 471 1207 469 1190 q 476 1237 472 1222 q 488 1264 479 1251 q 502 1282 493 1274 q 519 1296 511 1290 q 551 1317 535 1307 q 586 1333 568 1328 q 627 1341 606 1340 q 669 1342 649 1342 q 717 1340 692 1342 q 763 1325 743 1339 q 786 1299 776 1315 q 801 1267 796 1282 q 817 1197 814 1236 q 817 1124 819 1157 m 438 1081 q 413 1028 428 1054 q 372 986 397 1001 q 322 974 350 975 q 271 972 294 972 q 232 976 253 974 q 196 992 211 979 q 176 1014 183 1000 q 160 1039 169 1028 q 144 1055 153 1047 q 125 1071 135 1063 q 120 1076 124 1074 q 114 1081 117 1078 q 111 1088 113 1083 q 108 1094 110 1092 q 97 1138 99 1115 q 96 1183 96 1161 q 97 1206 96 1194 q 99 1228 97 1217 q 103 1242 100 1235 q 107 1256 106 1250 q 132 1285 117 1272 q 163 1307 147 1297 q 195 1326 178 1318 q 231 1338 213 1333 q 269 1341 250 1340 q 306 1342 288 1342 q 357 1338 331 1342 q 401 1315 383 1335 q 416 1295 410 1307 q 426 1272 422 1283 q 442 1215 439 1251 q 444 1141 446 1178 q 438 1081 443 1104 m 256 1232 l 260 1249 q 261 1253 260 1251 q 261 1257 263 1256 q 254 1261 260 1258 q 247 1268 251 1264 q 239 1274 242 1272 q 233 1274 238 1275 q 226 1272 229 1272 q 217 1271 222 1271 q 207 1269 211 1271 q 165 1226 178 1258 q 161 1182 158 1206 q 160 1174 161 1179 q 161 1167 160 1169 q 165 1163 163 1165 q 169 1158 168 1160 q 174 1152 171 1157 q 179 1146 178 1147 q 184 1147 182 1146 q 188 1150 186 1149 q 194 1155 190 1153 q 201 1158 197 1157 q 210 1167 207 1161 q 218 1178 214 1172 q 237 1203 228 1190 q 256 1232 246 1217 m 629 1232 l 633 1249 q 635 1253 633 1251 q 635 1257 636 1256 q 628 1261 633 1258 q 620 1268 625 1264 q 613 1274 615 1272 q 607 1274 611 1275 q 600 1272 603 1272 q 590 1271 596 1271 q 581 1269 585 1271 q 539 1226 551 1258 q 535 1182 532 1206 q 534 1174 535 1179 q 535 1167 533 1169 q 539 1163 536 1165 q 543 1158 542 1160 q 548 1152 544 1157 q 553 1146 551 1147 q 558 1147 556 1146 q 561 1150 560 1149 q 567 1155 564 1153 q 575 1158 571 1157 q 584 1167 581 1161 q 592 1178 588 1172 q 610 1203 601 1190 q 629 1232 619 1217 m 269 1151 q 250 1124 260 1138 q 233 1094 240 1110 q 230 1087 232 1092 q 228 1079 228 1082 q 230 1074 228 1076 q 233 1068 232 1071 q 238 1060 236 1065 q 240 1053 239 1056 q 251 1050 246 1050 q 276 1043 265 1043 q 310 1043 293 1042 q 343 1050 326 1044 l 357 1054 q 365 1061 361 1057 q 371 1069 368 1065 q 376 1074 374 1071 q 381 1078 379 1076 q 385 1088 383 1082 q 388 1099 386 1093 q 393 1126 393 1111 q 394 1154 393 1140 q 394 1178 394 1165 q 390 1203 393 1192 q 388 1214 389 1207 q 383 1225 386 1221 q 378 1230 382 1228 q 371 1233 374 1232 q 361 1240 364 1240 q 356 1240 360 1242 q 349 1238 351 1238 q 337 1233 342 1235 q 326 1224 332 1231 q 298 1189 311 1207 q 269 1151 285 1171 m 643 1151 q 624 1124 633 1138 q 607 1094 614 1110 q 603 1087 606 1092 q 601 1079 601 1082 q 603 1074 601 1076 q 607 1068 606 1071 q 611 1060 610 1065 q 614 1053 613 1056 q 625 1050 619 1050 q 650 1043 639 1043 q 683 1043 667 1042 q 717 1050 700 1044 l 731 1054 q 738 1061 735 1057 q 744 1069 742 1065 q 750 1074 747 1071 q 754 1078 753 1076 q 758 1088 757 1082 q 761 1099 760 1093 q 767 1126 767 1111 q 768 1154 767 1140 q 767 1178 768 1165 q 764 1203 767 1192 q 761 1214 763 1207 q 757 1225 760 1221 q 751 1230 756 1228 q 744 1233 747 1232 q 735 1240 738 1240 q 729 1240 733 1242 q 722 1238 725 1238 q 710 1233 715 1235 q 700 1224 706 1231 q 672 1189 685 1207 q 643 1151 658 1171 z "},"Ė":{"ha":926,"x_min":15,"x_max":983,"o":"m 982 65 q 980 37 981 51 q 972 11 979 22 l 963 -1 q 958 -6 961 -3 q 953 -12 956 -10 q 940 -19 949 -17 q 906 -30 924 -28 q 869 -39 888 -32 q 856 -44 863 -40 q 842 -51 849 -49 q 816 -67 828 -58 q 789 -81 804 -75 q 751 -87 771 -86 q 711 -89 731 -89 l 275 -89 q 203 -90 244 -89 q 131 -89 163 -90 q 90 -84 111 -87 q 53 -67 69 -81 q 31 -35 39 -54 q 21 3 24 -15 q 16 56 17 24 q 16 122 15 89 q 17 175 17 154 l 17 767 q 17 822 17 794 q 21 875 17 849 q 33 936 24 903 q 64 988 42 969 q 97 1003 78 999 q 132 1010 115 1008 q 189 1017 160 1014 q 247 1019 218 1019 q 303 1019 260 1019 q 404 1019 346 1019 q 520 1019 463 1019 q 621 1019 578 1019 q 676 1019 664 1019 l 817 1019 q 869 1013 843 1018 q 914 989 894 1008 q 927 972 921 982 q 939 953 933 963 q 956 919 949 936 q 967 883 963 903 q 971 836 971 861 q 971 788 971 811 q 970 754 971 771 q 964 721 969 738 q 962 713 963 718 q 958 706 961 708 q 949 692 956 700 q 936 682 942 685 q 922 675 931 678 q 906 669 913 672 q 897 667 901 668 q 889 663 893 665 q 885 661 888 661 q 882 660 883 661 q 883 656 881 658 l 888 640 q 901 607 892 622 q 918 575 911 592 q 930 547 925 561 q 938 517 935 532 q 940 483 940 500 q 940 450 940 467 q 940 424 940 438 q 938 399 940 411 q 926 365 935 381 q 901 340 917 349 q 890 333 896 336 q 881 324 885 331 q 875 317 875 318 q 882 315 875 315 q 893 313 888 314 q 903 310 899 313 q 926 291 917 303 q 943 267 936 279 q 964 227 954 249 q 978 183 974 206 q 983 127 983 157 q 982 65 982 97 m 76 817 l 76 239 q 76 167 76 208 q 78 94 76 126 q 82 65 79 79 q 93 38 85 51 q 98 32 96 36 q 101 25 100 28 q 108 22 104 24 q 114 17 111 19 q 120 13 117 15 q 128 8 124 10 q 154 2 140 3 q 182 0 168 1 q 235 -1 203 -1 q 299 -1 267 -1 q 353 0 332 0 l 722 0 q 771 0 746 0 q 818 7 796 0 q 840 17 829 11 q 858 33 851 24 q 868 56 865 43 q 872 79 871 68 q 876 129 875 103 q 874 179 876 156 q 865 223 872 201 q 839 257 858 244 q 832 260 836 260 q 825 263 828 261 q 782 270 804 269 q 738 269 760 271 l 540 269 q 489 270 517 269 q 442 285 461 271 q 435 290 439 288 q 428 294 431 293 q 426 306 426 299 q 424 317 425 313 q 422 325 421 322 q 426 331 422 326 q 433 341 429 335 q 442 350 438 347 q 456 353 447 353 q 485 358 471 357 q 513 358 499 358 l 706 358 q 743 358 725 358 q 779 363 761 358 q 789 365 783 364 q 797 368 794 367 q 803 372 800 369 q 807 375 806 374 q 815 381 810 378 q 821 389 819 385 q 824 397 824 392 q 825 404 824 401 q 831 426 829 415 q 833 449 832 438 q 835 499 835 474 q 831 550 835 525 q 829 559 829 554 q 826 568 829 564 q 822 576 825 572 q 817 585 819 581 q 814 590 815 588 q 810 594 813 593 q 803 599 807 597 q 796 601 799 600 q 767 610 782 608 q 738 613 753 611 q 664 613 707 614 q 589 613 621 613 l 504 613 q 479 613 493 613 q 454 618 465 614 q 445 623 450 619 q 436 629 440 626 q 433 631 435 631 q 429 633 431 632 q 427 642 428 636 q 425 651 426 649 q 422 663 422 657 q 426 669 422 665 q 432 680 429 674 q 438 688 435 686 q 447 692 440 690 q 457 696 453 694 q 478 701 467 700 q 501 701 490 701 l 753 701 q 787 703 768 701 q 819 711 806 706 q 826 715 822 713 q 832 719 829 718 q 838 724 835 722 q 843 726 842 725 q 854 747 850 735 q 860 768 858 758 q 864 808 864 788 q 864 849 864 829 q 863 882 864 865 q 857 915 863 899 q 854 929 857 921 q 810 967 840 956 q 799 968 804 968 q 788 969 793 968 q 754 972 771 972 q 721 972 738 972 l 251 972 q 201 973 226 972 q 151 969 175 974 q 128 965 140 968 q 106 953 115 961 q 92 936 97 947 q 83 915 86 925 q 77 868 78 893 q 76 817 76 843 m 636 1029 q 625 1022 631 1026 q 613 1015 619 1018 q 603 1014 608 1014 q 593 1013 599 1014 q 560 1010 578 1011 q 526 1010 543 1010 q 460 1011 496 1010 q 393 1018 425 1013 q 362 1024 378 1021 q 331 1033 346 1028 q 324 1038 328 1036 q 317 1040 319 1039 q 313 1047 315 1043 q 308 1053 311 1050 q 304 1058 307 1056 q 300 1064 301 1061 q 293 1090 294 1076 q 290 1118 292 1104 q 290 1180 289 1149 q 296 1240 290 1211 q 302 1265 299 1253 q 310 1289 306 1276 q 320 1315 314 1303 q 336 1339 326 1328 q 341 1345 339 1342 q 346 1350 343 1349 q 353 1353 349 1353 q 360 1356 357 1354 q 400 1364 379 1363 q 442 1365 421 1365 q 483 1365 461 1365 q 524 1358 506 1365 q 561 1334 547 1351 q 592 1299 575 1317 q 624 1269 607 1283 q 651 1233 642 1254 q 660 1197 658 1217 q 663 1160 661 1178 l 663 1097 q 660 1076 661 1088 q 657 1057 660 1065 q 636 1029 650 1043 m 568 1063 q 576 1074 571 1068 q 583 1086 581 1081 q 588 1105 586 1094 q 589 1125 589 1115 q 590 1160 590 1143 q 590 1196 590 1178 q 589 1222 590 1210 q 583 1247 588 1235 q 581 1254 582 1250 q 578 1261 581 1258 q 554 1282 568 1274 q 544 1286 550 1285 q 532 1289 538 1288 q 507 1294 521 1293 q 481 1294 493 1294 q 438 1295 460 1294 q 396 1289 415 1296 q 385 1288 390 1288 q 376 1285 381 1288 q 365 1274 369 1281 q 354 1264 357 1268 q 344 1242 347 1254 q 340 1218 342 1229 q 338 1190 339 1204 q 338 1163 338 1176 q 338 1135 338 1149 q 340 1107 339 1121 q 342 1097 342 1101 q 344 1088 343 1092 q 349 1079 346 1083 q 354 1072 353 1075 q 357 1068 356 1071 q 360 1063 358 1065 q 366 1060 363 1061 q 371 1057 369 1058 q 389 1050 381 1053 q 407 1044 397 1047 q 463 1040 433 1040 q 518 1043 492 1040 q 543 1049 529 1044 q 568 1063 557 1053 z "},"È":{"ha":926,"x_min":15,"x_max":983,"o":"m 982 65 q 980 37 981 51 q 972 11 979 22 l 963 -1 q 958 -6 961 -3 q 953 -12 956 -10 q 940 -19 949 -17 q 906 -30 924 -28 q 869 -39 888 -32 q 856 -44 863 -40 q 842 -51 849 -49 q 816 -67 828 -58 q 789 -81 804 -75 q 751 -87 771 -86 q 711 -89 731 -89 l 275 -89 q 203 -90 244 -89 q 131 -89 163 -90 q 90 -84 111 -87 q 53 -67 69 -81 q 31 -35 39 -54 q 21 3 24 -15 q 16 56 17 24 q 16 122 15 89 q 17 175 17 154 l 17 767 q 17 822 17 794 q 21 875 17 849 q 33 936 24 903 q 64 988 42 969 q 97 1003 78 999 q 132 1010 115 1008 q 189 1017 160 1014 q 247 1019 218 1019 q 303 1019 260 1019 q 404 1019 346 1019 q 520 1019 463 1019 q 621 1019 578 1019 q 676 1019 664 1019 l 817 1019 q 869 1013 843 1018 q 914 989 894 1008 q 927 972 921 982 q 939 953 933 963 q 956 919 949 936 q 967 883 963 903 q 971 836 971 861 q 971 788 971 811 q 970 754 971 771 q 964 721 969 738 q 962 713 963 718 q 958 706 961 708 q 949 692 956 700 q 936 682 942 685 q 922 675 931 678 q 906 669 913 672 q 897 667 901 668 q 889 663 893 665 q 885 661 888 661 q 882 660 883 661 q 883 656 881 658 l 888 640 q 901 607 892 622 q 918 575 911 592 q 930 547 925 561 q 938 517 935 532 q 940 483 940 500 q 940 450 940 467 q 940 424 940 438 q 938 399 940 411 q 926 365 935 381 q 901 340 917 349 q 890 333 896 336 q 881 324 885 331 q 875 317 875 318 q 882 315 875 315 q 893 313 888 314 q 903 310 899 313 q 926 291 917 303 q 943 267 936 279 q 964 227 954 249 q 978 183 974 206 q 983 127 983 157 q 982 65 982 97 m 76 817 l 76 239 q 76 167 76 208 q 78 94 76 126 q 82 65 79 79 q 93 38 85 51 q 98 32 96 36 q 101 25 100 28 q 108 22 104 24 q 114 17 111 19 q 120 13 117 15 q 128 8 124 10 q 154 2 140 3 q 182 0 168 1 q 235 -1 203 -1 q 299 -1 267 -1 q 353 0 332 0 l 722 0 q 771 0 746 0 q 818 7 796 0 q 840 17 829 11 q 858 33 851 24 q 868 56 865 43 q 872 79 871 68 q 876 129 875 103 q 874 179 876 156 q 865 223 872 201 q 839 257 858 244 q 832 260 836 260 q 825 263 828 261 q 782 270 804 269 q 738 269 760 271 l 540 269 q 489 270 517 269 q 442 285 461 271 q 435 290 439 288 q 428 294 431 293 q 426 306 426 299 q 424 317 425 313 q 422 325 421 322 q 426 331 422 326 q 433 341 429 335 q 442 350 438 347 q 456 353 447 353 q 485 358 471 357 q 513 358 499 358 l 706 358 q 743 358 725 358 q 779 363 761 358 q 789 365 783 364 q 797 368 794 367 q 803 372 800 369 q 807 375 806 374 q 815 381 810 378 q 821 389 819 385 q 824 397 824 392 q 825 404 824 401 q 831 426 829 415 q 833 449 832 438 q 835 499 835 474 q 831 550 835 525 q 829 559 829 554 q 826 568 829 564 q 822 576 825 572 q 817 585 819 581 q 814 590 815 588 q 810 594 813 593 q 803 599 807 597 q 796 601 799 600 q 767 610 782 608 q 738 613 753 611 q 664 613 707 614 q 589 613 621 613 l 504 613 q 479 613 493 613 q 454 618 465 614 q 445 623 450 619 q 436 629 440 626 q 433 631 435 631 q 429 633 431 632 q 427 642 428 636 q 425 651 426 649 q 422 663 422 657 q 426 669 422 665 q 432 680 429 674 q 438 688 435 686 q 447 692 440 690 q 457 696 453 694 q 478 701 467 700 q 501 701 490 701 l 753 701 q 787 703 768 701 q 819 711 806 706 q 826 715 822 713 q 832 719 829 718 q 838 724 835 722 q 843 726 842 725 q 854 747 850 735 q 860 768 858 758 q 864 808 864 788 q 864 849 864 829 q 863 882 864 865 q 857 915 863 899 q 854 929 857 921 q 810 967 840 956 q 799 968 804 968 q 788 969 793 968 q 754 972 771 972 q 721 972 738 972 l 251 972 q 201 973 226 972 q 151 969 175 974 q 128 965 140 968 q 106 953 115 961 q 92 936 97 947 q 83 915 86 925 q 77 868 78 893 q 76 817 76 843 m 515 988 q 454 986 485 986 q 392 986 424 986 q 338 989 365 986 q 285 1004 310 992 q 253 1022 268 1011 q 225 1044 239 1033 l 157 1100 q 119 1131 139 1115 q 88 1168 99 1147 q 82 1176 86 1171 q 78 1185 78 1181 q 77 1191 76 1188 q 78 1196 78 1194 q 78 1206 78 1200 q 79 1215 78 1211 q 82 1221 81 1218 q 85 1225 83 1224 q 93 1238 89 1232 q 103 1250 97 1244 q 130 1278 115 1264 q 161 1301 144 1293 q 190 1311 175 1308 q 221 1315 206 1314 q 292 1317 253 1318 q 361 1317 331 1317 q 426 1314 393 1317 q 486 1292 460 1311 q 519 1261 504 1279 q 547 1226 533 1243 q 571 1199 558 1213 q 594 1169 583 1185 q 609 1149 601 1160 q 622 1125 617 1138 q 629 1108 626 1118 q 633 1090 632 1099 q 639 1072 636 1081 q 643 1054 642 1064 q 644 1047 643 1051 q 646 1039 646 1043 q 644 1032 646 1036 q 642 1025 643 1028 q 640 1017 640 1022 q 638 1010 640 1013 q 633 1007 636 1008 q 628 1004 631 1006 q 616 997 622 1000 q 601 993 610 994 q 560 990 581 990 q 515 988 539 989 m 233 1144 q 291 1097 261 1122 q 351 1057 321 1072 q 420 1042 383 1043 q 488 1042 457 1042 q 513 1042 500 1042 q 539 1043 526 1042 q 549 1044 543 1044 q 557 1046 554 1044 q 565 1051 561 1047 q 571 1056 568 1054 q 583 1064 579 1060 q 585 1070 585 1067 q 585 1075 585 1074 q 586 1084 585 1079 q 586 1093 588 1089 q 581 1106 585 1100 q 575 1117 578 1111 q 559 1141 569 1129 q 540 1164 549 1153 q 509 1203 525 1183 q 474 1239 493 1222 q 450 1256 463 1249 q 422 1268 438 1264 q 374 1277 400 1276 q 324 1278 347 1278 l 231 1278 q 203 1276 217 1278 q 175 1269 189 1275 q 167 1267 172 1268 q 160 1264 163 1267 q 156 1258 158 1263 q 153 1250 154 1253 q 150 1245 151 1249 q 149 1239 149 1242 q 149 1235 147 1238 q 151 1229 151 1232 q 167 1203 157 1214 q 199 1174 182 1188 q 233 1144 215 1160 z "},"Ē":{"ha":926,"x_min":15,"x_max":983,"o":"m 982 65 q 980 37 981 51 q 972 11 979 22 l 963 -1 q 958 -6 961 -3 q 953 -12 956 -10 q 940 -19 949 -17 q 906 -30 924 -28 q 869 -39 888 -32 q 856 -44 863 -40 q 842 -51 849 -49 q 816 -67 828 -58 q 789 -81 804 -75 q 751 -87 771 -86 q 711 -89 731 -89 l 275 -89 q 203 -90 244 -89 q 131 -89 163 -90 q 90 -84 111 -87 q 53 -67 69 -81 q 31 -35 39 -54 q 21 3 24 -15 q 16 56 17 24 q 16 122 15 89 q 17 175 17 154 l 17 767 q 17 822 17 794 q 21 875 17 849 q 33 936 24 903 q 64 988 42 969 q 97 1003 78 999 q 132 1010 115 1008 q 189 1017 160 1014 q 247 1019 218 1019 q 303 1019 260 1019 q 404 1019 346 1019 q 520 1019 463 1019 q 621 1019 578 1019 q 676 1019 664 1019 l 817 1019 q 869 1013 843 1018 q 914 989 894 1008 q 927 972 921 982 q 939 953 933 963 q 956 919 949 936 q 967 883 963 903 q 971 836 971 861 q 971 788 971 811 q 970 754 971 771 q 964 721 969 738 q 962 713 963 718 q 958 706 961 708 q 949 692 956 700 q 936 682 942 685 q 922 675 931 678 q 906 669 913 672 q 897 667 901 668 q 889 663 893 665 q 885 661 888 661 q 882 660 883 661 q 883 656 881 658 l 888 640 q 901 607 892 622 q 918 575 911 592 q 930 547 925 561 q 938 517 935 532 q 940 483 940 500 q 940 450 940 467 q 940 424 940 438 q 938 399 940 411 q 926 365 935 381 q 901 340 917 349 q 890 333 896 336 q 881 324 885 331 q 875 317 875 318 q 882 315 875 315 q 893 313 888 314 q 903 310 899 313 q 926 291 917 303 q 943 267 936 279 q 964 227 954 249 q 978 183 974 206 q 983 127 983 157 q 982 65 982 97 m 76 817 l 76 239 q 76 167 76 208 q 78 94 76 126 q 82 65 79 79 q 93 38 85 51 q 98 32 96 36 q 101 25 100 28 q 108 22 104 24 q 114 17 111 19 q 120 13 117 15 q 128 8 124 10 q 154 2 140 3 q 182 0 168 1 q 235 -1 203 -1 q 299 -1 267 -1 q 353 0 332 0 l 722 0 q 771 0 746 0 q 818 7 796 0 q 840 17 829 11 q 858 33 851 24 q 868 56 865 43 q 872 79 871 68 q 876 129 875 103 q 874 179 876 156 q 865 223 872 201 q 839 257 858 244 q 832 260 836 260 q 825 263 828 261 q 782 270 804 269 q 738 269 760 271 l 540 269 q 489 270 517 269 q 442 285 461 271 q 435 290 439 288 q 428 294 431 293 q 426 306 426 299 q 424 317 425 313 q 422 325 421 322 q 426 331 422 326 q 433 341 429 335 q 442 350 438 347 q 456 353 447 353 q 485 358 471 357 q 513 358 499 358 l 706 358 q 743 358 725 358 q 779 363 761 358 q 789 365 783 364 q 797 368 794 367 q 803 372 800 369 q 807 375 806 374 q 815 381 810 378 q 821 389 819 385 q 824 397 824 392 q 825 404 824 401 q 831 426 829 415 q 833 449 832 438 q 835 499 835 474 q 831 550 835 525 q 829 559 829 554 q 826 568 829 564 q 822 576 825 572 q 817 585 819 581 q 814 590 815 588 q 810 594 813 593 q 803 599 807 597 q 796 601 799 600 q 767 610 782 608 q 738 613 753 611 q 664 613 707 614 q 589 613 621 613 l 504 613 q 479 613 493 613 q 454 618 465 614 q 445 623 450 619 q 436 629 440 626 q 433 631 435 631 q 429 633 431 632 q 427 642 428 636 q 425 651 426 649 q 422 663 422 657 q 426 669 422 665 q 432 680 429 674 q 438 688 435 686 q 447 692 440 690 q 457 696 453 694 q 478 701 467 700 q 501 701 490 701 l 753 701 q 787 703 768 701 q 819 711 806 706 q 826 715 822 713 q 832 719 829 718 q 838 724 835 722 q 843 726 842 725 q 854 747 850 735 q 860 768 858 758 q 864 808 864 788 q 864 849 864 829 q 863 882 864 865 q 857 915 863 899 q 854 929 857 921 q 810 967 840 956 q 799 968 804 968 q 788 969 793 968 q 754 972 771 972 q 721 972 738 972 l 251 972 q 201 973 226 972 q 151 969 175 974 q 128 965 140 968 q 106 953 115 961 q 92 936 97 947 q 83 915 86 925 q 77 868 78 893 q 76 817 76 843 m 799 1094 q 791 1069 796 1082 q 775 1046 786 1056 q 753 1034 765 1038 q 728 1029 740 1031 q 671 1025 700 1024 q 614 1026 642 1026 l 410 1026 q 332 1026 379 1026 q 253 1031 285 1026 l 175 1039 q 149 1042 163 1042 q 124 1049 135 1043 q 88 1090 96 1063 q 81 1143 81 1117 q 81 1163 81 1153 q 83 1183 82 1174 q 93 1211 86 1197 q 111 1235 100 1225 q 137 1249 122 1243 q 164 1261 151 1254 q 200 1288 183 1272 q 236 1313 217 1303 q 272 1321 253 1319 q 310 1324 292 1322 l 649 1324 q 702 1324 675 1324 q 753 1313 729 1324 q 760 1310 756 1311 q 767 1306 764 1308 q 790 1277 782 1294 q 799 1242 797 1260 q 801 1204 801 1224 q 801 1165 801 1185 q 801 1131 801 1149 q 799 1094 801 1114 m 756 1090 q 758 1141 757 1115 q 756 1192 758 1167 q 746 1224 754 1208 l 742 1235 q 735 1238 740 1238 q 728 1240 731 1239 q 715 1247 719 1246 q 706 1249 711 1249 q 696 1249 701 1249 q 671 1250 683 1250 q 644 1250 658 1250 l 246 1250 q 200 1240 219 1250 q 193 1238 197 1239 q 186 1235 189 1238 q 183 1230 185 1233 q 181 1224 182 1226 q 176 1216 179 1221 q 172 1207 174 1211 q 170 1193 171 1201 q 169 1178 169 1185 q 169 1139 168 1158 q 171 1100 169 1119 q 179 1071 172 1086 q 181 1066 181 1069 q 183 1061 182 1063 q 196 1053 188 1056 q 202 1049 199 1051 q 208 1044 206 1046 q 217 1043 213 1043 q 226 1043 222 1043 q 258 1042 242 1042 q 290 1042 275 1042 l 671 1042 q 693 1042 681 1042 q 715 1046 706 1042 q 728 1051 721 1049 q 742 1057 736 1053 q 743 1060 743 1058 q 744 1063 743 1061 q 751 1074 747 1068 q 756 1090 756 1081 z "},"Ę":{"ha":926,"x_min":29,"x_max":968,"o":"m 749 972 l 232 972 q 178 973 206 972 q 128 965 151 974 q 107 956 118 963 q 89 939 96 950 q 81 918 83 931 q 78 893 79 906 q 76 845 76 878 q 76 774 76 813 q 76 703 76 736 q 76 656 76 671 l 76 144 q 77 118 76 131 q 76 92 78 106 q 75 83 75 88 q 75 72 75 78 q 74 65 75 68 q 69 62 72 64 q 65 57 67 60 q 60 52 64 56 q 56 50 57 49 q 51 53 54 50 q 49 58 49 57 q 38 69 42 63 q 33 83 35 75 q 32 97 32 92 q 29 131 29 114 q 29 165 29 149 l 29 861 q 33 924 29 893 q 60 979 38 954 q 75 994 67 988 q 90 1008 83 1001 q 123 1033 106 1021 q 158 1051 140 1046 q 193 1058 175 1057 q 228 1058 211 1058 l 657 1058 q 722 1059 689 1058 q 786 1058 756 1060 q 826 1055 806 1057 q 864 1042 846 1053 q 884 1025 875 1035 q 901 1006 893 1015 q 933 968 918 988 q 953 924 947 949 q 958 878 958 901 q 957 832 957 854 q 957 799 957 815 q 953 765 957 782 q 951 756 951 761 q 949 749 951 751 q 944 740 947 744 q 938 732 940 736 l 929 722 q 922 719 926 721 q 913 715 917 718 q 908 714 911 715 q 903 711 906 713 q 895 713 900 711 q 888 715 890 714 q 881 716 886 715 q 872 718 875 717 q 871 722 871 719 q 869 725 871 724 q 865 735 868 731 q 861 746 863 740 q 861 765 860 756 q 864 785 863 775 l 864 822 q 861 872 864 843 q 849 928 858 901 q 818 965 839 954 q 804 968 810 968 q 776 972 790 971 q 749 972 763 972 m 844 379 q 840 385 843 382 q 833 392 836 389 l 833 403 q 832 414 832 408 q 832 425 832 419 q 834 474 833 449 q 832 522 835 499 q 831 547 832 533 q 825 569 829 560 q 790 600 814 590 q 738 612 765 610 q 690 614 711 614 l 535 614 q 501 614 519 614 q 468 617 483 614 q 458 620 464 619 q 447 622 451 621 q 440 629 444 625 q 433 635 436 633 q 429 640 432 638 q 426 643 426 642 q 426 652 425 646 q 426 661 426 658 q 426 667 426 664 q 426 672 425 671 q 432 678 428 675 q 438 682 436 681 q 443 688 440 685 q 449 692 446 690 q 456 694 451 694 q 464 696 460 694 q 491 699 478 699 q 518 700 504 700 l 700 700 q 753 701 725 700 q 804 696 781 703 q 840 678 825 690 q 869 650 856 665 q 894 622 881 636 q 914 593 907 608 q 928 533 928 567 q 926 469 928 499 q 925 443 925 457 q 921 417 925 429 q 902 388 915 400 q 871 372 889 375 q 862 371 868 372 q 853 371 856 369 q 849 375 851 372 q 844 379 846 378 m 956 247 q 965 211 963 229 q 968 174 967 193 q 968 137 968 156 q 967 96 968 118 q 963 68 965 82 q 953 43 960 54 q 932 21 944 31 q 915 6 924 13 q 897 -7 906 0 q 892 -12 896 -8 q 886 -18 888 -15 q 885 -27 885 -21 q 883 -37 885 -33 q 883 -42 883 -39 q 882 -49 882 -46 q 886 -57 883 -53 q 890 -65 889 -61 q 910 -94 899 -81 q 932 -122 921 -108 q 942 -134 936 -128 q 950 -147 947 -140 q 965 -194 963 -168 q 961 -244 968 -221 q 959 -254 960 -249 q 956 -264 958 -260 q 950 -272 954 -268 q 943 -279 946 -275 q 940 -283 942 -281 q 935 -287 938 -286 q 928 -290 932 -289 q 921 -292 924 -290 q 914 -294 918 -293 q 907 -296 910 -296 q 898 -291 903 -294 q 890 -286 893 -287 q 885 -282 889 -283 q 879 -279 882 -281 q 878 -273 878 -276 q 878 -268 878 -269 q 874 -233 874 -249 q 869 -195 872 -215 q 854 -161 865 -175 q 825 -137 843 -146 q 792 -117 807 -128 l 781 -107 q 778 -100 779 -104 q 774 -93 776 -96 q 770 -86 772 -90 q 767 -78 768 -82 q 767 -71 765 -75 q 768 -62 768 -67 q 768 -56 768 -60 q 769 -49 768 -51 q 775 -41 772 -44 q 779 -35 778 -37 q 784 -28 782 -32 q 789 -22 786 -24 q 824 3 804 -7 q 858 32 844 14 q 868 55 865 43 q 872 78 871 67 q 876 132 876 104 q 874 186 876 160 q 869 211 872 197 q 860 235 867 225 q 817 264 844 258 q 764 271 790 269 q 715 271 749 271 q 644 271 682 271 q 572 271 606 271 q 524 271 539 271 q 485 272 506 271 q 446 282 464 272 q 440 287 444 285 q 432 290 435 289 q 429 298 431 293 q 426 306 428 303 q 424 313 426 308 q 422 319 422 317 q 426 326 422 322 q 431 332 429 331 q 434 339 432 335 q 438 344 436 343 l 449 349 q 463 353 456 351 q 478 356 469 354 q 534 358 499 358 q 604 358 569 358 q 660 357 639 357 l 778 357 q 815 357 796 357 q 853 353 835 357 q 888 333 874 347 q 917 301 903 318 q 938 276 926 289 q 956 247 949 263 m 629 -233 q 632 -236 632 -233 q 628 -236 632 -236 l 617 -233 q 611 -231 614 -233 q 606 -225 608 -228 q 594 -215 600 -219 q 582 -201 589 -210 q 553 -148 565 -176 q 539 -89 540 -119 q 538 -78 538 -83 q 540 -67 539 -72 q 540 -63 540 -65 q 540 -60 539 -61 q 549 -51 543 -54 q 553 -46 550 -50 q 557 -42 556 -42 q 563 -47 558 -42 q 568 -53 567 -51 q 572 -56 569 -54 q 576 -61 575 -58 q 578 -74 578 -64 q 581 -86 581 -79 q 583 -100 582 -93 q 590 -134 586 -118 q 599 -167 593 -150 q 611 -193 604 -181 q 624 -218 618 -206 q 626 -226 625 -222 q 629 -233 628 -229 z "}}}
